G04*
G04 #@! TF.GenerationSoftware,Altium Limited,Altium Designer,21.5.1 (32)*
G04*
G04 Layer_Color=32896*
%FSLAX25Y25*%
%MOIN*%
G70*
G04*
G04 #@! TF.SameCoordinates,46425C1A-2BEC-4B65-9795-0374EE0649E2*
G04*
G04*
G04 #@! TF.FilePolarity,Positive*
G04*
G01*
G75*
%ADD10C,0.00787*%
%ADD11C,0.00984*%
D10*
X79133Y30838D02*
Y28214D01*
X77821Y29526D02*
X80445D01*
X79133Y22967D02*
Y20343D01*
X79133Y46586D02*
Y43962D01*
X77821Y45274D02*
X80445D01*
X79133Y38715D02*
Y36091D01*
X68425Y30315D02*
Y27166D01*
Y30315D02*
X67226Y27166D01*
X66026Y30315D02*
X67226Y27166D01*
X66026Y30315D02*
Y27166D01*
X65126Y29715D02*
X64826Y29865D01*
X64377Y30315D01*
Y27166D01*
X68504Y46063D02*
Y42914D01*
Y46063D02*
X67304Y42914D01*
X66105Y46063D02*
X67304Y42914D01*
X66105Y46063D02*
Y42914D01*
X65055Y45313D02*
Y45463D01*
X64905Y45763D01*
X64755Y45913D01*
X64455Y46063D01*
X63855D01*
X63556Y45913D01*
X63406Y45763D01*
X63256Y45463D01*
Y45164D01*
X63406Y44864D01*
X63706Y44414D01*
X65205Y42914D01*
X63106D01*
X74604Y7715D02*
X74754Y8014D01*
X75054Y8314D01*
X75354Y8464D01*
X75954D01*
X76253Y8314D01*
X76553Y8014D01*
X76703Y7715D01*
X76853Y7265D01*
Y6515D01*
X76703Y6065D01*
X76553Y5765D01*
X76253Y5465D01*
X75954Y5315D01*
X75354D01*
X75054Y5465D01*
X74754Y5765D01*
X74604Y6065D01*
Y6515D01*
X75354D02*
X74604D01*
X73884Y8464D02*
Y5315D01*
Y8464D02*
X71785Y5315D01*
Y8464D02*
Y5315D01*
X70915Y8464D02*
Y5315D01*
Y8464D02*
X69866D01*
X69416Y8314D01*
X69116Y8014D01*
X68966Y7715D01*
X68816Y7265D01*
Y6515D01*
X68966Y6065D01*
X69116Y5765D01*
X69416Y5465D01*
X69866Y5315D01*
X70915D01*
X76928Y53740D02*
X75729Y50591D01*
X74529Y53740D02*
X75729Y50591D01*
X71875Y52990D02*
X72025Y53290D01*
X72325Y53590D01*
X72625Y53740D01*
X73225D01*
X73524Y53590D01*
X73824Y53290D01*
X73974Y52990D01*
X74124Y52540D01*
Y51790D01*
X73974Y51341D01*
X73824Y51041D01*
X73524Y50741D01*
X73225Y50591D01*
X72625D01*
X72325Y50741D01*
X72025Y51041D01*
X71875Y51341D01*
X68741Y52990D02*
X68891Y53290D01*
X69191Y53590D01*
X69491Y53740D01*
X70091D01*
X70390Y53590D01*
X70690Y53290D01*
X70840Y52990D01*
X70990Y52540D01*
Y51790D01*
X70840Y51341D01*
X70690Y51041D01*
X70390Y50741D01*
X70091Y50591D01*
X69491D01*
X69191Y50741D01*
X68891Y51041D01*
X68741Y51341D01*
D11*
X70669Y26378D02*
X72244D01*
X70669Y41929D02*
X72244Y41929D01*
M02*
