G04*
G04 #@! TF.GenerationSoftware,Altium Limited,Altium Designer,21.5.1 (32)*
G04*
G04 Layer_Physical_Order=3*
G04 Layer_Color=16440176*
%FSLAX25Y25*%
%MOIN*%
G70*
G04*
G04 #@! TF.SameCoordinates,46425C1A-2BEC-4B65-9795-0374EE0649E2*
G04*
G04*
G04 #@! TF.FilePolarity,Positive*
G04*
G01*
G75*
%ADD10C,0.00787*%
%ADD46C,0.01575*%
%ADD47C,0.05512*%
G36*
X97426Y58056D02*
Y1000D01*
X1000D01*
Y58056D01*
X97426Y58056D01*
D02*
G37*
%LPC*%
G36*
X28205Y52163D02*
X27580D01*
X27003Y51924D01*
X26561Y51482D01*
X26322Y50905D01*
Y50280D01*
X26561Y49702D01*
X27003Y49260D01*
X27580Y49021D01*
X28171D01*
Y48704D01*
X28411Y48126D01*
X28852Y47684D01*
X29430Y47445D01*
X30055D01*
X30632Y47684D01*
X31074Y48126D01*
X31313Y48704D01*
Y49328D01*
X31074Y49906D01*
X30632Y50348D01*
X30055Y50587D01*
X29464D01*
Y50905D01*
X29225Y51482D01*
X28783Y51924D01*
X28205Y52163D01*
D02*
G37*
G36*
X18504Y55818D02*
X14272D01*
X13966Y55758D01*
X13707Y55585D01*
X13534Y55325D01*
X13473Y55020D01*
Y46260D01*
X13534Y45954D01*
X13707Y45695D01*
X13966Y45522D01*
X14272Y45461D01*
X18504D01*
X18810Y45522D01*
X19069Y45695D01*
X19242Y45954D01*
X19303Y46260D01*
Y53032D01*
X30802D01*
X32359Y51475D01*
Y43919D01*
X31943Y43641D01*
X31809Y43697D01*
X31184D01*
X30606Y43458D01*
X30164Y43016D01*
X29925Y42438D01*
Y41813D01*
X30164Y41236D01*
X30606Y40794D01*
X31184Y40555D01*
X31809D01*
X32386Y40794D01*
X32517Y40926D01*
X33494D01*
X33559Y40913D01*
X33624Y40926D01*
X43007D01*
X53350Y30582D01*
Y30396D01*
X53589Y29819D01*
X54031Y29377D01*
X54609Y29138D01*
X55234D01*
X55811Y29377D01*
X56253Y29819D01*
X56492Y30396D01*
Y31021D01*
X56253Y31598D01*
X55811Y32040D01*
X55234Y32280D01*
X55048D01*
X44353Y42975D01*
X43963Y43235D01*
X43504Y43326D01*
X34759D01*
Y51973D01*
X34668Y52432D01*
X34408Y52821D01*
X32148Y55081D01*
X31758Y55341D01*
X31299Y55432D01*
X19170D01*
X19069Y55585D01*
X18810Y55758D01*
X18504Y55818D01*
D02*
G37*
G36*
X25466Y48067D02*
X24534D01*
X23634Y47826D01*
X22827Y47360D01*
X22168Y46701D01*
X21702Y45894D01*
X21461Y44993D01*
Y44062D01*
X21702Y43161D01*
X22168Y42354D01*
X22827Y41695D01*
X23634Y41229D01*
X24534Y40988D01*
X25466D01*
X26366Y41229D01*
X27173Y41695D01*
X27832Y42354D01*
X28298Y43161D01*
X28539Y44062D01*
Y44993D01*
X28298Y45894D01*
X27832Y46701D01*
X27173Y47360D01*
X26366Y47826D01*
X25466Y48067D01*
D02*
G37*
G36*
X62517Y42161D02*
X61892D01*
X61315Y41922D01*
X60873Y41480D01*
X60634Y40903D01*
Y40278D01*
X60873Y39701D01*
X61046Y39528D01*
X60873Y39354D01*
X60634Y38777D01*
Y38152D01*
X60873Y37575D01*
X61046Y37402D01*
X60873Y37228D01*
X60634Y36651D01*
Y36026D01*
X60873Y35449D01*
X61046Y35276D01*
X60873Y35102D01*
X60634Y34525D01*
Y33900D01*
X60873Y33323D01*
X61315Y32881D01*
X61892Y32642D01*
X62517D01*
X63095Y32881D01*
X63536Y33323D01*
X63776Y33900D01*
Y34525D01*
X63536Y35102D01*
X63363Y35276D01*
X63536Y35449D01*
X63776Y36026D01*
Y36651D01*
X63536Y37228D01*
X63363Y37402D01*
X63536Y37575D01*
X63776Y38152D01*
Y38777D01*
X63536Y39354D01*
X63363Y39528D01*
X63536Y39701D01*
X63776Y40278D01*
Y40903D01*
X63536Y41480D01*
X63095Y41922D01*
X62517Y42161D01*
D02*
G37*
G36*
X12222Y31394D02*
X11597D01*
X11020Y31155D01*
X10888Y31023D01*
X8600D01*
X8469Y31155D01*
X7891Y31394D01*
X7266D01*
X6689Y31155D01*
X6247Y30713D01*
X6008Y30135D01*
Y29510D01*
X6247Y28933D01*
X6689Y28491D01*
X7266Y28252D01*
X7891D01*
X8469Y28491D01*
X8600Y28623D01*
X10888D01*
X11020Y28491D01*
X11597Y28252D01*
X12222D01*
X12799Y28491D01*
X12931Y28623D01*
X14660D01*
X16812Y26471D01*
Y20965D01*
X16903Y20505D01*
X17163Y20116D01*
X19624Y17655D01*
X20013Y17395D01*
X20472Y17304D01*
X22118D01*
X22309Y16842D01*
X22168Y16701D01*
X21702Y15894D01*
X21461Y14994D01*
Y14062D01*
X21702Y13161D01*
X22168Y12354D01*
X22827Y11695D01*
X23634Y11229D01*
X24534Y10988D01*
X25466D01*
X26366Y11229D01*
X27173Y11695D01*
X27832Y12354D01*
X28298Y13161D01*
X28539Y14062D01*
Y14994D01*
X28298Y15894D01*
X27832Y16701D01*
X27691Y16842D01*
X27883Y17304D01*
X29424D01*
X29925Y16803D01*
Y16617D01*
X30164Y16039D01*
X30606Y15597D01*
X31184Y15358D01*
X31809D01*
X32386Y15597D01*
X32828Y16039D01*
X33067Y16617D01*
Y16891D01*
X33567Y17098D01*
X38128Y12537D01*
X38517Y12277D01*
X38976Y12186D01*
X70227D01*
Y10693D01*
X70292Y10369D01*
X70288Y10361D01*
Y9736D01*
X70527Y9158D01*
X70969Y8716D01*
X71547Y8477D01*
X72172D01*
X72749Y8716D01*
X73191Y9158D01*
X73430Y9736D01*
Y10361D01*
X73191Y10938D01*
X73134Y10995D01*
X73341Y11495D01*
X76458D01*
X76562Y11390D01*
Y10908D01*
X76801Y10331D01*
X77243Y9889D01*
X77820Y9650D01*
X78446D01*
X79023Y9889D01*
X79465Y10331D01*
X79704Y10908D01*
Y11533D01*
X79465Y12110D01*
X79023Y12552D01*
X78633Y12713D01*
X77803Y13544D01*
X77414Y13804D01*
X76955Y13895D01*
X71956D01*
X71616Y14234D01*
X71227Y14495D01*
X70768Y14586D01*
X39474D01*
X33067Y20992D01*
X33067Y20993D01*
Y21179D01*
X33052Y21215D01*
X33330Y21631D01*
X41928D01*
X43738Y19821D01*
X44127Y19560D01*
X44587Y19469D01*
X56417D01*
X56877Y19560D01*
X57266Y19821D01*
X59975Y22530D01*
X60472Y22320D01*
X60676Y21827D01*
X60849Y21654D01*
X60676Y21480D01*
X60437Y20903D01*
Y20278D01*
X60676Y19701D01*
X60849Y19527D01*
X60676Y19354D01*
X60437Y18777D01*
Y18152D01*
X60676Y17575D01*
X61118Y17133D01*
X61695Y16894D01*
X62320D01*
X62898Y17133D01*
X63340Y17575D01*
X63579Y18152D01*
Y18777D01*
X63340Y19354D01*
X63166Y19528D01*
X63340Y19701D01*
X63579Y20278D01*
Y20903D01*
X63340Y21480D01*
X63166Y21654D01*
X63340Y21827D01*
X63579Y22404D01*
Y23029D01*
X63340Y23606D01*
X63166Y23779D01*
X63340Y23953D01*
X63579Y24530D01*
Y25155D01*
X63340Y25732D01*
X62898Y26174D01*
X62320Y26413D01*
X61695D01*
X61118Y26174D01*
X60978Y26034D01*
X60582D01*
X60122Y25943D01*
X59733Y25682D01*
X55920Y21869D01*
X45084D01*
X43274Y23679D01*
X42884Y23940D01*
X42425Y24031D01*
X30682D01*
X30223Y23940D01*
X29834Y23679D01*
X28683Y22529D01*
X28423Y22139D01*
X28331Y21680D01*
Y20052D01*
X28045Y19704D01*
X20970D01*
X19212Y21462D01*
Y26969D01*
X19121Y27428D01*
X18860Y27817D01*
X16006Y30672D01*
X15617Y30932D01*
X15157Y31023D01*
X12931D01*
X12799Y31155D01*
X12222Y31394D01*
D02*
G37*
G36*
X25466Y38067D02*
X24534D01*
X23634Y37826D01*
X22827Y37360D01*
X22168Y36701D01*
X21702Y35894D01*
X21461Y34993D01*
Y34062D01*
X21702Y33161D01*
X22168Y32354D01*
X22827Y31695D01*
X23634Y31229D01*
X24534Y30988D01*
X25466D01*
X26366Y31229D01*
X27173Y31695D01*
X27832Y32354D01*
X28298Y33161D01*
X28539Y34062D01*
Y34993D01*
X28298Y35894D01*
X27832Y36701D01*
X27173Y37360D01*
X26366Y37826D01*
X25466Y38067D01*
D02*
G37*
G36*
Y28067D02*
X24534D01*
X23634Y27826D01*
X22827Y27360D01*
X22168Y26701D01*
X21702Y25894D01*
X21461Y24994D01*
Y24062D01*
X21702Y23161D01*
X22168Y22354D01*
X22827Y21695D01*
X23634Y21229D01*
X24534Y20988D01*
X25466D01*
X26366Y21229D01*
X27173Y21695D01*
X27832Y22354D01*
X28298Y23161D01*
X28539Y24062D01*
Y24994D01*
X28298Y25894D01*
X27832Y26701D01*
X27173Y27360D01*
X26366Y27826D01*
X25466Y28067D01*
D02*
G37*
G36*
X15466Y18067D02*
X14534D01*
X13634Y17826D01*
X12827Y17360D01*
X12168Y16701D01*
X11702Y15894D01*
X11461Y14994D01*
Y14062D01*
X11702Y13161D01*
X12168Y12354D01*
X12827Y11695D01*
X13634Y11229D01*
X14534Y10988D01*
X15466D01*
X16366Y11229D01*
X17173Y11695D01*
X17832Y12354D01*
X18298Y13161D01*
X18539Y14062D01*
Y14994D01*
X18298Y15894D01*
X17832Y16701D01*
X17173Y17360D01*
X16366Y17826D01*
X15466Y18067D01*
D02*
G37*
G36*
X49919Y11610D02*
X49294D01*
X48717Y11371D01*
X48275Y10929D01*
X48035Y10352D01*
Y9727D01*
X48275Y9150D01*
X48717Y8708D01*
X49294Y8468D01*
X49919D01*
X50496Y8708D01*
X50938Y9150D01*
X51177Y9727D01*
Y10352D01*
X50938Y10929D01*
X50496Y11371D01*
X49919Y11610D01*
D02*
G37*
G36*
X44013D02*
X43388D01*
X42811Y11371D01*
X42369Y10929D01*
X42130Y10352D01*
Y9727D01*
X42369Y9150D01*
X42811Y8708D01*
X43388Y8468D01*
X44013D01*
X44591Y8708D01*
X45033Y9150D01*
X45272Y9727D01*
Y10352D01*
X45033Y10929D01*
X44591Y11371D01*
X44013Y11610D01*
D02*
G37*
G36*
X38108D02*
X37483D01*
X36906Y11371D01*
X36464Y10929D01*
X36224Y10352D01*
Y9727D01*
X36464Y9150D01*
X36906Y8708D01*
X37483Y8468D01*
X38108D01*
X38685Y8708D01*
X39127Y9150D01*
X39366Y9727D01*
Y10352D01*
X39127Y10929D01*
X38685Y11371D01*
X38108Y11610D01*
D02*
G37*
G36*
X32202D02*
X31577D01*
X31000Y11371D01*
X30558Y10929D01*
X30319Y10352D01*
Y9727D01*
X30558Y9150D01*
X31000Y8708D01*
X31577Y8468D01*
X32202D01*
X32780Y8708D01*
X33222Y9150D01*
X33461Y9727D01*
Y10352D01*
X33222Y10929D01*
X32780Y11371D01*
X32202Y11610D01*
D02*
G37*
G36*
X12123Y7083D02*
X11499D01*
X10921Y6843D01*
X10479Y6402D01*
X10240Y5824D01*
Y5199D01*
X10479Y4622D01*
X10921Y4180D01*
X11499Y3941D01*
X12123D01*
X12701Y4180D01*
X13143Y4622D01*
X13382Y5199D01*
Y5824D01*
X13143Y6402D01*
X12701Y6843D01*
X12123Y7083D01*
D02*
G37*
%LPD*%
G36*
X18504Y46260D02*
X14272D01*
Y55020D01*
X18504D01*
Y46260D01*
D02*
G37*
G36*
X32286Y20813D02*
X32295Y20766D01*
X32310Y20718D01*
X32331Y20668D01*
X32359Y20616D01*
X32393Y20562D01*
X32433Y20506D01*
X32479Y20448D01*
X32591Y20328D01*
X32034Y19771D01*
X31973Y19830D01*
X31856Y19929D01*
X31801Y19969D01*
X31747Y20003D01*
X31695Y20031D01*
X31644Y20052D01*
X31596Y20067D01*
X31549Y20076D01*
X31504Y20079D01*
X32283Y20858D01*
X32286Y20813D01*
D02*
G37*
D10*
X60582Y24834D02*
X61999D01*
X62008Y24843D01*
X56417Y20669D02*
X60582Y24834D01*
X44587Y20669D02*
X56417D01*
X71859Y10048D02*
Y10261D01*
X71428Y10693D02*
X71859Y10261D01*
X71428Y10693D02*
Y12695D01*
X78133Y11220D02*
Y11434D01*
X77854Y11712D02*
X78133Y11434D01*
X76955Y12695D02*
X77854Y11795D01*
X71428Y12695D02*
X76955D01*
X77854Y11712D02*
Y11795D01*
X17323Y54232D02*
X31299D01*
X33559Y51973D01*
Y42113D02*
Y51973D01*
X31496Y42126D02*
X33366D01*
X43504D01*
X54921Y30709D01*
X20472Y18504D02*
X29921D01*
X18012Y20965D02*
X20472Y18504D01*
X18012Y20965D02*
Y26969D01*
X29531Y20052D02*
X29921Y19663D01*
Y18504D02*
Y19663D01*
X29531Y20052D02*
Y21680D01*
X30682Y22831D01*
X42425D01*
X29921Y18504D02*
X31471Y16954D01*
X11909Y29823D02*
X15157D01*
X18012Y26969D01*
X7382Y29823D02*
X11909D01*
X71428Y12695D02*
Y12726D01*
X70768Y13386D02*
X71428Y12726D01*
X38976Y13386D02*
X70768D01*
X42425Y22831D02*
X44587Y20669D01*
X31496Y20866D02*
X38976Y13386D01*
D46*
X5906Y5512D02*
D03*
X81299Y46161D02*
D03*
X1772Y5413D02*
D03*
Y9350D02*
D03*
Y12992D02*
D03*
Y17224D02*
D03*
Y22736D02*
D03*
Y37106D02*
D03*
Y30315D02*
D03*
Y33957D02*
D03*
Y47244D02*
D03*
Y53150D02*
D03*
X71752Y57284D02*
D03*
X67815D02*
D03*
X63878D02*
D03*
X59646D02*
D03*
X56004D02*
D03*
X52067D02*
D03*
X48425D02*
D03*
X44488D02*
D03*
X40551D02*
D03*
X5413D02*
D03*
X9350D02*
D03*
X12992D02*
D03*
X17224D02*
D03*
X21161D02*
D03*
X25098D02*
D03*
X1772D02*
D03*
X36319D02*
D03*
X32677D02*
D03*
X28740D02*
D03*
X75394D02*
D03*
X84646Y4270D02*
D03*
X96653Y9449D02*
D03*
Y6988D02*
D03*
Y4232D02*
D03*
X94488Y1772D02*
D03*
X89567D02*
D03*
X92028D02*
D03*
X75394D02*
D03*
X79331D02*
D03*
X82973D02*
D03*
X87106Y1809D02*
D03*
X96653Y1772D02*
D03*
X52067D02*
D03*
X56004D02*
D03*
X59646D02*
D03*
X63878D02*
D03*
X67815D02*
D03*
X71752D02*
D03*
X28740D02*
D03*
X32677D02*
D03*
X36319D02*
D03*
X40551D02*
D03*
X44488D02*
D03*
X48425D02*
D03*
X1772D02*
D03*
X25098D02*
D03*
X21161D02*
D03*
X17224D02*
D03*
X12992D02*
D03*
X9350D02*
D03*
X5413D02*
D03*
X71859Y10048D02*
D03*
X78133Y11220D02*
D03*
X40846Y10039D02*
D03*
X68701Y18307D02*
D03*
Y24213D02*
D03*
X66732D02*
D03*
X68701Y20276D02*
D03*
X66634Y34055D02*
D03*
X54921Y30709D02*
D03*
X15256Y32673D02*
D03*
X30109Y44758D02*
D03*
X31594Y38189D02*
D03*
X24508Y49705D02*
D03*
X20768Y52264D02*
D03*
X11909Y29823D02*
D03*
X7579D02*
D03*
X9350Y16338D02*
D03*
X9350Y11712D02*
D03*
X21161Y7087D02*
D03*
X87106Y6988D02*
D03*
Y4232D02*
D03*
X89567D02*
D03*
X92028D02*
D03*
Y6988D02*
D03*
X94488D02*
D03*
Y9449D02*
D03*
Y4232D02*
D03*
X89567Y6988D02*
D03*
X76280Y7087D02*
D03*
X64468Y7087D02*
D03*
X60532Y7087D02*
D03*
X56595Y7087D02*
D03*
X53051D02*
D03*
X29035D02*
D03*
X33268Y6988D02*
D03*
X36811D02*
D03*
X66732Y20276D02*
D03*
Y22244D02*
D03*
X68701D02*
D03*
X66732Y36024D02*
D03*
X68701D02*
D03*
X66732Y37992D02*
D03*
X68701D02*
D03*
Y39961D02*
D03*
X66732D02*
D03*
X15354Y54232D02*
D03*
X17323D02*
D03*
X10925Y37205D02*
D03*
X10827Y40846D02*
D03*
X10236Y39079D02*
D03*
X2165Y39071D02*
D03*
X4232Y38087D02*
D03*
Y40063D02*
D03*
X8169D02*
D03*
Y38087D02*
D03*
X6201Y40063D02*
D03*
Y38087D02*
D03*
X13287Y38386D02*
D03*
Y32677D02*
D03*
X17224D02*
D03*
Y38386D02*
D03*
X15256Y38390D02*
D03*
X3347Y50098D02*
D03*
X1772Y41043D02*
D03*
X15354Y52264D02*
D03*
X17323D02*
D03*
Y50295D02*
D03*
X34945Y10039D02*
D03*
X31496Y42126D02*
D03*
Y20866D02*
D03*
X40059Y20669D02*
D03*
X31496Y16929D02*
D03*
X52756Y23917D02*
D03*
X63583Y16634D02*
D03*
X96653Y45276D02*
D03*
Y13780D02*
D03*
Y21654D02*
D03*
Y29528D02*
D03*
X96636Y37402D02*
D03*
X62008Y24843D02*
D03*
X73802Y32480D02*
D03*
D47*
X5000Y14528D02*
D03*
M02*
