G04*
G04 #@! TF.GenerationSoftware,Altium Limited,Altium Designer,21.5.1 (32)*
G04*
G04 Layer_Color=255*
%FSLAX25Y25*%
%MOIN*%
G70*
G04*
G04 #@! TF.SameCoordinates,46425C1A-2BEC-4B65-9795-0374EE0649E2*
G04*
G04*
G04 #@! TF.FilePolarity,Positive*
G04*
G01*
G75*
G04:AMPARAMS|DCode=12|XSize=53.15mil|YSize=70.87mil|CornerRadius=13.29mil|HoleSize=0mil|Usage=FLASHONLY|Rotation=270.000|XOffset=0mil|YOffset=0mil|HoleType=Round|Shape=RoundedRectangle|*
%AMROUNDEDRECTD12*
21,1,0.05315,0.04429,0,0,270.0*
21,1,0.02657,0.07087,0,0,270.0*
1,1,0.02657,-0.02215,-0.01329*
1,1,0.02657,-0.02215,0.01329*
1,1,0.02657,0.02215,0.01329*
1,1,0.02657,0.02215,-0.01329*
%
%ADD12ROUNDEDRECTD12*%
G04:AMPARAMS|DCode=13|XSize=23.62mil|YSize=25.59mil|CornerRadius=3.9mil|HoleSize=0mil|Usage=FLASHONLY|Rotation=180.000|XOffset=0mil|YOffset=0mil|HoleType=Round|Shape=RoundedRectangle|*
%AMROUNDEDRECTD13*
21,1,0.02362,0.01780,0,0,180.0*
21,1,0.01583,0.02559,0,0,180.0*
1,1,0.00780,-0.00791,0.00890*
1,1,0.00780,0.00791,0.00890*
1,1,0.00780,0.00791,-0.00890*
1,1,0.00780,-0.00791,-0.00890*
%
%ADD13ROUNDEDRECTD13*%
%ADD14C,0.03937*%
G04:AMPARAMS|DCode=15|XSize=23.62mil|YSize=25.59mil|CornerRadius=3.9mil|HoleSize=0mil|Usage=FLASHONLY|Rotation=90.000|XOffset=0mil|YOffset=0mil|HoleType=Round|Shape=RoundedRectangle|*
%AMROUNDEDRECTD15*
21,1,0.02362,0.01780,0,0,90.0*
21,1,0.01583,0.02559,0,0,90.0*
1,1,0.00780,0.00890,0.00791*
1,1,0.00780,0.00890,-0.00791*
1,1,0.00780,-0.00890,-0.00791*
1,1,0.00780,-0.00890,0.00791*
%
%ADD15ROUNDEDRECTD15*%
G04:AMPARAMS|DCode=16|XSize=57.09mil|YSize=45.28mil|CornerRadius=5.89mil|HoleSize=0mil|Usage=FLASHONLY|Rotation=180.000|XOffset=0mil|YOffset=0mil|HoleType=Round|Shape=RoundedRectangle|*
%AMROUNDEDRECTD16*
21,1,0.05709,0.03350,0,0,180.0*
21,1,0.04532,0.04528,0,0,180.0*
1,1,0.01177,-0.02266,0.01675*
1,1,0.01177,0.02266,0.01675*
1,1,0.01177,0.02266,-0.01675*
1,1,0.01177,-0.02266,-0.01675*
%
%ADD16ROUNDEDRECTD16*%
G04:AMPARAMS|DCode=17|XSize=37.4mil|YSize=37.4mil|CornerRadius=5.98mil|HoleSize=0mil|Usage=FLASHONLY|Rotation=180.000|XOffset=0mil|YOffset=0mil|HoleType=Round|Shape=RoundedRectangle|*
%AMROUNDEDRECTD17*
21,1,0.03740,0.02543,0,0,180.0*
21,1,0.02543,0.03740,0,0,180.0*
1,1,0.01197,-0.01272,0.01272*
1,1,0.01197,0.01272,0.01272*
1,1,0.01197,0.01272,-0.01272*
1,1,0.01197,-0.01272,-0.01272*
%
%ADD17ROUNDEDRECTD17*%
G04:AMPARAMS|DCode=18|XSize=11.81mil|YSize=55.12mil|CornerRadius=1.95mil|HoleSize=0mil|Usage=FLASHONLY|Rotation=270.000|XOffset=0mil|YOffset=0mil|HoleType=Round|Shape=RoundedRectangle|*
%AMROUNDEDRECTD18*
21,1,0.01181,0.05122,0,0,270.0*
21,1,0.00791,0.05512,0,0,270.0*
1,1,0.00390,-0.02561,-0.00396*
1,1,0.00390,-0.02561,0.00396*
1,1,0.00390,0.02561,0.00396*
1,1,0.00390,0.02561,-0.00396*
%
%ADD18ROUNDEDRECTD18*%
G04:AMPARAMS|DCode=21|XSize=27.56mil|YSize=25.59mil|CornerRadius=4.22mil|HoleSize=0mil|Usage=FLASHONLY|Rotation=0.000|XOffset=0mil|YOffset=0mil|HoleType=Round|Shape=RoundedRectangle|*
%AMROUNDEDRECTD21*
21,1,0.02756,0.01715,0,0,0.0*
21,1,0.01911,0.02559,0,0,0.0*
1,1,0.00845,0.00956,-0.00857*
1,1,0.00845,-0.00956,-0.00857*
1,1,0.00845,-0.00956,0.00857*
1,1,0.00845,0.00956,0.00857*
%
%ADD21ROUNDEDRECTD21*%
G04:AMPARAMS|DCode=22|XSize=11.81mil|YSize=55.12mil|CornerRadius=1.95mil|HoleSize=0mil|Usage=FLASHONLY|Rotation=180.000|XOffset=0mil|YOffset=0mil|HoleType=Round|Shape=RoundedRectangle|*
%AMROUNDEDRECTD22*
21,1,0.01181,0.05122,0,0,180.0*
21,1,0.00791,0.05512,0,0,180.0*
1,1,0.00390,-0.00396,0.02561*
1,1,0.00390,0.00396,0.02561*
1,1,0.00390,0.00396,-0.02561*
1,1,0.00390,-0.00396,-0.02561*
%
%ADD22ROUNDEDRECTD22*%
G04:AMPARAMS|DCode=23|XSize=31.5mil|YSize=31.5mil|CornerRadius=3.94mil|HoleSize=0mil|Usage=FLASHONLY|Rotation=270.000|XOffset=0mil|YOffset=0mil|HoleType=Round|Shape=RoundedRectangle|*
%AMROUNDEDRECTD23*
21,1,0.03150,0.02362,0,0,270.0*
21,1,0.02362,0.03150,0,0,270.0*
1,1,0.00787,-0.01181,-0.01181*
1,1,0.00787,-0.01181,0.01181*
1,1,0.00787,0.01181,0.01181*
1,1,0.00787,0.01181,-0.01181*
%
%ADD23ROUNDEDRECTD23*%
G04:AMPARAMS|DCode=42|XSize=13.78mil|YSize=33.47mil|CornerRadius=2.27mil|HoleSize=0mil|Usage=FLASHONLY|Rotation=180.000|XOffset=0mil|YOffset=0mil|HoleType=Round|Shape=RoundedRectangle|*
%AMROUNDEDRECTD42*
21,1,0.01378,0.02892,0,0,180.0*
21,1,0.00923,0.03347,0,0,180.0*
1,1,0.00455,-0.00462,0.01446*
1,1,0.00455,0.00462,0.01446*
1,1,0.00455,0.00462,-0.01446*
1,1,0.00455,-0.00462,-0.01446*
%
%ADD42ROUNDEDRECTD42*%
G04:AMPARAMS|DCode=43|XSize=40.16mil|YSize=62.99mil|CornerRadius=2.01mil|HoleSize=0mil|Usage=FLASHONLY|Rotation=90.000|XOffset=0mil|YOffset=0mil|HoleType=Round|Shape=RoundedRectangle|*
%AMROUNDEDRECTD43*
21,1,0.04016,0.05898,0,0,90.0*
21,1,0.03614,0.06299,0,0,90.0*
1,1,0.00402,0.02949,0.01807*
1,1,0.00402,0.02949,-0.01807*
1,1,0.00402,-0.02949,-0.01807*
1,1,0.00402,-0.02949,0.01807*
%
%ADD43ROUNDEDRECTD43*%
%ADD45C,0.07087*%
D12*
X89173Y20177D02*
D03*
Y5610D02*
D03*
Y46161D02*
D03*
Y38878D02*
D03*
Y53445D02*
D03*
Y12894D02*
D03*
D13*
X75394Y46063D02*
D03*
X79331D02*
D03*
X45669Y12992D02*
D03*
X41732D02*
D03*
X33465D02*
D03*
X37402D02*
D03*
Y46063D02*
D03*
X33465D02*
D03*
X45669D02*
D03*
X41732D02*
D03*
X17323Y48327D02*
D03*
X13386D02*
D03*
X79528Y12992D02*
D03*
X75591D02*
D03*
X33465Y16929D02*
D03*
X37402D02*
D03*
X3347Y48327D02*
D03*
X7283D02*
D03*
X37402Y20866D02*
D03*
X33465D02*
D03*
Y42126D02*
D03*
X37402D02*
D03*
Y38189D02*
D03*
X33465D02*
D03*
D14*
X11811Y5512D02*
D03*
X5906D02*
D03*
D15*
X3642Y22244D02*
D03*
Y26181D02*
D03*
X82874Y35236D02*
D03*
Y31299D02*
D03*
X7579Y26181D02*
D03*
X7579Y22244D02*
D03*
X11319Y26181D02*
D03*
Y22244D02*
D03*
X82874Y38780D02*
D03*
Y42717D02*
D03*
Y20276D02*
D03*
Y16339D02*
D03*
Y27756D02*
D03*
Y23819D02*
D03*
D16*
X15256Y35531D02*
D03*
Y42618D02*
D03*
D17*
X16240Y22933D02*
D03*
Y29232D02*
D03*
D18*
X77165Y28543D02*
D03*
Y26575D02*
D03*
Y40354D02*
D03*
Y38386D02*
D03*
Y18701D02*
D03*
Y20669D02*
D03*
Y22638D02*
D03*
Y24606D02*
D03*
Y30512D02*
D03*
Y32480D02*
D03*
Y34449D02*
D03*
Y36417D02*
D03*
X44094Y40354D02*
D03*
Y38386D02*
D03*
Y36417D02*
D03*
Y34449D02*
D03*
Y32480D02*
D03*
Y30512D02*
D03*
Y28543D02*
D03*
Y26575D02*
D03*
Y24606D02*
D03*
Y22638D02*
D03*
Y20669D02*
D03*
Y18701D02*
D03*
D21*
X33268Y24803D02*
D03*
X37598D02*
D03*
Y27953D02*
D03*
X33268D02*
D03*
X37598Y31102D02*
D03*
X33268D02*
D03*
X37598Y34252D02*
D03*
X33268D02*
D03*
D22*
X71457Y46063D02*
D03*
X69488D02*
D03*
X67520D02*
D03*
X65551D02*
D03*
X63583D02*
D03*
X61614D02*
D03*
X59646D02*
D03*
X57677D02*
D03*
X55709D02*
D03*
X53740D02*
D03*
X51772D02*
D03*
X49803D02*
D03*
Y12992D02*
D03*
X51772D02*
D03*
X53740D02*
D03*
X55709D02*
D03*
X57677D02*
D03*
X59646D02*
D03*
X61614D02*
D03*
X63583D02*
D03*
X65551D02*
D03*
X67520D02*
D03*
X69488D02*
D03*
X71457D02*
D03*
D23*
X87402Y32283D02*
D03*
X93307D02*
D03*
X87402Y26772D02*
D03*
X93307D02*
D03*
D42*
X4232Y34843D02*
D03*
X6201D02*
D03*
X8169D02*
D03*
Y43307D02*
D03*
X6201D02*
D03*
X4232D02*
D03*
D43*
X6201Y39075D02*
D03*
D45*
X5000Y14528D02*
D03*
X15000D02*
D03*
X25000Y44528D02*
D03*
Y34528D02*
D03*
Y24528D02*
D03*
Y14528D02*
D03*
M02*
