%TF.GenerationSoftware,KiCad,Pcbnew,(5.1.10)-1*%
%TF.CreationDate,2021-11-07T17:05:54+13:00*%
%TF.ProjectId,THE_BRAINS_FIXTURE,5448455f-4252-4414-994e-535f46495854,rev?*%
%TF.SameCoordinates,Original*%
%TF.FileFunction,Legend,Bot*%
%TF.FilePolarity,Positive*%
%FSLAX46Y46*%
G04 Gerber Fmt 4.6, Leading zero omitted, Abs format (unit mm)*
G04 Created by KiCad (PCBNEW (5.1.10)-1) date 2021-11-07 17:05:54*
%MOMM*%
%LPD*%
G01*
G04 APERTURE LIST*
%ADD10C,0.200000*%
%ADD11C,0.120000*%
G04 APERTURE END LIST*
D10*
X172323809Y-75891666D02*
X172361904Y-76005952D01*
X172361904Y-76196428D01*
X172323809Y-76272619D01*
X172285714Y-76310714D01*
X172209523Y-76348809D01*
X172133333Y-76348809D01*
X172057142Y-76310714D01*
X172019047Y-76272619D01*
X171980952Y-76196428D01*
X171942857Y-76044047D01*
X171904761Y-75967857D01*
X171866666Y-75929761D01*
X171790476Y-75891666D01*
X171714285Y-75891666D01*
X171638095Y-75929761D01*
X171600000Y-75967857D01*
X171561904Y-76044047D01*
X171561904Y-76234523D01*
X171600000Y-76348809D01*
X172361904Y-76691666D02*
X171561904Y-76691666D01*
X171561904Y-76996428D01*
X171600000Y-77072619D01*
X171638095Y-77110714D01*
X171714285Y-77148809D01*
X171828571Y-77148809D01*
X171904761Y-77110714D01*
X171942857Y-77072619D01*
X171980952Y-76996428D01*
X171980952Y-76691666D01*
X172133333Y-77453571D02*
X172133333Y-77834523D01*
X172361904Y-77377380D02*
X171561904Y-77644047D01*
X172361904Y-77910714D01*
X172361904Y-78634523D02*
X171980952Y-78367857D01*
X172361904Y-78177380D02*
X171561904Y-78177380D01*
X171561904Y-78482142D01*
X171600000Y-78558333D01*
X171638095Y-78596428D01*
X171714285Y-78634523D01*
X171828571Y-78634523D01*
X171904761Y-78596428D01*
X171942857Y-78558333D01*
X171980952Y-78482142D01*
X171980952Y-78177380D01*
X171942857Y-78977380D02*
X171942857Y-79244047D01*
X172361904Y-79358333D02*
X172361904Y-78977380D01*
X171561904Y-78977380D01*
X171561904Y-79358333D01*
X122200000Y-76390476D02*
X122161904Y-76314285D01*
X122161904Y-76200000D01*
X122200000Y-76085714D01*
X122276190Y-76009523D01*
X122352380Y-75971428D01*
X122504761Y-75933333D01*
X122619047Y-75933333D01*
X122771428Y-75971428D01*
X122847619Y-76009523D01*
X122923809Y-76085714D01*
X122961904Y-76200000D01*
X122961904Y-76276190D01*
X122923809Y-76390476D01*
X122885714Y-76428571D01*
X122619047Y-76428571D01*
X122619047Y-76276190D01*
X122961904Y-76771428D02*
X122161904Y-76771428D01*
X122961904Y-77228571D01*
X122161904Y-77228571D01*
X122961904Y-77609523D02*
X122161904Y-77609523D01*
X122161904Y-77800000D01*
X122200000Y-77914285D01*
X122276190Y-77990476D01*
X122352380Y-78028571D01*
X122504761Y-78066666D01*
X122619047Y-78066666D01*
X122771428Y-78028571D01*
X122847619Y-77990476D01*
X122923809Y-77914285D01*
X122961904Y-77800000D01*
X122961904Y-77609523D01*
X133373809Y-76766666D02*
X133411904Y-76880952D01*
X133411904Y-77071428D01*
X133373809Y-77147619D01*
X133335714Y-77185714D01*
X133259523Y-77223809D01*
X133183333Y-77223809D01*
X133107142Y-77185714D01*
X133069047Y-77147619D01*
X133030952Y-77071428D01*
X132992857Y-76919047D01*
X132954761Y-76842857D01*
X132916666Y-76804761D01*
X132840476Y-76766666D01*
X132764285Y-76766666D01*
X132688095Y-76804761D01*
X132650000Y-76842857D01*
X132611904Y-76919047D01*
X132611904Y-77109523D01*
X132650000Y-77223809D01*
X132992857Y-77566666D02*
X132992857Y-77833333D01*
X133411904Y-77947619D02*
X133411904Y-77566666D01*
X132611904Y-77566666D01*
X132611904Y-77947619D01*
X133411904Y-78747619D02*
X133030952Y-78480952D01*
X133411904Y-78290476D02*
X132611904Y-78290476D01*
X132611904Y-78595238D01*
X132650000Y-78671428D01*
X132688095Y-78709523D01*
X132764285Y-78747619D01*
X132878571Y-78747619D01*
X132954761Y-78709523D01*
X132992857Y-78671428D01*
X133030952Y-78595238D01*
X133030952Y-78290476D01*
X132611904Y-78976190D02*
X133411904Y-79242857D01*
X132611904Y-79509523D01*
X132611904Y-79928571D02*
X132611904Y-80080952D01*
X132650000Y-80157142D01*
X132726190Y-80233333D01*
X132878571Y-80271428D01*
X133145238Y-80271428D01*
X133297619Y-80233333D01*
X133373809Y-80157142D01*
X133411904Y-80080952D01*
X133411904Y-79928571D01*
X133373809Y-79852380D01*
X133297619Y-79776190D01*
X133145238Y-79738095D01*
X132878571Y-79738095D01*
X132726190Y-79776190D01*
X132650000Y-79852380D01*
X132611904Y-79928571D01*
X132688095Y-80576190D02*
X132650000Y-80614285D01*
X132611904Y-80690476D01*
X132611904Y-80880952D01*
X132650000Y-80957142D01*
X132688095Y-80995238D01*
X132764285Y-81033333D01*
X132840476Y-81033333D01*
X132954761Y-80995238D01*
X133411904Y-80538095D01*
X133411904Y-81033333D01*
X134811904Y-75947619D02*
X134011904Y-75947619D01*
X134011904Y-76252380D01*
X134050000Y-76328571D01*
X134088095Y-76366666D01*
X134164285Y-76404761D01*
X134278571Y-76404761D01*
X134354761Y-76366666D01*
X134392857Y-76328571D01*
X134430952Y-76252380D01*
X134430952Y-75947619D01*
X134011904Y-76900000D02*
X134011904Y-77052380D01*
X134050000Y-77128571D01*
X134126190Y-77204761D01*
X134278571Y-77242857D01*
X134545238Y-77242857D01*
X134697619Y-77204761D01*
X134773809Y-77128571D01*
X134811904Y-77052380D01*
X134811904Y-76900000D01*
X134773809Y-76823809D01*
X134697619Y-76747619D01*
X134545238Y-76709523D01*
X134278571Y-76709523D01*
X134126190Y-76747619D01*
X134050000Y-76823809D01*
X134011904Y-76900000D01*
X134050000Y-78004761D02*
X134011904Y-77928571D01*
X134011904Y-77814285D01*
X134050000Y-77700000D01*
X134126190Y-77623809D01*
X134202380Y-77585714D01*
X134354761Y-77547619D01*
X134469047Y-77547619D01*
X134621428Y-77585714D01*
X134697619Y-77623809D01*
X134773809Y-77700000D01*
X134811904Y-77814285D01*
X134811904Y-77890476D01*
X134773809Y-78004761D01*
X134735714Y-78042857D01*
X134469047Y-78042857D01*
X134469047Y-77890476D01*
X134011904Y-78538095D02*
X134011904Y-78690476D01*
X134050000Y-78766666D01*
X134126190Y-78842857D01*
X134278571Y-78880952D01*
X134545238Y-78880952D01*
X134697619Y-78842857D01*
X134773809Y-78766666D01*
X134811904Y-78690476D01*
X134811904Y-78538095D01*
X134773809Y-78461904D01*
X134697619Y-78385714D01*
X134545238Y-78347619D01*
X134278571Y-78347619D01*
X134126190Y-78385714D01*
X134050000Y-78461904D01*
X134011904Y-78538095D01*
X134507142Y-79223809D02*
X134507142Y-79833333D01*
X134811904Y-80214285D02*
X134011904Y-80214285D01*
X134011904Y-80519047D01*
X134050000Y-80595238D01*
X134088095Y-80633333D01*
X134164285Y-80671428D01*
X134278571Y-80671428D01*
X134354761Y-80633333D01*
X134392857Y-80595238D01*
X134430952Y-80519047D01*
X134430952Y-80214285D01*
X134811904Y-81014285D02*
X134011904Y-81014285D01*
X134811904Y-81395238D02*
X134011904Y-81395238D01*
X134811904Y-81852380D01*
X134011904Y-81852380D01*
X125673809Y-76691666D02*
X125711904Y-76805952D01*
X125711904Y-76996428D01*
X125673809Y-77072619D01*
X125635714Y-77110714D01*
X125559523Y-77148809D01*
X125483333Y-77148809D01*
X125407142Y-77110714D01*
X125369047Y-77072619D01*
X125330952Y-76996428D01*
X125292857Y-76844047D01*
X125254761Y-76767857D01*
X125216666Y-76729761D01*
X125140476Y-76691666D01*
X125064285Y-76691666D01*
X124988095Y-76729761D01*
X124950000Y-76767857D01*
X124911904Y-76844047D01*
X124911904Y-77034523D01*
X124950000Y-77148809D01*
X125292857Y-77491666D02*
X125292857Y-77758333D01*
X125711904Y-77872619D02*
X125711904Y-77491666D01*
X124911904Y-77491666D01*
X124911904Y-77872619D01*
X125711904Y-78672619D02*
X125330952Y-78405952D01*
X125711904Y-78215476D02*
X124911904Y-78215476D01*
X124911904Y-78520238D01*
X124950000Y-78596428D01*
X124988095Y-78634523D01*
X125064285Y-78672619D01*
X125178571Y-78672619D01*
X125254761Y-78634523D01*
X125292857Y-78596428D01*
X125330952Y-78520238D01*
X125330952Y-78215476D01*
X124911904Y-78901190D02*
X125711904Y-79167857D01*
X124911904Y-79434523D01*
X124911904Y-79853571D02*
X124911904Y-80005952D01*
X124950000Y-80082142D01*
X125026190Y-80158333D01*
X125178571Y-80196428D01*
X125445238Y-80196428D01*
X125597619Y-80158333D01*
X125673809Y-80082142D01*
X125711904Y-80005952D01*
X125711904Y-79853571D01*
X125673809Y-79777380D01*
X125597619Y-79701190D01*
X125445238Y-79663095D01*
X125178571Y-79663095D01*
X125026190Y-79701190D01*
X124950000Y-79777380D01*
X124911904Y-79853571D01*
X125711904Y-80958333D02*
X125711904Y-80501190D01*
X125711904Y-80729761D02*
X124911904Y-80729761D01*
X125026190Y-80653571D01*
X125102380Y-80577380D01*
X125140476Y-80501190D01*
X127111904Y-75872619D02*
X126311904Y-75872619D01*
X126311904Y-76177380D01*
X126350000Y-76253571D01*
X126388095Y-76291666D01*
X126464285Y-76329761D01*
X126578571Y-76329761D01*
X126654761Y-76291666D01*
X126692857Y-76253571D01*
X126730952Y-76177380D01*
X126730952Y-75872619D01*
X126311904Y-76825000D02*
X126311904Y-76977380D01*
X126350000Y-77053571D01*
X126426190Y-77129761D01*
X126578571Y-77167857D01*
X126845238Y-77167857D01*
X126997619Y-77129761D01*
X127073809Y-77053571D01*
X127111904Y-76977380D01*
X127111904Y-76825000D01*
X127073809Y-76748809D01*
X126997619Y-76672619D01*
X126845238Y-76634523D01*
X126578571Y-76634523D01*
X126426190Y-76672619D01*
X126350000Y-76748809D01*
X126311904Y-76825000D01*
X126350000Y-77929761D02*
X126311904Y-77853571D01*
X126311904Y-77739285D01*
X126350000Y-77625000D01*
X126426190Y-77548809D01*
X126502380Y-77510714D01*
X126654761Y-77472619D01*
X126769047Y-77472619D01*
X126921428Y-77510714D01*
X126997619Y-77548809D01*
X127073809Y-77625000D01*
X127111904Y-77739285D01*
X127111904Y-77815476D01*
X127073809Y-77929761D01*
X127035714Y-77967857D01*
X126769047Y-77967857D01*
X126769047Y-77815476D01*
X126311904Y-78463095D02*
X126311904Y-78615476D01*
X126350000Y-78691666D01*
X126426190Y-78767857D01*
X126578571Y-78805952D01*
X126845238Y-78805952D01*
X126997619Y-78767857D01*
X127073809Y-78691666D01*
X127111904Y-78615476D01*
X127111904Y-78463095D01*
X127073809Y-78386904D01*
X126997619Y-78310714D01*
X126845238Y-78272619D01*
X126578571Y-78272619D01*
X126426190Y-78310714D01*
X126350000Y-78386904D01*
X126311904Y-78463095D01*
X126807142Y-79148809D02*
X126807142Y-79758333D01*
X127111904Y-80139285D02*
X126311904Y-80139285D01*
X126311904Y-80444047D01*
X126350000Y-80520238D01*
X126388095Y-80558333D01*
X126464285Y-80596428D01*
X126578571Y-80596428D01*
X126654761Y-80558333D01*
X126692857Y-80520238D01*
X126730952Y-80444047D01*
X126730952Y-80139285D01*
X127111904Y-80939285D02*
X126311904Y-80939285D01*
X127111904Y-81320238D02*
X126311904Y-81320238D01*
X127111904Y-81777380D01*
X126311904Y-81777380D01*
X129348809Y-77066666D02*
X129386904Y-77180952D01*
X129386904Y-77371428D01*
X129348809Y-77447619D01*
X129310714Y-77485714D01*
X129234523Y-77523809D01*
X129158333Y-77523809D01*
X129082142Y-77485714D01*
X129044047Y-77447619D01*
X129005952Y-77371428D01*
X128967857Y-77219047D01*
X128929761Y-77142857D01*
X128891666Y-77104761D01*
X128815476Y-77066666D01*
X128739285Y-77066666D01*
X128663095Y-77104761D01*
X128625000Y-77142857D01*
X128586904Y-77219047D01*
X128586904Y-77409523D01*
X128625000Y-77523809D01*
X128967857Y-77866666D02*
X128967857Y-78133333D01*
X129386904Y-78247619D02*
X129386904Y-77866666D01*
X128586904Y-77866666D01*
X128586904Y-78247619D01*
X129386904Y-79047619D02*
X129005952Y-78780952D01*
X129386904Y-78590476D02*
X128586904Y-78590476D01*
X128586904Y-78895238D01*
X128625000Y-78971428D01*
X128663095Y-79009523D01*
X128739285Y-79047619D01*
X128853571Y-79047619D01*
X128929761Y-79009523D01*
X128967857Y-78971428D01*
X129005952Y-78895238D01*
X129005952Y-78590476D01*
X128586904Y-79276190D02*
X129386904Y-79542857D01*
X128586904Y-79809523D01*
X128586904Y-80228571D02*
X128586904Y-80380952D01*
X128625000Y-80457142D01*
X128701190Y-80533333D01*
X128853571Y-80571428D01*
X129120238Y-80571428D01*
X129272619Y-80533333D01*
X129348809Y-80457142D01*
X129386904Y-80380952D01*
X129386904Y-80228571D01*
X129348809Y-80152380D01*
X129272619Y-80076190D01*
X129120238Y-80038095D01*
X128853571Y-80038095D01*
X128701190Y-80076190D01*
X128625000Y-80152380D01*
X128586904Y-80228571D01*
X129386904Y-81333333D02*
X129386904Y-80876190D01*
X129386904Y-81104761D02*
X128586904Y-81104761D01*
X128701190Y-81028571D01*
X128777380Y-80952380D01*
X128815476Y-80876190D01*
X130786904Y-75961904D02*
X129986904Y-75961904D01*
X129986904Y-76266666D01*
X130025000Y-76342857D01*
X130063095Y-76380952D01*
X130139285Y-76419047D01*
X130253571Y-76419047D01*
X130329761Y-76380952D01*
X130367857Y-76342857D01*
X130405952Y-76266666D01*
X130405952Y-75961904D01*
X130786904Y-77219047D02*
X130405952Y-76952380D01*
X130786904Y-76761904D02*
X129986904Y-76761904D01*
X129986904Y-77066666D01*
X130025000Y-77142857D01*
X130063095Y-77180952D01*
X130139285Y-77219047D01*
X130253571Y-77219047D01*
X130329761Y-77180952D01*
X130367857Y-77142857D01*
X130405952Y-77066666D01*
X130405952Y-76761904D01*
X130367857Y-77561904D02*
X130367857Y-77828571D01*
X130786904Y-77942857D02*
X130786904Y-77561904D01*
X129986904Y-77561904D01*
X129986904Y-77942857D01*
X130748809Y-78247619D02*
X130786904Y-78361904D01*
X130786904Y-78552380D01*
X130748809Y-78628571D01*
X130710714Y-78666666D01*
X130634523Y-78704761D01*
X130558333Y-78704761D01*
X130482142Y-78666666D01*
X130444047Y-78628571D01*
X130405952Y-78552380D01*
X130367857Y-78400000D01*
X130329761Y-78323809D01*
X130291666Y-78285714D01*
X130215476Y-78247619D01*
X130139285Y-78247619D01*
X130063095Y-78285714D01*
X130025000Y-78323809D01*
X129986904Y-78400000D01*
X129986904Y-78590476D01*
X130025000Y-78704761D01*
X130748809Y-79009523D02*
X130786904Y-79123809D01*
X130786904Y-79314285D01*
X130748809Y-79390476D01*
X130710714Y-79428571D01*
X130634523Y-79466666D01*
X130558333Y-79466666D01*
X130482142Y-79428571D01*
X130444047Y-79390476D01*
X130405952Y-79314285D01*
X130367857Y-79161904D01*
X130329761Y-79085714D01*
X130291666Y-79047619D01*
X130215476Y-79009523D01*
X130139285Y-79009523D01*
X130063095Y-79047619D01*
X130025000Y-79085714D01*
X129986904Y-79161904D01*
X129986904Y-79352380D01*
X130025000Y-79466666D01*
X130482142Y-79809523D02*
X130482142Y-80419047D01*
X130786904Y-80800000D02*
X129986904Y-80800000D01*
X129986904Y-81104761D01*
X130025000Y-81180952D01*
X130063095Y-81219047D01*
X130139285Y-81257142D01*
X130253571Y-81257142D01*
X130329761Y-81219047D01*
X130367857Y-81180952D01*
X130405952Y-81104761D01*
X130405952Y-80800000D01*
X130786904Y-81600000D02*
X129986904Y-81600000D01*
X130786904Y-81980952D02*
X129986904Y-81980952D01*
X130786904Y-82438095D01*
X129986904Y-82438095D01*
X136973809Y-77016666D02*
X137011904Y-77130952D01*
X137011904Y-77321428D01*
X136973809Y-77397619D01*
X136935714Y-77435714D01*
X136859523Y-77473809D01*
X136783333Y-77473809D01*
X136707142Y-77435714D01*
X136669047Y-77397619D01*
X136630952Y-77321428D01*
X136592857Y-77169047D01*
X136554761Y-77092857D01*
X136516666Y-77054761D01*
X136440476Y-77016666D01*
X136364285Y-77016666D01*
X136288095Y-77054761D01*
X136250000Y-77092857D01*
X136211904Y-77169047D01*
X136211904Y-77359523D01*
X136250000Y-77473809D01*
X136592857Y-77816666D02*
X136592857Y-78083333D01*
X137011904Y-78197619D02*
X137011904Y-77816666D01*
X136211904Y-77816666D01*
X136211904Y-78197619D01*
X137011904Y-78997619D02*
X136630952Y-78730952D01*
X137011904Y-78540476D02*
X136211904Y-78540476D01*
X136211904Y-78845238D01*
X136250000Y-78921428D01*
X136288095Y-78959523D01*
X136364285Y-78997619D01*
X136478571Y-78997619D01*
X136554761Y-78959523D01*
X136592857Y-78921428D01*
X136630952Y-78845238D01*
X136630952Y-78540476D01*
X136211904Y-79226190D02*
X137011904Y-79492857D01*
X136211904Y-79759523D01*
X136211904Y-80178571D02*
X136211904Y-80330952D01*
X136250000Y-80407142D01*
X136326190Y-80483333D01*
X136478571Y-80521428D01*
X136745238Y-80521428D01*
X136897619Y-80483333D01*
X136973809Y-80407142D01*
X137011904Y-80330952D01*
X137011904Y-80178571D01*
X136973809Y-80102380D01*
X136897619Y-80026190D01*
X136745238Y-79988095D01*
X136478571Y-79988095D01*
X136326190Y-80026190D01*
X136250000Y-80102380D01*
X136211904Y-80178571D01*
X136288095Y-80826190D02*
X136250000Y-80864285D01*
X136211904Y-80940476D01*
X136211904Y-81130952D01*
X136250000Y-81207142D01*
X136288095Y-81245238D01*
X136364285Y-81283333D01*
X136440476Y-81283333D01*
X136554761Y-81245238D01*
X137011904Y-80788095D01*
X137011904Y-81283333D01*
X138411904Y-75911904D02*
X137611904Y-75911904D01*
X137611904Y-76216666D01*
X137650000Y-76292857D01*
X137688095Y-76330952D01*
X137764285Y-76369047D01*
X137878571Y-76369047D01*
X137954761Y-76330952D01*
X137992857Y-76292857D01*
X138030952Y-76216666D01*
X138030952Y-75911904D01*
X138411904Y-77169047D02*
X138030952Y-76902380D01*
X138411904Y-76711904D02*
X137611904Y-76711904D01*
X137611904Y-77016666D01*
X137650000Y-77092857D01*
X137688095Y-77130952D01*
X137764285Y-77169047D01*
X137878571Y-77169047D01*
X137954761Y-77130952D01*
X137992857Y-77092857D01*
X138030952Y-77016666D01*
X138030952Y-76711904D01*
X137992857Y-77511904D02*
X137992857Y-77778571D01*
X138411904Y-77892857D02*
X138411904Y-77511904D01*
X137611904Y-77511904D01*
X137611904Y-77892857D01*
X138373809Y-78197619D02*
X138411904Y-78311904D01*
X138411904Y-78502380D01*
X138373809Y-78578571D01*
X138335714Y-78616666D01*
X138259523Y-78654761D01*
X138183333Y-78654761D01*
X138107142Y-78616666D01*
X138069047Y-78578571D01*
X138030952Y-78502380D01*
X137992857Y-78350000D01*
X137954761Y-78273809D01*
X137916666Y-78235714D01*
X137840476Y-78197619D01*
X137764285Y-78197619D01*
X137688095Y-78235714D01*
X137650000Y-78273809D01*
X137611904Y-78350000D01*
X137611904Y-78540476D01*
X137650000Y-78654761D01*
X138373809Y-78959523D02*
X138411904Y-79073809D01*
X138411904Y-79264285D01*
X138373809Y-79340476D01*
X138335714Y-79378571D01*
X138259523Y-79416666D01*
X138183333Y-79416666D01*
X138107142Y-79378571D01*
X138069047Y-79340476D01*
X138030952Y-79264285D01*
X137992857Y-79111904D01*
X137954761Y-79035714D01*
X137916666Y-78997619D01*
X137840476Y-78959523D01*
X137764285Y-78959523D01*
X137688095Y-78997619D01*
X137650000Y-79035714D01*
X137611904Y-79111904D01*
X137611904Y-79302380D01*
X137650000Y-79416666D01*
X138107142Y-79759523D02*
X138107142Y-80369047D01*
X138411904Y-80750000D02*
X137611904Y-80750000D01*
X137611904Y-81054761D01*
X137650000Y-81130952D01*
X137688095Y-81169047D01*
X137764285Y-81207142D01*
X137878571Y-81207142D01*
X137954761Y-81169047D01*
X137992857Y-81130952D01*
X138030952Y-81054761D01*
X138030952Y-80750000D01*
X138411904Y-81550000D02*
X137611904Y-81550000D01*
X138411904Y-81930952D02*
X137611904Y-81930952D01*
X138411904Y-82388095D01*
X137611904Y-82388095D01*
X144535714Y-76705952D02*
X144573809Y-76667857D01*
X144611904Y-76553571D01*
X144611904Y-76477380D01*
X144573809Y-76363095D01*
X144497619Y-76286904D01*
X144421428Y-76248809D01*
X144269047Y-76210714D01*
X144154761Y-76210714D01*
X144002380Y-76248809D01*
X143926190Y-76286904D01*
X143850000Y-76363095D01*
X143811904Y-76477380D01*
X143811904Y-76553571D01*
X143850000Y-76667857D01*
X143888095Y-76705952D01*
X144383333Y-77010714D02*
X144383333Y-77391666D01*
X144611904Y-76934523D02*
X143811904Y-77201190D01*
X144611904Y-77467857D01*
X144611904Y-78115476D02*
X144611904Y-77734523D01*
X143811904Y-77734523D01*
X144611904Y-78382142D02*
X143811904Y-78382142D01*
X144192857Y-79029761D02*
X144230952Y-79144047D01*
X144269047Y-79182142D01*
X144345238Y-79220238D01*
X144459523Y-79220238D01*
X144535714Y-79182142D01*
X144573809Y-79144047D01*
X144611904Y-79067857D01*
X144611904Y-78763095D01*
X143811904Y-78763095D01*
X143811904Y-79029761D01*
X143850000Y-79105952D01*
X143888095Y-79144047D01*
X143964285Y-79182142D01*
X144040476Y-79182142D01*
X144116666Y-79144047D01*
X144154761Y-79105952D01*
X144192857Y-79029761D01*
X144192857Y-78763095D01*
X144611904Y-80020238D02*
X144230952Y-79753571D01*
X144611904Y-79563095D02*
X143811904Y-79563095D01*
X143811904Y-79867857D01*
X143850000Y-79944047D01*
X143888095Y-79982142D01*
X143964285Y-80020238D01*
X144078571Y-80020238D01*
X144154761Y-79982142D01*
X144192857Y-79944047D01*
X144230952Y-79867857D01*
X144230952Y-79563095D01*
X144383333Y-80325000D02*
X144383333Y-80705952D01*
X144611904Y-80248809D02*
X143811904Y-80515476D01*
X144611904Y-80782142D01*
X143811904Y-80934523D02*
X143811904Y-81391666D01*
X144611904Y-81163095D02*
X143811904Y-81163095D01*
X144192857Y-81658333D02*
X144192857Y-81925000D01*
X144611904Y-82039285D02*
X144611904Y-81658333D01*
X143811904Y-81658333D01*
X143811904Y-82039285D01*
X146011904Y-75886904D02*
X145211904Y-75886904D01*
X145211904Y-76191666D01*
X145250000Y-76267857D01*
X145288095Y-76305952D01*
X145364285Y-76344047D01*
X145478571Y-76344047D01*
X145554761Y-76305952D01*
X145592857Y-76267857D01*
X145630952Y-76191666D01*
X145630952Y-75886904D01*
X146011904Y-77144047D02*
X145630952Y-76877380D01*
X146011904Y-76686904D02*
X145211904Y-76686904D01*
X145211904Y-76991666D01*
X145250000Y-77067857D01*
X145288095Y-77105952D01*
X145364285Y-77144047D01*
X145478571Y-77144047D01*
X145554761Y-77105952D01*
X145592857Y-77067857D01*
X145630952Y-76991666D01*
X145630952Y-76686904D01*
X145592857Y-77486904D02*
X145592857Y-77753571D01*
X146011904Y-77867857D02*
X146011904Y-77486904D01*
X145211904Y-77486904D01*
X145211904Y-77867857D01*
X145973809Y-78172619D02*
X146011904Y-78286904D01*
X146011904Y-78477380D01*
X145973809Y-78553571D01*
X145935714Y-78591666D01*
X145859523Y-78629761D01*
X145783333Y-78629761D01*
X145707142Y-78591666D01*
X145669047Y-78553571D01*
X145630952Y-78477380D01*
X145592857Y-78325000D01*
X145554761Y-78248809D01*
X145516666Y-78210714D01*
X145440476Y-78172619D01*
X145364285Y-78172619D01*
X145288095Y-78210714D01*
X145250000Y-78248809D01*
X145211904Y-78325000D01*
X145211904Y-78515476D01*
X145250000Y-78629761D01*
X145973809Y-78934523D02*
X146011904Y-79048809D01*
X146011904Y-79239285D01*
X145973809Y-79315476D01*
X145935714Y-79353571D01*
X145859523Y-79391666D01*
X145783333Y-79391666D01*
X145707142Y-79353571D01*
X145669047Y-79315476D01*
X145630952Y-79239285D01*
X145592857Y-79086904D01*
X145554761Y-79010714D01*
X145516666Y-78972619D01*
X145440476Y-78934523D01*
X145364285Y-78934523D01*
X145288095Y-78972619D01*
X145250000Y-79010714D01*
X145211904Y-79086904D01*
X145211904Y-79277380D01*
X145250000Y-79391666D01*
X145707142Y-79734523D02*
X145707142Y-80344047D01*
X146011904Y-80725000D02*
X145211904Y-80725000D01*
X145211904Y-81029761D01*
X145250000Y-81105952D01*
X145288095Y-81144047D01*
X145364285Y-81182142D01*
X145478571Y-81182142D01*
X145554761Y-81144047D01*
X145592857Y-81105952D01*
X145630952Y-81029761D01*
X145630952Y-80725000D01*
X146011904Y-81525000D02*
X145211904Y-81525000D01*
X146011904Y-81905952D02*
X145211904Y-81905952D01*
X146011904Y-82363095D01*
X145211904Y-82363095D01*
X140810714Y-76305952D02*
X140848809Y-76267857D01*
X140886904Y-76153571D01*
X140886904Y-76077380D01*
X140848809Y-75963095D01*
X140772619Y-75886904D01*
X140696428Y-75848809D01*
X140544047Y-75810714D01*
X140429761Y-75810714D01*
X140277380Y-75848809D01*
X140201190Y-75886904D01*
X140125000Y-75963095D01*
X140086904Y-76077380D01*
X140086904Y-76153571D01*
X140125000Y-76267857D01*
X140163095Y-76305952D01*
X140658333Y-76610714D02*
X140658333Y-76991666D01*
X140886904Y-76534523D02*
X140086904Y-76801190D01*
X140886904Y-77067857D01*
X140886904Y-77715476D02*
X140886904Y-77334523D01*
X140086904Y-77334523D01*
X140886904Y-77982142D02*
X140086904Y-77982142D01*
X140467857Y-78629761D02*
X140505952Y-78744047D01*
X140544047Y-78782142D01*
X140620238Y-78820238D01*
X140734523Y-78820238D01*
X140810714Y-78782142D01*
X140848809Y-78744047D01*
X140886904Y-78667857D01*
X140886904Y-78363095D01*
X140086904Y-78363095D01*
X140086904Y-78629761D01*
X140125000Y-78705952D01*
X140163095Y-78744047D01*
X140239285Y-78782142D01*
X140315476Y-78782142D01*
X140391666Y-78744047D01*
X140429761Y-78705952D01*
X140467857Y-78629761D01*
X140467857Y-78363095D01*
X140886904Y-79620238D02*
X140505952Y-79353571D01*
X140886904Y-79163095D02*
X140086904Y-79163095D01*
X140086904Y-79467857D01*
X140125000Y-79544047D01*
X140163095Y-79582142D01*
X140239285Y-79620238D01*
X140353571Y-79620238D01*
X140429761Y-79582142D01*
X140467857Y-79544047D01*
X140505952Y-79467857D01*
X140505952Y-79163095D01*
X140658333Y-79925000D02*
X140658333Y-80305952D01*
X140886904Y-79848809D02*
X140086904Y-80115476D01*
X140886904Y-80382142D01*
X140086904Y-80534523D02*
X140086904Y-80991666D01*
X140886904Y-80763095D02*
X140086904Y-80763095D01*
X140467857Y-81258333D02*
X140467857Y-81525000D01*
X140886904Y-81639285D02*
X140886904Y-81258333D01*
X140086904Y-81258333D01*
X140086904Y-81639285D01*
X142286904Y-75772619D02*
X141486904Y-75772619D01*
X141486904Y-76077380D01*
X141525000Y-76153571D01*
X141563095Y-76191666D01*
X141639285Y-76229761D01*
X141753571Y-76229761D01*
X141829761Y-76191666D01*
X141867857Y-76153571D01*
X141905952Y-76077380D01*
X141905952Y-75772619D01*
X141486904Y-76725000D02*
X141486904Y-76877380D01*
X141525000Y-76953571D01*
X141601190Y-77029761D01*
X141753571Y-77067857D01*
X142020238Y-77067857D01*
X142172619Y-77029761D01*
X142248809Y-76953571D01*
X142286904Y-76877380D01*
X142286904Y-76725000D01*
X142248809Y-76648809D01*
X142172619Y-76572619D01*
X142020238Y-76534523D01*
X141753571Y-76534523D01*
X141601190Y-76572619D01*
X141525000Y-76648809D01*
X141486904Y-76725000D01*
X141525000Y-77829761D02*
X141486904Y-77753571D01*
X141486904Y-77639285D01*
X141525000Y-77525000D01*
X141601190Y-77448809D01*
X141677380Y-77410714D01*
X141829761Y-77372619D01*
X141944047Y-77372619D01*
X142096428Y-77410714D01*
X142172619Y-77448809D01*
X142248809Y-77525000D01*
X142286904Y-77639285D01*
X142286904Y-77715476D01*
X142248809Y-77829761D01*
X142210714Y-77867857D01*
X141944047Y-77867857D01*
X141944047Y-77715476D01*
X141486904Y-78363095D02*
X141486904Y-78515476D01*
X141525000Y-78591666D01*
X141601190Y-78667857D01*
X141753571Y-78705952D01*
X142020238Y-78705952D01*
X142172619Y-78667857D01*
X142248809Y-78591666D01*
X142286904Y-78515476D01*
X142286904Y-78363095D01*
X142248809Y-78286904D01*
X142172619Y-78210714D01*
X142020238Y-78172619D01*
X141753571Y-78172619D01*
X141601190Y-78210714D01*
X141525000Y-78286904D01*
X141486904Y-78363095D01*
X141982142Y-79048809D02*
X141982142Y-79658333D01*
X142286904Y-80039285D02*
X141486904Y-80039285D01*
X141486904Y-80344047D01*
X141525000Y-80420238D01*
X141563095Y-80458333D01*
X141639285Y-80496428D01*
X141753571Y-80496428D01*
X141829761Y-80458333D01*
X141867857Y-80420238D01*
X141905952Y-80344047D01*
X141905952Y-80039285D01*
X142286904Y-80839285D02*
X141486904Y-80839285D01*
X142286904Y-81220238D02*
X141486904Y-81220238D01*
X142286904Y-81677380D01*
X141486904Y-81677380D01*
X175400000Y-76365476D02*
X175361904Y-76289285D01*
X175361904Y-76175000D01*
X175400000Y-76060714D01*
X175476190Y-75984523D01*
X175552380Y-75946428D01*
X175704761Y-75908333D01*
X175819047Y-75908333D01*
X175971428Y-75946428D01*
X176047619Y-75984523D01*
X176123809Y-76060714D01*
X176161904Y-76175000D01*
X176161904Y-76251190D01*
X176123809Y-76365476D01*
X176085714Y-76403571D01*
X175819047Y-76403571D01*
X175819047Y-76251190D01*
X176161904Y-76746428D02*
X175361904Y-76746428D01*
X176161904Y-77203571D01*
X175361904Y-77203571D01*
X176161904Y-77584523D02*
X175361904Y-77584523D01*
X175361904Y-77775000D01*
X175400000Y-77889285D01*
X175476190Y-77965476D01*
X175552380Y-78003571D01*
X175704761Y-78041666D01*
X175819047Y-78041666D01*
X175971428Y-78003571D01*
X176047619Y-77965476D01*
X176123809Y-77889285D01*
X176161904Y-77775000D01*
X176161904Y-77584523D01*
X168486904Y-75960714D02*
X167686904Y-75960714D01*
X168486904Y-76417857D01*
X167686904Y-76417857D01*
X168486904Y-77255952D02*
X168105952Y-76989285D01*
X168486904Y-76798809D02*
X167686904Y-76798809D01*
X167686904Y-77103571D01*
X167725000Y-77179761D01*
X167763095Y-77217857D01*
X167839285Y-77255952D01*
X167953571Y-77255952D01*
X168029761Y-77217857D01*
X168067857Y-77179761D01*
X168105952Y-77103571D01*
X168105952Y-76798809D01*
X168448809Y-77560714D02*
X168486904Y-77675000D01*
X168486904Y-77865476D01*
X168448809Y-77941666D01*
X168410714Y-77979761D01*
X168334523Y-78017857D01*
X168258333Y-78017857D01*
X168182142Y-77979761D01*
X168144047Y-77941666D01*
X168105952Y-77865476D01*
X168067857Y-77713095D01*
X168029761Y-77636904D01*
X167991666Y-77598809D01*
X167915476Y-77560714D01*
X167839285Y-77560714D01*
X167763095Y-77598809D01*
X167725000Y-77636904D01*
X167686904Y-77713095D01*
X167686904Y-77903571D01*
X167725000Y-78017857D01*
X167686904Y-78246428D02*
X167686904Y-78703571D01*
X168486904Y-78475000D02*
X167686904Y-78475000D01*
X164673809Y-76015476D02*
X164711904Y-76129761D01*
X164711904Y-76320238D01*
X164673809Y-76396428D01*
X164635714Y-76434523D01*
X164559523Y-76472619D01*
X164483333Y-76472619D01*
X164407142Y-76434523D01*
X164369047Y-76396428D01*
X164330952Y-76320238D01*
X164292857Y-76167857D01*
X164254761Y-76091666D01*
X164216666Y-76053571D01*
X164140476Y-76015476D01*
X164064285Y-76015476D01*
X163988095Y-76053571D01*
X163950000Y-76091666D01*
X163911904Y-76167857D01*
X163911904Y-76358333D01*
X163950000Y-76472619D01*
X163911904Y-76739285D02*
X164711904Y-76929761D01*
X164140476Y-77082142D01*
X164711904Y-77234523D01*
X163911904Y-77425000D01*
X164635714Y-78186904D02*
X164673809Y-78148809D01*
X164711904Y-78034523D01*
X164711904Y-77958333D01*
X164673809Y-77844047D01*
X164597619Y-77767857D01*
X164521428Y-77729761D01*
X164369047Y-77691666D01*
X164254761Y-77691666D01*
X164102380Y-77729761D01*
X164026190Y-77767857D01*
X163950000Y-77844047D01*
X163911904Y-77958333D01*
X163911904Y-78034523D01*
X163950000Y-78148809D01*
X163988095Y-78186904D01*
X164711904Y-78910714D02*
X164711904Y-78529761D01*
X163911904Y-78529761D01*
X164711904Y-79177380D02*
X163911904Y-79177380D01*
X164711904Y-79634523D02*
X164254761Y-79291666D01*
X163911904Y-79634523D02*
X164369047Y-79177380D01*
X160186904Y-75884523D02*
X160186904Y-76379761D01*
X160491666Y-76113095D01*
X160491666Y-76227380D01*
X160529761Y-76303571D01*
X160567857Y-76341666D01*
X160644047Y-76379761D01*
X160834523Y-76379761D01*
X160910714Y-76341666D01*
X160948809Y-76303571D01*
X160986904Y-76227380D01*
X160986904Y-75998809D01*
X160948809Y-75922619D01*
X160910714Y-75884523D01*
X160186904Y-76608333D02*
X160986904Y-76875000D01*
X160186904Y-77141666D01*
X160186904Y-77332142D02*
X160186904Y-77827380D01*
X160491666Y-77560714D01*
X160491666Y-77675000D01*
X160529761Y-77751190D01*
X160567857Y-77789285D01*
X160644047Y-77827380D01*
X160834523Y-77827380D01*
X160910714Y-77789285D01*
X160948809Y-77751190D01*
X160986904Y-77675000D01*
X160986904Y-77446428D01*
X160948809Y-77370238D01*
X160910714Y-77332142D01*
X157123809Y-75929761D02*
X157161904Y-76044047D01*
X157161904Y-76234523D01*
X157123809Y-76310714D01*
X157085714Y-76348809D01*
X157009523Y-76386904D01*
X156933333Y-76386904D01*
X156857142Y-76348809D01*
X156819047Y-76310714D01*
X156780952Y-76234523D01*
X156742857Y-76082142D01*
X156704761Y-76005952D01*
X156666666Y-75967857D01*
X156590476Y-75929761D01*
X156514285Y-75929761D01*
X156438095Y-75967857D01*
X156400000Y-76005952D01*
X156361904Y-76082142D01*
X156361904Y-76272619D01*
X156400000Y-76386904D01*
X156361904Y-76653571D02*
X157161904Y-76844047D01*
X156590476Y-76996428D01*
X157161904Y-77148809D01*
X156361904Y-77339285D01*
X157161904Y-77644047D02*
X156361904Y-77644047D01*
X156361904Y-77834523D01*
X156400000Y-77948809D01*
X156476190Y-78025000D01*
X156552380Y-78063095D01*
X156704761Y-78101190D01*
X156819047Y-78101190D01*
X156971428Y-78063095D01*
X157047619Y-78025000D01*
X157123809Y-77948809D01*
X157161904Y-77834523D01*
X157161904Y-77644047D01*
X157161904Y-78444047D02*
X156361904Y-78444047D01*
X156361904Y-78977380D02*
X156361904Y-79129761D01*
X156400000Y-79205952D01*
X156476190Y-79282142D01*
X156628571Y-79320238D01*
X156895238Y-79320238D01*
X157047619Y-79282142D01*
X157123809Y-79205952D01*
X157161904Y-79129761D01*
X157161904Y-78977380D01*
X157123809Y-78901190D01*
X157047619Y-78825000D01*
X156895238Y-78786904D01*
X156628571Y-78786904D01*
X156476190Y-78825000D01*
X156400000Y-78901190D01*
X156361904Y-78977380D01*
X153380952Y-119452380D02*
X153714285Y-118976190D01*
X153952380Y-119452380D02*
X153952380Y-118452380D01*
X153571428Y-118452380D01*
X153476190Y-118500000D01*
X153428571Y-118547619D01*
X153380952Y-118642857D01*
X153380952Y-118785714D01*
X153428571Y-118880952D01*
X153476190Y-118928571D01*
X153571428Y-118976190D01*
X153952380Y-118976190D01*
X153000000Y-119166666D02*
X152523809Y-119166666D01*
X153095238Y-119452380D02*
X152761904Y-118452380D01*
X152428571Y-119452380D01*
X152095238Y-119452380D02*
X152095238Y-118452380D01*
X151857142Y-118452380D01*
X151714285Y-118500000D01*
X151619047Y-118595238D01*
X151571428Y-118690476D01*
X151523809Y-118880952D01*
X151523809Y-119023809D01*
X151571428Y-119214285D01*
X151619047Y-119309523D01*
X151714285Y-119404761D01*
X151857142Y-119452380D01*
X152095238Y-119452380D01*
X151095238Y-119452380D02*
X151095238Y-118452380D01*
X150428571Y-118452380D02*
X150238095Y-118452380D01*
X150142857Y-118500000D01*
X150047619Y-118595238D01*
X150000000Y-118785714D01*
X150000000Y-119119047D01*
X150047619Y-119309523D01*
X150142857Y-119404761D01*
X150238095Y-119452380D01*
X150428571Y-119452380D01*
X150523809Y-119404761D01*
X150619047Y-119309523D01*
X150666666Y-119119047D01*
X150666666Y-118785714D01*
X150619047Y-118595238D01*
X150523809Y-118500000D01*
X150428571Y-118452380D01*
X197021428Y-118664285D02*
X197421428Y-118664285D01*
X197421428Y-119292857D02*
X197421428Y-118092857D01*
X196850000Y-118092857D01*
X196392857Y-119292857D02*
X196392857Y-118092857D01*
X195935714Y-118092857D02*
X195135714Y-119292857D01*
X195135714Y-118092857D02*
X195935714Y-119292857D01*
X194850000Y-118092857D02*
X194164285Y-118092857D01*
X194507142Y-119292857D02*
X194507142Y-118092857D01*
X193764285Y-118092857D02*
X193764285Y-119064285D01*
X193707142Y-119178571D01*
X193650000Y-119235714D01*
X193535714Y-119292857D01*
X193307142Y-119292857D01*
X193192857Y-119235714D01*
X193135714Y-119178571D01*
X193078571Y-119064285D01*
X193078571Y-118092857D01*
X191821428Y-119292857D02*
X192221428Y-118721428D01*
X192507142Y-119292857D02*
X192507142Y-118092857D01*
X192050000Y-118092857D01*
X191935714Y-118150000D01*
X191878571Y-118207142D01*
X191821428Y-118321428D01*
X191821428Y-118492857D01*
X191878571Y-118607142D01*
X191935714Y-118664285D01*
X192050000Y-118721428D01*
X192507142Y-118721428D01*
X191307142Y-118664285D02*
X190907142Y-118664285D01*
X190735714Y-119292857D02*
X191307142Y-119292857D01*
X191307142Y-118092857D01*
X190735714Y-118092857D01*
X189307142Y-118092857D02*
X189307142Y-119064285D01*
X189250000Y-119178571D01*
X189192857Y-119235714D01*
X189078571Y-119292857D01*
X188850000Y-119292857D01*
X188735714Y-119235714D01*
X188678571Y-119178571D01*
X188621428Y-119064285D01*
X188621428Y-118092857D01*
X188107142Y-119235714D02*
X187935714Y-119292857D01*
X187650000Y-119292857D01*
X187535714Y-119235714D01*
X187478571Y-119178571D01*
X187421428Y-119064285D01*
X187421428Y-118950000D01*
X187478571Y-118835714D01*
X187535714Y-118778571D01*
X187650000Y-118721428D01*
X187878571Y-118664285D01*
X187992857Y-118607142D01*
X188050000Y-118550000D01*
X188107142Y-118435714D01*
X188107142Y-118321428D01*
X188050000Y-118207142D01*
X187992857Y-118150000D01*
X187878571Y-118092857D01*
X187592857Y-118092857D01*
X187421428Y-118150000D01*
X186507142Y-118664285D02*
X186335714Y-118721428D01*
X186278571Y-118778571D01*
X186221428Y-118892857D01*
X186221428Y-119064285D01*
X186278571Y-119178571D01*
X186335714Y-119235714D01*
X186450000Y-119292857D01*
X186907142Y-119292857D01*
X186907142Y-118092857D01*
X186507142Y-118092857D01*
X186392857Y-118150000D01*
X186335714Y-118207142D01*
X186278571Y-118321428D01*
X186278571Y-118435714D01*
X186335714Y-118550000D01*
X186392857Y-118607142D01*
X186507142Y-118664285D01*
X186907142Y-118664285D01*
X197067857Y-83639285D02*
X197467857Y-83639285D01*
X197467857Y-84267857D02*
X197467857Y-83067857D01*
X196896428Y-83067857D01*
X196439285Y-84267857D02*
X196439285Y-83067857D01*
X195982142Y-83067857D02*
X195182142Y-84267857D01*
X195182142Y-83067857D02*
X195982142Y-84267857D01*
X194896428Y-83067857D02*
X194210714Y-83067857D01*
X194553571Y-84267857D02*
X194553571Y-83067857D01*
X193810714Y-83067857D02*
X193810714Y-84039285D01*
X193753571Y-84153571D01*
X193696428Y-84210714D01*
X193582142Y-84267857D01*
X193353571Y-84267857D01*
X193239285Y-84210714D01*
X193182142Y-84153571D01*
X193125000Y-84039285D01*
X193125000Y-83067857D01*
X191867857Y-84267857D02*
X192267857Y-83696428D01*
X192553571Y-84267857D02*
X192553571Y-83067857D01*
X192096428Y-83067857D01*
X191982142Y-83125000D01*
X191925000Y-83182142D01*
X191867857Y-83296428D01*
X191867857Y-83467857D01*
X191925000Y-83582142D01*
X191982142Y-83639285D01*
X192096428Y-83696428D01*
X192553571Y-83696428D01*
X191353571Y-83639285D02*
X190953571Y-83639285D01*
X190782142Y-84267857D02*
X191353571Y-84267857D01*
X191353571Y-83067857D01*
X190782142Y-83067857D01*
X189353571Y-84267857D02*
X189353571Y-83067857D01*
X188896428Y-83067857D01*
X188782142Y-83125000D01*
X188725000Y-83182142D01*
X188667857Y-83296428D01*
X188667857Y-83467857D01*
X188725000Y-83582142D01*
X188782142Y-83639285D01*
X188896428Y-83696428D01*
X189353571Y-83696428D01*
X188210714Y-84210714D02*
X188039285Y-84267857D01*
X187753571Y-84267857D01*
X187639285Y-84210714D01*
X187582142Y-84153571D01*
X187525000Y-84039285D01*
X187525000Y-83925000D01*
X187582142Y-83810714D01*
X187639285Y-83753571D01*
X187753571Y-83696428D01*
X187982142Y-83639285D01*
X188096428Y-83582142D01*
X188153571Y-83525000D01*
X188210714Y-83410714D01*
X188210714Y-83296428D01*
X188153571Y-83182142D01*
X188096428Y-83125000D01*
X187982142Y-83067857D01*
X187696428Y-83067857D01*
X187525000Y-83125000D01*
X122289285Y-53753571D02*
X122289285Y-53353571D01*
X122917857Y-53353571D02*
X121717857Y-53353571D01*
X121717857Y-53925000D01*
X122917857Y-54382142D02*
X121717857Y-54382142D01*
X121717857Y-54839285D02*
X122917857Y-55639285D01*
X121717857Y-55639285D02*
X122917857Y-54839285D01*
X121717857Y-55925000D02*
X121717857Y-56610714D01*
X122917857Y-56267857D02*
X121717857Y-56267857D01*
X121717857Y-57010714D02*
X122689285Y-57010714D01*
X122803571Y-57067857D01*
X122860714Y-57125000D01*
X122917857Y-57239285D01*
X122917857Y-57467857D01*
X122860714Y-57582142D01*
X122803571Y-57639285D01*
X122689285Y-57696428D01*
X121717857Y-57696428D01*
X122917857Y-58953571D02*
X122346428Y-58553571D01*
X122917857Y-58267857D02*
X121717857Y-58267857D01*
X121717857Y-58725000D01*
X121775000Y-58839285D01*
X121832142Y-58896428D01*
X121946428Y-58953571D01*
X122117857Y-58953571D01*
X122232142Y-58896428D01*
X122289285Y-58839285D01*
X122346428Y-58725000D01*
X122346428Y-58267857D01*
X122289285Y-59467857D02*
X122289285Y-59867857D01*
X122917857Y-60039285D02*
X122917857Y-59467857D01*
X121717857Y-59467857D01*
X121717857Y-60039285D01*
X123717857Y-52210714D02*
X123717857Y-52896428D01*
X124917857Y-52553571D02*
X123717857Y-52553571D01*
X123717857Y-53525000D02*
X123717857Y-53753571D01*
X123775000Y-53867857D01*
X123889285Y-53982142D01*
X124117857Y-54039285D01*
X124517857Y-54039285D01*
X124746428Y-53982142D01*
X124860714Y-53867857D01*
X124917857Y-53753571D01*
X124917857Y-53525000D01*
X124860714Y-53410714D01*
X124746428Y-53296428D01*
X124517857Y-53239285D01*
X124117857Y-53239285D01*
X123889285Y-53296428D01*
X123775000Y-53410714D01*
X123717857Y-53525000D01*
X124917857Y-54553571D02*
X123717857Y-54553571D01*
X123717857Y-55010714D01*
X123775000Y-55125000D01*
X123832142Y-55182142D01*
X123946428Y-55239285D01*
X124117857Y-55239285D01*
X124232142Y-55182142D01*
X124289285Y-55125000D01*
X124346428Y-55010714D01*
X124346428Y-54553571D01*
X124460714Y-55753571D02*
X124460714Y-56667857D01*
X124917857Y-57239285D02*
X123717857Y-57239285D01*
X123717857Y-57696428D01*
X123775000Y-57810714D01*
X123832142Y-57867857D01*
X123946428Y-57925000D01*
X124117857Y-57925000D01*
X124232142Y-57867857D01*
X124289285Y-57810714D01*
X124346428Y-57696428D01*
X124346428Y-57239285D01*
X124917857Y-59010714D02*
X124917857Y-58439285D01*
X123717857Y-58439285D01*
X124575000Y-59353571D02*
X124575000Y-59925000D01*
X124917857Y-59239285D02*
X123717857Y-59639285D01*
X124917857Y-60039285D01*
X123717857Y-60267857D02*
X123717857Y-60953571D01*
X124917857Y-60610714D02*
X123717857Y-60610714D01*
X124289285Y-61353571D02*
X124289285Y-61753571D01*
X124917857Y-61925000D02*
X124917857Y-61353571D01*
X123717857Y-61353571D01*
X123717857Y-61925000D01*
X157235714Y-53607142D02*
X157292857Y-53778571D01*
X157292857Y-54064285D01*
X157235714Y-54178571D01*
X157178571Y-54235714D01*
X157064285Y-54292857D01*
X156950000Y-54292857D01*
X156835714Y-54235714D01*
X156778571Y-54178571D01*
X156721428Y-54064285D01*
X156664285Y-53835714D01*
X156607142Y-53721428D01*
X156550000Y-53664285D01*
X156435714Y-53607142D01*
X156321428Y-53607142D01*
X156207142Y-53664285D01*
X156150000Y-53721428D01*
X156092857Y-53835714D01*
X156092857Y-54121428D01*
X156150000Y-54292857D01*
X156092857Y-54635714D02*
X156092857Y-55321428D01*
X157292857Y-54978571D02*
X156092857Y-54978571D01*
X156835714Y-55721428D02*
X156835714Y-56635714D01*
X157292857Y-57778571D02*
X157292857Y-57207142D01*
X156092857Y-57207142D01*
X157292857Y-58178571D02*
X156092857Y-58178571D01*
X157292857Y-58750000D02*
X156092857Y-58750000D01*
X157292857Y-59435714D01*
X156092857Y-59435714D01*
X157292857Y-60007142D02*
X156092857Y-60007142D01*
X157292857Y-60692857D02*
X156607142Y-60178571D01*
X156092857Y-60692857D02*
X156778571Y-60007142D01*
X185264285Y-81175000D02*
X185378571Y-81117857D01*
X185550000Y-81117857D01*
X185721428Y-81175000D01*
X185835714Y-81289285D01*
X185892857Y-81403571D01*
X185950000Y-81632142D01*
X185950000Y-81803571D01*
X185892857Y-82032142D01*
X185835714Y-82146428D01*
X185721428Y-82260714D01*
X185550000Y-82317857D01*
X185435714Y-82317857D01*
X185264285Y-82260714D01*
X185207142Y-82203571D01*
X185207142Y-81803571D01*
X185435714Y-81803571D01*
X184692857Y-82317857D02*
X184692857Y-81117857D01*
X184007142Y-82317857D01*
X184007142Y-81117857D01*
X183435714Y-82317857D02*
X183435714Y-81117857D01*
X183150000Y-81117857D01*
X182978571Y-81175000D01*
X182864285Y-81289285D01*
X182807142Y-81403571D01*
X182750000Y-81632142D01*
X182750000Y-81803571D01*
X182807142Y-82032142D01*
X182864285Y-82146428D01*
X182978571Y-82260714D01*
X183150000Y-82317857D01*
X183435714Y-82317857D01*
X186042857Y-85985714D02*
X185128571Y-85985714D01*
X185585714Y-86442857D02*
X185585714Y-85528571D01*
X183985714Y-85242857D02*
X184557142Y-85242857D01*
X184614285Y-85814285D01*
X184557142Y-85757142D01*
X184442857Y-85700000D01*
X184157142Y-85700000D01*
X184042857Y-85757142D01*
X183985714Y-85814285D01*
X183928571Y-85928571D01*
X183928571Y-86214285D01*
X183985714Y-86328571D01*
X184042857Y-86385714D01*
X184157142Y-86442857D01*
X184442857Y-86442857D01*
X184557142Y-86385714D01*
X184614285Y-86328571D01*
X183585714Y-85242857D02*
X183185714Y-86442857D01*
X182785714Y-85242857D01*
X162500000Y-112950000D02*
X137500000Y-112950000D01*
X162500000Y-124975000D02*
X137500000Y-124975000D01*
X137500000Y-112975000D02*
X137500000Y-124975000D01*
X162500000Y-112975000D02*
X162500000Y-124975000D01*
X128723809Y-148728571D02*
X128390476Y-148728571D01*
X128247619Y-149252380D02*
X128723809Y-149252380D01*
X128723809Y-148252380D01*
X128247619Y-148252380D01*
X127819047Y-149252380D02*
X127819047Y-148252380D01*
X127247619Y-149252380D01*
X127247619Y-148252380D01*
X126819047Y-148966666D02*
X126342857Y-148966666D01*
X126914285Y-149252380D02*
X126580952Y-148252380D01*
X126247619Y-149252380D01*
X125580952Y-148728571D02*
X125438095Y-148776190D01*
X125390476Y-148823809D01*
X125342857Y-148919047D01*
X125342857Y-149061904D01*
X125390476Y-149157142D01*
X125438095Y-149204761D01*
X125533333Y-149252380D01*
X125914285Y-149252380D01*
X125914285Y-148252380D01*
X125580952Y-148252380D01*
X125485714Y-148300000D01*
X125438095Y-148347619D01*
X125390476Y-148442857D01*
X125390476Y-148538095D01*
X125438095Y-148633333D01*
X125485714Y-148680952D01*
X125580952Y-148728571D01*
X125914285Y-148728571D01*
X124438095Y-149252380D02*
X124914285Y-149252380D01*
X124914285Y-148252380D01*
X124104761Y-148728571D02*
X123771428Y-148728571D01*
X123628571Y-149252380D02*
X124104761Y-149252380D01*
X124104761Y-148252380D01*
X123628571Y-148252380D01*
X177073809Y-149207142D02*
X177121428Y-149254761D01*
X177264285Y-149302380D01*
X177359523Y-149302380D01*
X177502380Y-149254761D01*
X177597619Y-149159523D01*
X177645238Y-149064285D01*
X177692857Y-148873809D01*
X177692857Y-148730952D01*
X177645238Y-148540476D01*
X177597619Y-148445238D01*
X177502380Y-148350000D01*
X177359523Y-148302380D01*
X177264285Y-148302380D01*
X177121428Y-148350000D01*
X177073809Y-148397619D01*
X176692857Y-149016666D02*
X176216666Y-149016666D01*
X176788095Y-149302380D02*
X176454761Y-148302380D01*
X176121428Y-149302380D01*
X175311904Y-149302380D02*
X175788095Y-149302380D01*
X175788095Y-148302380D01*
X174978571Y-149302380D02*
X174978571Y-148302380D01*
X174169047Y-148778571D02*
X174026190Y-148826190D01*
X173978571Y-148873809D01*
X173930952Y-148969047D01*
X173930952Y-149111904D01*
X173978571Y-149207142D01*
X174026190Y-149254761D01*
X174121428Y-149302380D01*
X174502380Y-149302380D01*
X174502380Y-148302380D01*
X174169047Y-148302380D01*
X174073809Y-148350000D01*
X174026190Y-148397619D01*
X173978571Y-148492857D01*
X173978571Y-148588095D01*
X174026190Y-148683333D01*
X174073809Y-148730952D01*
X174169047Y-148778571D01*
X174502380Y-148778571D01*
X172930952Y-149302380D02*
X173264285Y-148826190D01*
X173502380Y-149302380D02*
X173502380Y-148302380D01*
X173121428Y-148302380D01*
X173026190Y-148350000D01*
X172978571Y-148397619D01*
X172930952Y-148492857D01*
X172930952Y-148635714D01*
X172978571Y-148730952D01*
X173026190Y-148778571D01*
X173121428Y-148826190D01*
X173502380Y-148826190D01*
X172550000Y-149016666D02*
X172073809Y-149016666D01*
X172645238Y-149302380D02*
X172311904Y-148302380D01*
X171978571Y-149302380D01*
X171788095Y-148302380D02*
X171216666Y-148302380D01*
X171502380Y-149302380D02*
X171502380Y-148302380D01*
X170883333Y-148778571D02*
X170550000Y-148778571D01*
X170407142Y-149302380D02*
X170883333Y-149302380D01*
X170883333Y-148302380D01*
X170407142Y-148302380D01*
X161488095Y-149302380D02*
X161488095Y-148302380D01*
X161154761Y-149016666D01*
X160821428Y-148302380D01*
X160821428Y-149302380D01*
X160154761Y-148302380D02*
X159964285Y-148302380D01*
X159869047Y-148350000D01*
X159773809Y-148445238D01*
X159726190Y-148635714D01*
X159726190Y-148969047D01*
X159773809Y-149159523D01*
X159869047Y-149254761D01*
X159964285Y-149302380D01*
X160154761Y-149302380D01*
X160250000Y-149254761D01*
X160345238Y-149159523D01*
X160392857Y-148969047D01*
X160392857Y-148635714D01*
X160345238Y-148445238D01*
X160250000Y-148350000D01*
X160154761Y-148302380D01*
X159440476Y-148302380D02*
X158869047Y-148302380D01*
X159154761Y-149302380D02*
X159154761Y-148302380D01*
X158345238Y-148302380D02*
X158154761Y-148302380D01*
X158059523Y-148350000D01*
X157964285Y-148445238D01*
X157916666Y-148635714D01*
X157916666Y-148969047D01*
X157964285Y-149159523D01*
X158059523Y-149254761D01*
X158154761Y-149302380D01*
X158345238Y-149302380D01*
X158440476Y-149254761D01*
X158535714Y-149159523D01*
X158583333Y-148969047D01*
X158583333Y-148635714D01*
X158535714Y-148445238D01*
X158440476Y-148350000D01*
X158345238Y-148302380D01*
X156916666Y-149302380D02*
X157250000Y-148826190D01*
X157488095Y-149302380D02*
X157488095Y-148302380D01*
X157107142Y-148302380D01*
X157011904Y-148350000D01*
X156964285Y-148397619D01*
X156916666Y-148492857D01*
X156916666Y-148635714D01*
X156964285Y-148730952D01*
X157011904Y-148778571D01*
X157107142Y-148826190D01*
X157488095Y-148826190D01*
X156535714Y-148397619D02*
X156488095Y-148350000D01*
X156392857Y-148302380D01*
X156154761Y-148302380D01*
X156059523Y-148350000D01*
X156011904Y-148397619D01*
X155964285Y-148492857D01*
X155964285Y-148588095D01*
X156011904Y-148730952D01*
X156583333Y-149302380D01*
X155964285Y-149302380D01*
X144088095Y-149302380D02*
X144088095Y-148302380D01*
X143754761Y-149016666D01*
X143421428Y-148302380D01*
X143421428Y-149302380D01*
X142754761Y-148302380D02*
X142564285Y-148302380D01*
X142469047Y-148350000D01*
X142373809Y-148445238D01*
X142326190Y-148635714D01*
X142326190Y-148969047D01*
X142373809Y-149159523D01*
X142469047Y-149254761D01*
X142564285Y-149302380D01*
X142754761Y-149302380D01*
X142850000Y-149254761D01*
X142945238Y-149159523D01*
X142992857Y-148969047D01*
X142992857Y-148635714D01*
X142945238Y-148445238D01*
X142850000Y-148350000D01*
X142754761Y-148302380D01*
X142040476Y-148302380D02*
X141469047Y-148302380D01*
X141754761Y-149302380D02*
X141754761Y-148302380D01*
X140945238Y-148302380D02*
X140754761Y-148302380D01*
X140659523Y-148350000D01*
X140564285Y-148445238D01*
X140516666Y-148635714D01*
X140516666Y-148969047D01*
X140564285Y-149159523D01*
X140659523Y-149254761D01*
X140754761Y-149302380D01*
X140945238Y-149302380D01*
X141040476Y-149254761D01*
X141135714Y-149159523D01*
X141183333Y-148969047D01*
X141183333Y-148635714D01*
X141135714Y-148445238D01*
X141040476Y-148350000D01*
X140945238Y-148302380D01*
X139516666Y-149302380D02*
X139850000Y-148826190D01*
X140088095Y-149302380D02*
X140088095Y-148302380D01*
X139707142Y-148302380D01*
X139611904Y-148350000D01*
X139564285Y-148397619D01*
X139516666Y-148492857D01*
X139516666Y-148635714D01*
X139564285Y-148730952D01*
X139611904Y-148778571D01*
X139707142Y-148826190D01*
X140088095Y-148826190D01*
X138564285Y-149302380D02*
X139135714Y-149302380D01*
X138850000Y-149302380D02*
X138850000Y-148302380D01*
X138945238Y-148445238D01*
X139040476Y-148540476D01*
X139135714Y-148588095D01*
X168866666Y-149254761D02*
X168723809Y-149302380D01*
X168485714Y-149302380D01*
X168390476Y-149254761D01*
X168342857Y-149207142D01*
X168295238Y-149111904D01*
X168295238Y-149016666D01*
X168342857Y-148921428D01*
X168390476Y-148873809D01*
X168485714Y-148826190D01*
X168676190Y-148778571D01*
X168771428Y-148730952D01*
X168819047Y-148683333D01*
X168866666Y-148588095D01*
X168866666Y-148492857D01*
X168819047Y-148397619D01*
X168771428Y-148350000D01*
X168676190Y-148302380D01*
X168438095Y-148302380D01*
X168295238Y-148350000D01*
X167866666Y-148778571D02*
X167533333Y-148778571D01*
X167390476Y-149302380D02*
X167866666Y-149302380D01*
X167866666Y-148302380D01*
X167390476Y-148302380D01*
X166390476Y-149302380D02*
X166723809Y-148826190D01*
X166961904Y-149302380D02*
X166961904Y-148302380D01*
X166580952Y-148302380D01*
X166485714Y-148350000D01*
X166438095Y-148397619D01*
X166390476Y-148492857D01*
X166390476Y-148635714D01*
X166438095Y-148730952D01*
X166485714Y-148778571D01*
X166580952Y-148826190D01*
X166961904Y-148826190D01*
X166104761Y-148302380D02*
X165771428Y-149302380D01*
X165438095Y-148302380D01*
X164914285Y-148302380D02*
X164723809Y-148302380D01*
X164628571Y-148350000D01*
X164533333Y-148445238D01*
X164485714Y-148635714D01*
X164485714Y-148969047D01*
X164533333Y-149159523D01*
X164628571Y-149254761D01*
X164723809Y-149302380D01*
X164914285Y-149302380D01*
X165009523Y-149254761D01*
X165104761Y-149159523D01*
X165152380Y-148969047D01*
X165152380Y-148635714D01*
X165104761Y-148445238D01*
X165009523Y-148350000D01*
X164914285Y-148302380D01*
X164104761Y-148397619D02*
X164057142Y-148350000D01*
X163961904Y-148302380D01*
X163723809Y-148302380D01*
X163628571Y-148350000D01*
X163580952Y-148397619D01*
X163533333Y-148492857D01*
X163533333Y-148588095D01*
X163580952Y-148730952D01*
X164152380Y-149302380D01*
X163533333Y-149302380D01*
X136416666Y-149204761D02*
X136273809Y-149252380D01*
X136035714Y-149252380D01*
X135940476Y-149204761D01*
X135892857Y-149157142D01*
X135845238Y-149061904D01*
X135845238Y-148966666D01*
X135892857Y-148871428D01*
X135940476Y-148823809D01*
X136035714Y-148776190D01*
X136226190Y-148728571D01*
X136321428Y-148680952D01*
X136369047Y-148633333D01*
X136416666Y-148538095D01*
X136416666Y-148442857D01*
X136369047Y-148347619D01*
X136321428Y-148300000D01*
X136226190Y-148252380D01*
X135988095Y-148252380D01*
X135845238Y-148300000D01*
X135416666Y-148728571D02*
X135083333Y-148728571D01*
X134940476Y-149252380D02*
X135416666Y-149252380D01*
X135416666Y-148252380D01*
X134940476Y-148252380D01*
X133940476Y-149252380D02*
X134273809Y-148776190D01*
X134511904Y-149252380D02*
X134511904Y-148252380D01*
X134130952Y-148252380D01*
X134035714Y-148300000D01*
X133988095Y-148347619D01*
X133940476Y-148442857D01*
X133940476Y-148585714D01*
X133988095Y-148680952D01*
X134035714Y-148728571D01*
X134130952Y-148776190D01*
X134511904Y-148776190D01*
X133654761Y-148252380D02*
X133321428Y-149252380D01*
X132988095Y-148252380D01*
X132464285Y-148252380D02*
X132273809Y-148252380D01*
X132178571Y-148300000D01*
X132083333Y-148395238D01*
X132035714Y-148585714D01*
X132035714Y-148919047D01*
X132083333Y-149109523D01*
X132178571Y-149204761D01*
X132273809Y-149252380D01*
X132464285Y-149252380D01*
X132559523Y-149204761D01*
X132654761Y-149109523D01*
X132702380Y-148919047D01*
X132702380Y-148585714D01*
X132654761Y-148395238D01*
X132559523Y-148300000D01*
X132464285Y-148252380D01*
X131083333Y-149252380D02*
X131654761Y-149252380D01*
X131369047Y-149252380D02*
X131369047Y-148252380D01*
X131464285Y-148395238D01*
X131559523Y-148490476D01*
X131654761Y-148538095D01*
D11*
%TO.C,J1*%
X145830000Y-124115000D02*
X145830000Y-122785000D01*
X144500000Y-124115000D02*
X145830000Y-124115000D01*
X143230000Y-124115000D02*
X143230000Y-121455000D01*
X143230000Y-121455000D02*
X138090000Y-121455000D01*
X143230000Y-124115000D02*
X138090000Y-124115000D01*
X138090000Y-124115000D02*
X138090000Y-121455000D01*
%TO.C,J2*%
X138090000Y-121575000D02*
X138090000Y-118915000D01*
X143230000Y-121575000D02*
X138090000Y-121575000D01*
X143230000Y-118915000D02*
X138090000Y-118915000D01*
X143230000Y-121575000D02*
X143230000Y-118915000D01*
X144500000Y-121575000D02*
X145830000Y-121575000D01*
X145830000Y-121575000D02*
X145830000Y-120245000D01*
%TO.C,J3*%
X145830000Y-119035000D02*
X145830000Y-117705000D01*
X144500000Y-119035000D02*
X145830000Y-119035000D01*
X143230000Y-119035000D02*
X143230000Y-116375000D01*
X143230000Y-116375000D02*
X138090000Y-116375000D01*
X143230000Y-119035000D02*
X138090000Y-119035000D01*
X138090000Y-119035000D02*
X138090000Y-116375000D01*
%TO.C,J4*%
X138090000Y-116495000D02*
X138090000Y-113835000D01*
X143230000Y-116495000D02*
X138090000Y-116495000D01*
X143230000Y-113835000D02*
X138090000Y-113835000D01*
X143230000Y-116495000D02*
X143230000Y-113835000D01*
X144500000Y-116495000D02*
X145830000Y-116495000D01*
X145830000Y-116495000D02*
X145830000Y-115165000D01*
%TO.C,J19*%
X131710000Y-51320000D02*
X131210000Y-52320000D01*
X130710000Y-51320000D02*
X131710000Y-51320000D01*
X131210000Y-52320000D02*
X130710000Y-51320000D01*
X135800000Y-54020000D02*
X135800000Y-52710000D01*
X135800000Y-54020000D02*
X135800000Y-54020000D01*
X140200000Y-54020000D02*
X135800000Y-54020000D01*
X140200000Y-60520000D02*
X140200000Y-54020000D01*
X127300000Y-60520000D02*
X140200000Y-60520000D01*
X127300000Y-54020000D02*
X127300000Y-60520000D01*
X131700000Y-54020000D02*
X127300000Y-54020000D01*
X131700000Y-52710000D02*
X131700000Y-54020000D01*
X141500000Y-52710000D02*
X126000000Y-52710000D01*
X141500000Y-61830000D02*
X141500000Y-52710000D01*
X126000000Y-61830000D02*
X141500000Y-61830000D01*
X126000000Y-52710000D02*
X126000000Y-61830000D01*
%TO.C,J20*%
X158500000Y-52710000D02*
X158500000Y-61830000D01*
X158500000Y-61830000D02*
X174000000Y-61830000D01*
X174000000Y-61830000D02*
X174000000Y-52710000D01*
X174000000Y-52710000D02*
X158500000Y-52710000D01*
X164200000Y-52710000D02*
X164200000Y-54020000D01*
X164200000Y-54020000D02*
X159800000Y-54020000D01*
X159800000Y-54020000D02*
X159800000Y-60520000D01*
X159800000Y-60520000D02*
X172700000Y-60520000D01*
X172700000Y-60520000D02*
X172700000Y-54020000D01*
X172700000Y-54020000D02*
X168300000Y-54020000D01*
X168300000Y-54020000D02*
X168300000Y-54020000D01*
X168300000Y-54020000D02*
X168300000Y-52710000D01*
X163710000Y-52320000D02*
X163210000Y-51320000D01*
X163210000Y-51320000D02*
X164210000Y-51320000D01*
X164210000Y-51320000D02*
X163710000Y-52320000D01*
%TO.C,JP1*%
X124875000Y-65300000D02*
X124875000Y-66700000D01*
X125575000Y-67400000D02*
X126175000Y-67400000D01*
X126875000Y-66700000D02*
X126875000Y-65300000D01*
X126175000Y-64600000D02*
X125575000Y-64600000D01*
X125575000Y-64600000D02*
G75*
G03*
X124875000Y-65300000I0J-700000D01*
G01*
X126875000Y-65300000D02*
G75*
G03*
X126175000Y-64600000I-700000J0D01*
G01*
X126175000Y-67400000D02*
G75*
G03*
X126875000Y-66700000I0J700000D01*
G01*
X124875000Y-66700000D02*
G75*
G03*
X125575000Y-67400000I700000J0D01*
G01*
%TO.C,JP2*%
X134050000Y-64600000D02*
X133450000Y-64600000D01*
X134750000Y-66700000D02*
X134750000Y-65300000D01*
X133450000Y-67400000D02*
X134050000Y-67400000D01*
X132750000Y-65300000D02*
X132750000Y-66700000D01*
X132750000Y-66700000D02*
G75*
G03*
X133450000Y-67400000I700000J0D01*
G01*
X134050000Y-67400000D02*
G75*
G03*
X134750000Y-66700000I0J700000D01*
G01*
X134750000Y-65300000D02*
G75*
G03*
X134050000Y-64600000I-700000J0D01*
G01*
X133450000Y-64600000D02*
G75*
G03*
X132750000Y-65300000I0J-700000D01*
G01*
%TO.C,JP3*%
X140650000Y-65300000D02*
X140650000Y-66700000D01*
X141350000Y-67400000D02*
X141950000Y-67400000D01*
X142650000Y-66700000D02*
X142650000Y-65300000D01*
X141950000Y-64600000D02*
X141350000Y-64600000D01*
X141350000Y-64600000D02*
G75*
G03*
X140650000Y-65300000I0J-700000D01*
G01*
X142650000Y-65300000D02*
G75*
G03*
X141950000Y-64600000I-700000J0D01*
G01*
X141950000Y-67400000D02*
G75*
G03*
X142650000Y-66700000I0J700000D01*
G01*
X140650000Y-66700000D02*
G75*
G03*
X141350000Y-67400000I700000J0D01*
G01*
%TO.C,JP4*%
X162650000Y-64600000D02*
X162050000Y-64600000D01*
X163350000Y-66700000D02*
X163350000Y-65300000D01*
X162050000Y-67400000D02*
X162650000Y-67400000D01*
X161350000Y-65300000D02*
X161350000Y-66700000D01*
X161350000Y-66700000D02*
G75*
G03*
X162050000Y-67400000I700000J0D01*
G01*
X162650000Y-67400000D02*
G75*
G03*
X163350000Y-66700000I0J700000D01*
G01*
X163350000Y-65300000D02*
G75*
G03*
X162650000Y-64600000I-700000J0D01*
G01*
X162050000Y-64600000D02*
G75*
G03*
X161350000Y-65300000I0J-700000D01*
G01*
%TO.C,JP5*%
X166550000Y-65300000D02*
X166550000Y-66700000D01*
X167250000Y-67400000D02*
X167850000Y-67400000D01*
X168550000Y-66700000D02*
X168550000Y-65300000D01*
X167850000Y-64600000D02*
X167250000Y-64600000D01*
X167250000Y-64600000D02*
G75*
G03*
X166550000Y-65300000I0J-700000D01*
G01*
X168550000Y-65300000D02*
G75*
G03*
X167850000Y-64600000I-700000J0D01*
G01*
X167850000Y-67400000D02*
G75*
G03*
X168550000Y-66700000I0J700000D01*
G01*
X166550000Y-66700000D02*
G75*
G03*
X167250000Y-67400000I700000J0D01*
G01*
%TO.C,JP6*%
X171750000Y-65300000D02*
X171750000Y-66700000D01*
X172450000Y-67400000D02*
X173050000Y-67400000D01*
X173750000Y-66700000D02*
X173750000Y-65300000D01*
X173050000Y-64600000D02*
X172450000Y-64600000D01*
X172450000Y-64600000D02*
G75*
G03*
X171750000Y-65300000I0J-700000D01*
G01*
X173750000Y-65300000D02*
G75*
G03*
X173050000Y-64600000I-700000J0D01*
G01*
X173050000Y-67400000D02*
G75*
G03*
X173750000Y-66700000I0J700000D01*
G01*
X171750000Y-66700000D02*
G75*
G03*
X172450000Y-67400000I700000J0D01*
G01*
%TO.C,JP7*%
X123550000Y-64600000D02*
X122950000Y-64600000D01*
X124250000Y-66700000D02*
X124250000Y-65300000D01*
X122950000Y-67400000D02*
X123550000Y-67400000D01*
X122250000Y-65300000D02*
X122250000Y-66700000D01*
X122250000Y-66700000D02*
G75*
G03*
X122950000Y-67400000I700000J0D01*
G01*
X123550000Y-67400000D02*
G75*
G03*
X124250000Y-66700000I0J700000D01*
G01*
X124250000Y-65300000D02*
G75*
G03*
X123550000Y-64600000I-700000J0D01*
G01*
X122950000Y-64600000D02*
G75*
G03*
X122250000Y-65300000I0J-700000D01*
G01*
%TO.C,JP8*%
X130125000Y-65300000D02*
X130125000Y-66700000D01*
X130825000Y-67400000D02*
X131425000Y-67400000D01*
X132125000Y-66700000D02*
X132125000Y-65300000D01*
X131425000Y-64600000D02*
X130825000Y-64600000D01*
X130825000Y-64600000D02*
G75*
G03*
X130125000Y-65300000I0J-700000D01*
G01*
X132125000Y-65300000D02*
G75*
G03*
X131425000Y-64600000I-700000J0D01*
G01*
X131425000Y-67400000D02*
G75*
G03*
X132125000Y-66700000I0J700000D01*
G01*
X130125000Y-66700000D02*
G75*
G03*
X130825000Y-67400000I700000J0D01*
G01*
%TO.C,JP9*%
X139325000Y-64600000D02*
X138725000Y-64600000D01*
X140025000Y-66700000D02*
X140025000Y-65300000D01*
X138725000Y-67400000D02*
X139325000Y-67400000D01*
X138025000Y-65300000D02*
X138025000Y-66700000D01*
X138025000Y-66700000D02*
G75*
G03*
X138725000Y-67400000I700000J0D01*
G01*
X139325000Y-67400000D02*
G75*
G03*
X140025000Y-66700000I0J700000D01*
G01*
X140025000Y-65300000D02*
G75*
G03*
X139325000Y-64600000I-700000J0D01*
G01*
X138725000Y-64600000D02*
G75*
G03*
X138025000Y-65300000I0J-700000D01*
G01*
%TO.C,JP10*%
X160050000Y-64600000D02*
X159450000Y-64600000D01*
X160750000Y-66700000D02*
X160750000Y-65300000D01*
X159450000Y-67400000D02*
X160050000Y-67400000D01*
X158750000Y-65300000D02*
X158750000Y-66700000D01*
X158750000Y-66700000D02*
G75*
G03*
X159450000Y-67400000I700000J0D01*
G01*
X160050000Y-67400000D02*
G75*
G03*
X160750000Y-66700000I0J700000D01*
G01*
X160750000Y-65300000D02*
G75*
G03*
X160050000Y-64600000I-700000J0D01*
G01*
X159450000Y-64600000D02*
G75*
G03*
X158750000Y-65300000I0J-700000D01*
G01*
%TO.C,JP11*%
X163950000Y-66700000D02*
G75*
G03*
X164650000Y-67400000I700000J0D01*
G01*
X165250000Y-67400000D02*
G75*
G03*
X165950000Y-66700000I0J700000D01*
G01*
X165950000Y-65300000D02*
G75*
G03*
X165250000Y-64600000I-700000J0D01*
G01*
X164650000Y-64600000D02*
G75*
G03*
X163950000Y-65300000I0J-700000D01*
G01*
X165250000Y-64600000D02*
X164650000Y-64600000D01*
X165950000Y-66700000D02*
X165950000Y-65300000D01*
X164650000Y-67400000D02*
X165250000Y-67400000D01*
X163950000Y-65300000D02*
X163950000Y-66700000D01*
%TO.C,JP12*%
X170450000Y-64600000D02*
X169850000Y-64600000D01*
X171150000Y-66700000D02*
X171150000Y-65300000D01*
X169850000Y-67400000D02*
X170450000Y-67400000D01*
X169150000Y-65300000D02*
X169150000Y-66700000D01*
X169150000Y-66700000D02*
G75*
G03*
X169850000Y-67400000I700000J0D01*
G01*
X170450000Y-67400000D02*
G75*
G03*
X171150000Y-66700000I0J700000D01*
G01*
X171150000Y-65300000D02*
G75*
G03*
X170450000Y-64600000I-700000J0D01*
G01*
X169850000Y-64600000D02*
G75*
G03*
X169150000Y-65300000I0J-700000D01*
G01*
%TO.C,Q1*%
X171580000Y-86510000D02*
X171580000Y-85050000D01*
X168420000Y-86510000D02*
X168420000Y-84350000D01*
X168420000Y-86510000D02*
X169350000Y-86510000D01*
X171580000Y-86510000D02*
X170650000Y-86510000D01*
%TO.C,R1*%
X170237258Y-82227500D02*
X169762742Y-82227500D01*
X170237258Y-83272500D02*
X169762742Y-83272500D01*
%TO.C,R2*%
X169762742Y-80227500D02*
X170237258Y-80227500D01*
X169762742Y-81272500D02*
X170237258Y-81272500D01*
%TO.C,R3*%
X170237258Y-97522500D02*
X169762742Y-97522500D01*
X170237258Y-96477500D02*
X169762742Y-96477500D01*
%TO.C,R4*%
X174762742Y-97522500D02*
X175237258Y-97522500D01*
X174762742Y-96477500D02*
X175237258Y-96477500D01*
%TO.C,R5*%
X170237258Y-99522500D02*
X169762742Y-99522500D01*
X170237258Y-98477500D02*
X169762742Y-98477500D01*
%TO.C,R6*%
X174762742Y-99522500D02*
X175237258Y-99522500D01*
X174762742Y-98477500D02*
X175237258Y-98477500D01*
%TO.C,R7*%
X170237258Y-100477500D02*
X169762742Y-100477500D01*
X170237258Y-101522500D02*
X169762742Y-101522500D01*
%TO.C,R8*%
X174762742Y-100477500D02*
X175237258Y-100477500D01*
X174762742Y-101522500D02*
X175237258Y-101522500D01*
%TO.C,R9*%
X170237258Y-103522500D02*
X169762742Y-103522500D01*
X170237258Y-102477500D02*
X169762742Y-102477500D01*
%TO.C,R10*%
X174762742Y-103522500D02*
X175237258Y-103522500D01*
X174762742Y-102477500D02*
X175237258Y-102477500D01*
%TO.C,J5*%
X129940000Y-136230000D02*
X129940000Y-137500000D01*
X131210000Y-136230000D02*
X129940000Y-136230000D01*
X136670000Y-138542929D02*
X136670000Y-138940000D01*
X135910000Y-138542929D02*
X135910000Y-138940000D01*
X136670000Y-147600000D02*
X136670000Y-141600000D01*
X135910000Y-147600000D02*
X136670000Y-147600000D01*
X135910000Y-141600000D02*
X135910000Y-147600000D01*
X135020000Y-138940000D02*
X135020000Y-141600000D01*
X134130000Y-138542929D02*
X134130000Y-138940000D01*
X133370000Y-138542929D02*
X133370000Y-138940000D01*
X134130000Y-147600000D02*
X134130000Y-141600000D01*
X133370000Y-147600000D02*
X134130000Y-147600000D01*
X133370000Y-141600000D02*
X133370000Y-147600000D01*
X132480000Y-138940000D02*
X132480000Y-141600000D01*
X131590000Y-138610000D02*
X131590000Y-138940000D01*
X130830000Y-138610000D02*
X130830000Y-138940000D01*
X131490000Y-141600000D02*
X131490000Y-147600000D01*
X131370000Y-141600000D02*
X131370000Y-147600000D01*
X131250000Y-141600000D02*
X131250000Y-147600000D01*
X131130000Y-141600000D02*
X131130000Y-147600000D01*
X131010000Y-141600000D02*
X131010000Y-147600000D01*
X130890000Y-141600000D02*
X130890000Y-147600000D01*
X131590000Y-147600000D02*
X131590000Y-141600000D01*
X130830000Y-147600000D02*
X131590000Y-147600000D01*
X130830000Y-141600000D02*
X130830000Y-147600000D01*
X129880000Y-141600000D02*
X129880000Y-138940000D01*
X137620000Y-141600000D02*
X129880000Y-141600000D01*
X137620000Y-138940000D02*
X137620000Y-141600000D01*
X129880000Y-138940000D02*
X137620000Y-138940000D01*
%TO.C,J6*%
X162440000Y-136230000D02*
X162440000Y-137500000D01*
X163710000Y-136230000D02*
X162440000Y-136230000D01*
X169170000Y-138542929D02*
X169170000Y-138940000D01*
X168410000Y-138542929D02*
X168410000Y-138940000D01*
X169170000Y-147600000D02*
X169170000Y-141600000D01*
X168410000Y-147600000D02*
X169170000Y-147600000D01*
X168410000Y-141600000D02*
X168410000Y-147600000D01*
X167520000Y-138940000D02*
X167520000Y-141600000D01*
X166630000Y-138542929D02*
X166630000Y-138940000D01*
X165870000Y-138542929D02*
X165870000Y-138940000D01*
X166630000Y-147600000D02*
X166630000Y-141600000D01*
X165870000Y-147600000D02*
X166630000Y-147600000D01*
X165870000Y-141600000D02*
X165870000Y-147600000D01*
X164980000Y-138940000D02*
X164980000Y-141600000D01*
X164090000Y-138610000D02*
X164090000Y-138940000D01*
X163330000Y-138610000D02*
X163330000Y-138940000D01*
X163990000Y-141600000D02*
X163990000Y-147600000D01*
X163870000Y-141600000D02*
X163870000Y-147600000D01*
X163750000Y-141600000D02*
X163750000Y-147600000D01*
X163630000Y-141600000D02*
X163630000Y-147600000D01*
X163510000Y-141600000D02*
X163510000Y-147600000D01*
X163390000Y-141600000D02*
X163390000Y-147600000D01*
X164090000Y-147600000D02*
X164090000Y-141600000D01*
X163330000Y-147600000D02*
X164090000Y-147600000D01*
X163330000Y-141600000D02*
X163330000Y-147600000D01*
X162380000Y-141600000D02*
X162380000Y-138940000D01*
X170120000Y-141600000D02*
X162380000Y-141600000D01*
X170120000Y-138940000D02*
X170120000Y-141600000D01*
X162380000Y-138940000D02*
X170120000Y-138940000D01*
%TO.C,J7*%
X138770000Y-138940000D02*
X143970000Y-138940000D01*
X143970000Y-138940000D02*
X143970000Y-141600000D01*
X143970000Y-141600000D02*
X138770000Y-141600000D01*
X138770000Y-141600000D02*
X138770000Y-138940000D01*
X139720000Y-141600000D02*
X139720000Y-147600000D01*
X139720000Y-147600000D02*
X140480000Y-147600000D01*
X140480000Y-147600000D02*
X140480000Y-141600000D01*
X139780000Y-141600000D02*
X139780000Y-147600000D01*
X139900000Y-141600000D02*
X139900000Y-147600000D01*
X140020000Y-141600000D02*
X140020000Y-147600000D01*
X140140000Y-141600000D02*
X140140000Y-147600000D01*
X140260000Y-141600000D02*
X140260000Y-147600000D01*
X140380000Y-141600000D02*
X140380000Y-147600000D01*
X139720000Y-138610000D02*
X139720000Y-138940000D01*
X140480000Y-138610000D02*
X140480000Y-138940000D01*
X141370000Y-138940000D02*
X141370000Y-141600000D01*
X142260000Y-141600000D02*
X142260000Y-147600000D01*
X142260000Y-147600000D02*
X143020000Y-147600000D01*
X143020000Y-147600000D02*
X143020000Y-141600000D01*
X142260000Y-138542929D02*
X142260000Y-138940000D01*
X143020000Y-138542929D02*
X143020000Y-138940000D01*
X140100000Y-136230000D02*
X138830000Y-136230000D01*
X138830000Y-136230000D02*
X138830000Y-137500000D01*
%TO.C,J8*%
X156080000Y-138940000D02*
X161280000Y-138940000D01*
X161280000Y-138940000D02*
X161280000Y-141600000D01*
X161280000Y-141600000D02*
X156080000Y-141600000D01*
X156080000Y-141600000D02*
X156080000Y-138940000D01*
X157030000Y-141600000D02*
X157030000Y-147600000D01*
X157030000Y-147600000D02*
X157790000Y-147600000D01*
X157790000Y-147600000D02*
X157790000Y-141600000D01*
X157090000Y-141600000D02*
X157090000Y-147600000D01*
X157210000Y-141600000D02*
X157210000Y-147600000D01*
X157330000Y-141600000D02*
X157330000Y-147600000D01*
X157450000Y-141600000D02*
X157450000Y-147600000D01*
X157570000Y-141600000D02*
X157570000Y-147600000D01*
X157690000Y-141600000D02*
X157690000Y-147600000D01*
X157030000Y-138610000D02*
X157030000Y-138940000D01*
X157790000Y-138610000D02*
X157790000Y-138940000D01*
X158680000Y-138940000D02*
X158680000Y-141600000D01*
X159570000Y-141600000D02*
X159570000Y-147600000D01*
X159570000Y-147600000D02*
X160330000Y-147600000D01*
X160330000Y-147600000D02*
X160330000Y-141600000D01*
X159570000Y-138542929D02*
X159570000Y-138940000D01*
X160330000Y-138542929D02*
X160330000Y-138940000D01*
X157410000Y-136230000D02*
X156140000Y-136230000D01*
X156140000Y-136230000D02*
X156140000Y-137500000D01*
%TO.C,J9*%
X171340000Y-136230000D02*
X171340000Y-137500000D01*
X172610000Y-136230000D02*
X171340000Y-136230000D01*
X175530000Y-138542929D02*
X175530000Y-138940000D01*
X174770000Y-138542929D02*
X174770000Y-138940000D01*
X175530000Y-147600000D02*
X175530000Y-141600000D01*
X174770000Y-147600000D02*
X175530000Y-147600000D01*
X174770000Y-141600000D02*
X174770000Y-147600000D01*
X173880000Y-138940000D02*
X173880000Y-141600000D01*
X172990000Y-138610000D02*
X172990000Y-138940000D01*
X172230000Y-138610000D02*
X172230000Y-138940000D01*
X172890000Y-141600000D02*
X172890000Y-147600000D01*
X172770000Y-141600000D02*
X172770000Y-147600000D01*
X172650000Y-141600000D02*
X172650000Y-147600000D01*
X172530000Y-141600000D02*
X172530000Y-147600000D01*
X172410000Y-141600000D02*
X172410000Y-147600000D01*
X172290000Y-141600000D02*
X172290000Y-147600000D01*
X172990000Y-147600000D02*
X172990000Y-141600000D01*
X172230000Y-147600000D02*
X172990000Y-147600000D01*
X172230000Y-141600000D02*
X172230000Y-147600000D01*
X171280000Y-141600000D02*
X171280000Y-138940000D01*
X176480000Y-141600000D02*
X171280000Y-141600000D01*
X176480000Y-138940000D02*
X176480000Y-141600000D01*
X171280000Y-138940000D02*
X176480000Y-138940000D01*
%TO.C,J10*%
X123580000Y-138940000D02*
X128780000Y-138940000D01*
X128780000Y-138940000D02*
X128780000Y-141600000D01*
X128780000Y-141600000D02*
X123580000Y-141600000D01*
X123580000Y-141600000D02*
X123580000Y-138940000D01*
X124530000Y-141600000D02*
X124530000Y-147600000D01*
X124530000Y-147600000D02*
X125290000Y-147600000D01*
X125290000Y-147600000D02*
X125290000Y-141600000D01*
X124590000Y-141600000D02*
X124590000Y-147600000D01*
X124710000Y-141600000D02*
X124710000Y-147600000D01*
X124830000Y-141600000D02*
X124830000Y-147600000D01*
X124950000Y-141600000D02*
X124950000Y-147600000D01*
X125070000Y-141600000D02*
X125070000Y-147600000D01*
X125190000Y-141600000D02*
X125190000Y-147600000D01*
X124530000Y-138610000D02*
X124530000Y-138940000D01*
X125290000Y-138610000D02*
X125290000Y-138940000D01*
X126180000Y-138940000D02*
X126180000Y-141600000D01*
X127070000Y-141600000D02*
X127070000Y-147600000D01*
X127070000Y-147600000D02*
X127830000Y-147600000D01*
X127830000Y-147600000D02*
X127830000Y-141600000D01*
X127070000Y-138542929D02*
X127070000Y-138940000D01*
X127830000Y-138542929D02*
X127830000Y-138940000D01*
X124910000Y-136230000D02*
X123640000Y-136230000D01*
X123640000Y-136230000D02*
X123640000Y-137500000D01*
%TO.C,TP10*%
X127775000Y-74000000D02*
G75*
G03*
X127775000Y-74000000I-1500000J0D01*
G01*
%TO.C,TP11*%
X135250000Y-74000000D02*
G75*
G03*
X135250000Y-74000000I-1500000J0D01*
G01*
%TO.C,TP12*%
X142725000Y-74000000D02*
G75*
G03*
X142725000Y-74000000I-1500000J0D01*
G01*
%TO.C,TP13*%
X162050000Y-74000000D02*
G75*
G03*
X162050000Y-74000000I-1500000J0D01*
G01*
%TO.C,TP14*%
X169650000Y-74000000D02*
G75*
G03*
X169650000Y-74000000I-1500000J0D01*
G01*
%TO.C,TP15*%
X177250000Y-74000000D02*
G75*
G03*
X177250000Y-74000000I-1500000J0D01*
G01*
%TO.C,TP26*%
X124050000Y-74000000D02*
G75*
G03*
X124050000Y-74000000I-1500000J0D01*
G01*
%TO.C,TP27*%
X158250000Y-74000000D02*
G75*
G03*
X158250000Y-74000000I-1500000J0D01*
G01*
%TO.C,TP28*%
X165850000Y-74000000D02*
G75*
G03*
X165850000Y-74000000I-1500000J0D01*
G01*
%TO.C,TP29*%
X173450000Y-74000000D02*
G75*
G03*
X173450000Y-74000000I-1500000J0D01*
G01*
%TO.C,JP13*%
X127500000Y-65300000D02*
X127500000Y-66700000D01*
X128200000Y-67400000D02*
X128800000Y-67400000D01*
X129500000Y-66700000D02*
X129500000Y-65300000D01*
X128800000Y-64600000D02*
X128200000Y-64600000D01*
X127500000Y-66700000D02*
G75*
G03*
X128200000Y-67400000I700000J0D01*
G01*
X128800000Y-67400000D02*
G75*
G03*
X129500000Y-66700000I0J700000D01*
G01*
X129500000Y-65300000D02*
G75*
G03*
X128800000Y-64600000I-700000J0D01*
G01*
X128200000Y-64600000D02*
G75*
G03*
X127500000Y-65300000I0J-700000D01*
G01*
%TO.C,JP14*%
X135375000Y-65300000D02*
X135375000Y-66700000D01*
X136075000Y-67400000D02*
X136675000Y-67400000D01*
X137375000Y-66700000D02*
X137375000Y-65300000D01*
X136675000Y-64600000D02*
X136075000Y-64600000D01*
X135375000Y-66700000D02*
G75*
G03*
X136075000Y-67400000I700000J0D01*
G01*
X136675000Y-67400000D02*
G75*
G03*
X137375000Y-66700000I0J700000D01*
G01*
X137375000Y-65300000D02*
G75*
G03*
X136675000Y-64600000I-700000J0D01*
G01*
X136075000Y-64600000D02*
G75*
G03*
X135375000Y-65300000I0J-700000D01*
G01*
%TO.C,JP15*%
X143975000Y-64600000D02*
G75*
G03*
X143275000Y-65300000I0J-700000D01*
G01*
X145275000Y-65300000D02*
G75*
G03*
X144575000Y-64600000I-700000J0D01*
G01*
X144575000Y-67400000D02*
G75*
G03*
X145275000Y-66700000I0J700000D01*
G01*
X143275000Y-66700000D02*
G75*
G03*
X143975000Y-67400000I700000J0D01*
G01*
X144575000Y-64600000D02*
X143975000Y-64600000D01*
X145275000Y-66700000D02*
X145275000Y-65300000D01*
X143975000Y-67400000D02*
X144575000Y-67400000D01*
X143275000Y-65300000D02*
X143275000Y-66700000D01*
%TO.C,TP1*%
X131500000Y-74000000D02*
G75*
G03*
X131500000Y-74000000I-1500000J0D01*
G01*
%TO.C,TP2*%
X139000000Y-74000000D02*
G75*
G03*
X139000000Y-74000000I-1500000J0D01*
G01*
%TO.C,TP4*%
X146450000Y-74000000D02*
G75*
G03*
X146450000Y-74000000I-1500000J0D01*
G01*
%TD*%
M02*
