G04*
G04 #@! TF.GenerationSoftware,Altium Limited,Altium Designer,21.5.1 (32)*
G04*
G04 Layer_Color=65535*
%FSLAX25Y25*%
%MOIN*%
G70*
G04*
G04 #@! TF.SameCoordinates,46425C1A-2BEC-4B65-9795-0374EE0649E2*
G04*
G04*
G04 #@! TF.FilePolarity,Positive*
G04*
G01*
G75*
%ADD10C,0.00787*%
%ADD11C,0.00984*%
D10*
X5906Y8661D02*
G03*
X5906Y2362I0J-3150D01*
G01*
X11811D02*
G03*
X11811Y8661I0J3150D01*
G01*
X5906Y2362D02*
X11811D01*
X5906Y8661D02*
X11811D01*
X18110Y38681D02*
Y39469D01*
X12402Y38681D02*
Y39469D01*
X18012Y25787D02*
Y26378D01*
X14469Y25787D02*
Y26378D01*
X1181Y34154D02*
Y35728D01*
X35747Y55417D02*
Y51481D01*
X34435Y55417D02*
X37059D01*
X37528D02*
Y51481D01*
X40152Y55417D02*
Y51481D01*
X37528Y53543D02*
X40152D01*
X43676Y55417D02*
X41239D01*
Y51481D01*
X43676D01*
X41239Y53543D02*
X42738D01*
X47424Y55417D02*
Y51481D01*
Y55417D02*
X49111D01*
X49674Y55230D01*
X49861Y55042D01*
X50048Y54667D01*
Y54292D01*
X49861Y53917D01*
X49674Y53730D01*
X49111Y53543D01*
X47424D02*
X49111D01*
X49674Y53355D01*
X49861Y53168D01*
X50048Y52793D01*
Y52231D01*
X49861Y51856D01*
X49674Y51668D01*
X49111Y51481D01*
X47424D01*
X50929Y55417D02*
Y51481D01*
Y55417D02*
X52616D01*
X53179Y55230D01*
X53366Y55042D01*
X53553Y54667D01*
Y54292D01*
X53366Y53917D01*
X53179Y53730D01*
X52616Y53543D01*
X50929D01*
X52241D02*
X53553Y51481D01*
X57433D02*
X55934Y55417D01*
X54434Y51481D01*
X54997Y52793D02*
X56871D01*
X58352Y55417D02*
Y51481D01*
X59176Y55417D02*
Y51481D01*
Y55417D02*
X61801Y51481D01*
Y55417D02*
Y51481D01*
X65512Y54855D02*
X65137Y55230D01*
X64575Y55417D01*
X63825D01*
X63263Y55230D01*
X62888Y54855D01*
Y54480D01*
X63075Y54105D01*
X63263Y53917D01*
X63638Y53730D01*
X64762Y53355D01*
X65137Y53168D01*
X65324Y52980D01*
X65512Y52605D01*
Y52043D01*
X65137Y51668D01*
X64575Y51481D01*
X63825D01*
X63263Y51668D01*
X62888Y52043D01*
X69485Y54105D02*
X70610Y51481D01*
X71735Y54105D02*
X70610Y51481D01*
X72747Y55417D02*
X74809D01*
X73684Y53917D01*
X74246D01*
X74621Y53730D01*
X74809Y53543D01*
X74996Y52980D01*
Y52605D01*
X74809Y52043D01*
X74434Y51668D01*
X73871Y51481D01*
X73309D01*
X72747Y51668D01*
X72559Y51856D01*
X72372Y52231D01*
X76064Y51856D02*
X75877Y51668D01*
X76064Y51481D01*
X76252Y51668D01*
X76064Y51856D01*
X78239Y55417D02*
X77676Y55230D01*
X77302Y54667D01*
X77114Y53730D01*
Y53168D01*
X77302Y52231D01*
X77676Y51668D01*
X78239Y51481D01*
X78614D01*
X79176Y51668D01*
X79551Y52231D01*
X79738Y53168D01*
Y53730D01*
X79551Y54667D01*
X79176Y55230D01*
X78614Y55417D01*
X78239D01*
X33104Y7492D02*
Y3556D01*
Y7492D02*
X34416D01*
X34979Y7304D01*
X35353Y6929D01*
X35541Y6555D01*
X35728Y5992D01*
Y5055D01*
X35541Y4493D01*
X35353Y4118D01*
X34979Y3743D01*
X34416Y3556D01*
X33104D01*
X36609Y7492D02*
Y4680D01*
X36797Y4118D01*
X37172Y3743D01*
X37734Y3556D01*
X38109D01*
X38671Y3743D01*
X39046Y4118D01*
X39233Y4680D01*
Y7492D01*
X43319Y3556D02*
X41820Y7492D01*
X40320Y3556D01*
X40883Y4868D02*
X42757D01*
X44238Y7492D02*
Y3556D01*
X46487D01*
X50011Y7492D02*
Y3556D01*
Y7492D02*
X51510Y3556D01*
X53010Y7492D02*
X51510Y3556D01*
X53010Y7492D02*
Y3556D01*
X55259Y7492D02*
X54884Y7304D01*
X54509Y6929D01*
X54322Y6555D01*
X54135Y5992D01*
Y5055D01*
X54322Y4493D01*
X54509Y4118D01*
X54884Y3743D01*
X55259Y3556D01*
X56009D01*
X56384Y3743D01*
X56759Y4118D01*
X56946Y4493D01*
X57134Y5055D01*
Y5992D01*
X56946Y6555D01*
X56759Y6929D01*
X56384Y7304D01*
X56009Y7492D01*
X55259D01*
X59364D02*
Y3556D01*
X58052Y7492D02*
X60676D01*
X62269D02*
X61894Y7304D01*
X61519Y6929D01*
X61332Y6555D01*
X61145Y5992D01*
Y5055D01*
X61332Y4493D01*
X61519Y4118D01*
X61894Y3743D01*
X62269Y3556D01*
X63019D01*
X63394Y3743D01*
X63769Y4118D01*
X63956Y4493D01*
X64144Y5055D01*
Y5992D01*
X63956Y6555D01*
X63769Y6929D01*
X63394Y7304D01*
X63019Y7492D01*
X62269D01*
X65062D02*
Y3556D01*
Y7492D02*
X66749D01*
X67311Y7304D01*
X67499Y7117D01*
X67686Y6742D01*
Y6367D01*
X67499Y5992D01*
X67311Y5805D01*
X66749Y5617D01*
X65062D01*
X66374D02*
X67686Y3556D01*
X74097Y7492D02*
X71660D01*
Y3556D01*
X74097D01*
X71660Y5617D02*
X73159D01*
X77377Y6929D02*
X77002Y7304D01*
X76439Y7492D01*
X75690D01*
X75127Y7304D01*
X74752Y6929D01*
Y6555D01*
X74940Y6180D01*
X75127Y5992D01*
X75502Y5805D01*
X76627Y5430D01*
X77002Y5243D01*
X77189Y5055D01*
X77377Y4680D01*
Y4118D01*
X77002Y3743D01*
X76439Y3556D01*
X75690D01*
X75127Y3743D01*
X74752Y4118D01*
X81069Y6555D02*
X80882Y6929D01*
X80507Y7304D01*
X80132Y7492D01*
X79382D01*
X79007Y7304D01*
X78632Y6929D01*
X78445Y6555D01*
X78258Y5992D01*
Y5055D01*
X78445Y4493D01*
X78632Y4118D01*
X79007Y3743D01*
X79382Y3556D01*
X80132D01*
X80507Y3743D01*
X80882Y4118D01*
X81069Y4493D01*
X19671Y30648D02*
Y30797D01*
X19821Y31097D01*
X19971Y31247D01*
X20271Y31397D01*
X20871D01*
X21171Y31247D01*
X21321Y31097D01*
X21471Y30797D01*
Y30498D01*
X21321Y30198D01*
X21021Y29748D01*
X19521Y28248D01*
X21621D01*
X1997Y18996D02*
X4696D01*
X9477Y18799D02*
X12176D01*
X10827Y17450D02*
Y20149D01*
X95472Y52095D02*
Y54794D01*
X94123Y46161D02*
X96822D01*
X95472Y44812D02*
Y47511D01*
Y4261D02*
Y6960D01*
X94123Y12894D02*
X96822D01*
X95472Y11544D02*
Y14243D01*
X94348Y20500D02*
X94048Y20200D01*
X93898Y19750D01*
Y19150D01*
X94048Y18700D01*
X94348Y18400D01*
X94648D01*
X94948Y18550D01*
X95098Y18700D01*
X95248Y19000D01*
X95547Y19900D01*
X95697Y20200D01*
X95847Y20350D01*
X96147Y20500D01*
X96597D01*
X96897Y20200D01*
X97047Y19750D01*
Y19150D01*
X96897Y18700D01*
X96597Y18400D01*
X94498Y21204D02*
X94348Y21504D01*
X93898Y21954D01*
X97047D01*
X94348Y38526D02*
X94048Y38226D01*
X93898Y37776D01*
Y37176D01*
X94048Y36726D01*
X94348Y36426D01*
X94648D01*
X94948Y36576D01*
X95098Y36726D01*
X95248Y37026D01*
X95547Y37926D01*
X95697Y38226D01*
X95847Y38376D01*
X96147Y38526D01*
X96597D01*
X96897Y38226D01*
X97047Y37776D01*
Y37176D01*
X96897Y36726D01*
X96597Y36426D01*
X94648Y39380D02*
X94498D01*
X94198Y39530D01*
X94048Y39680D01*
X93898Y39980D01*
Y40580D01*
X94048Y40880D01*
X94198Y41030D01*
X94498Y41180D01*
X94798D01*
X95098Y41030D01*
X95547Y40730D01*
X97047Y39230D01*
Y41330D01*
X21044Y50984D02*
X19545Y48885D01*
X21794D01*
X21044Y50984D02*
Y47835D01*
X19920Y40944D02*
X21569D01*
X20669Y39745D01*
X21119D01*
X21419Y39595D01*
X21569Y39445D01*
X21719Y38995D01*
Y38695D01*
X21569Y38245D01*
X21269Y37946D01*
X20819Y37796D01*
X20369D01*
X19920Y37946D01*
X19770Y38096D01*
X19620Y38395D01*
X20294Y20364D02*
X20594Y20514D01*
X21044Y20964D01*
Y17815D01*
D11*
X74803Y16929D02*
X79528D01*
X95866Y25591D02*
Y27953D01*
X95866Y31102D02*
Y33465D01*
M02*
