M48
;Layer_Color=9474304
;FILE_FORMAT=2:5
INCH,LZ
;TYPE=PLATED
T1F00S00C0.00787
T2F00S00C0.03937
%
T01
X0001772Y0001772
Y0005413
Y000935
Y0012992
Y0017224
Y0022736
Y0030315
Y0033957
Y0037106
X0002165Y0039071
X0001772Y0041043
X0004232Y0040063
X0006201
X0008169
Y0038087
X0006201
X0004232
X0010236Y0039079
X0010827Y0040846
X0010925Y0037205
X0013287Y0038386
X0015256Y003839
X0017224Y0038386
Y0032677
X0015256Y0032673
X0013287Y0032677
X0011909Y0029823
X0007579
X000935Y0016338
X000935Y0011712
X0011811Y0005512
X0012992Y0001772
X000935
X0005413
X0005906Y0005512
X0017224Y0001772
X0021161
X0025098
X002874
X0032677
X0036319
X0040551
X0044488
X0048425
X0052067
X0056004
X0059646
X0063878
X0067815
X0071752
X0075394
X0079331
X0082973
X0084646Y000427
X0087106Y0004232
Y0001809
X0089567Y0001772
Y0004232
Y0006988
X0087106
X007628Y0007087
X0078133Y001122
X0071859Y0010048
X0064468Y0007087
X0060532Y0007087
X0056595Y0007087
X0053051
X0049606Y0010039
X0043701
X0040846
X0037795
X0034945
X003189
X0033268Y0006988
X0036811
X0029035Y0007087
X0021161Y0007087
X0031496Y0016929
Y0020866
X0040059Y0020669
X0052756Y0023917
X0054921Y0030709
X0062205Y0034213
Y0036339
Y0038465
Y0040591
X0066732Y0039961
Y0037992
Y0036024
X0068701
Y0037992
Y0039961
X0066634Y0034055
X0073802Y003248
X0068701Y0024213
X0066732
Y0022244
Y0020276
X0068701
Y0022244
Y0018307
X0063583Y0016634
X0062008Y0018465
X0062008Y0020591
Y0022716
X0062008Y0024843
X0081299Y0046161
X0030109Y0044758
X0031496Y0042126
X0031594Y0038189
X0001772Y0047244
X0096653Y0045276
X0096636Y0037402
X0096653Y0029528
Y0021654
Y001378
Y0009449
X0094488
Y0006988
X0096653
Y0004232
X0094488
Y0001772
X0096653
X0092028
Y0004232
Y0006988
X0075394Y0057284
X0071752
X0067815
X0063878
X0059646
X0056004
X0052067
X0048425
X0044488
X0040551
X0036319
X0032677
X002874
X0025098
X0021161
X0017224
X0017323Y0054232
X0015354
Y0052264
X0017323
Y0050295
X0020768Y0052264
X0024508Y0049705
X0027893Y0050592
X0029742Y0049016
X0012992Y0057284
X000935
X0005413
X0001772
Y005315
X0003347Y0050098
T02
X0005Y0014528
X0015
X0025
Y0024528
Y0034528
Y0044528
M30
