%TF.GenerationSoftware,KiCad,Pcbnew,(6.0.0)*%
%TF.CreationDate,2022-08-21T23:10:39+12:00*%
%TF.ProjectId,TEST_FIXTURE,54455354-5f46-4495-9854-5552452e6b69,v1.0*%
%TF.SameCoordinates,Original*%
%TF.FileFunction,Paste,Top*%
%TF.FilePolarity,Positive*%
%FSLAX46Y46*%
G04 Gerber Fmt 4.6, Leading zero omitted, Abs format (unit mm)*
G04 Created by KiCad (PCBNEW (6.0.0)) date 2022-08-21 23:10:39*
%MOMM*%
%LPD*%
G01*
G04 APERTURE LIST*
G04 Aperture macros list*
%AMRoundRect*
0 Rectangle with rounded corners*
0 $1 Rounding radius*
0 $2 $3 $4 $5 $6 $7 $8 $9 X,Y pos of 4 corners*
0 Add a 4 corners polygon primitive as box body*
4,1,4,$2,$3,$4,$5,$6,$7,$8,$9,$2,$3,0*
0 Add four circle primitives for the rounded corners*
1,1,$1+$1,$2,$3*
1,1,$1+$1,$4,$5*
1,1,$1+$1,$6,$7*
1,1,$1+$1,$8,$9*
0 Add four rect primitives between the rounded corners*
20,1,$1+$1,$2,$3,$4,$5,0*
20,1,$1+$1,$4,$5,$6,$7,0*
20,1,$1+$1,$6,$7,$8,$9,0*
20,1,$1+$1,$8,$9,$2,$3,0*%
G04 Aperture macros list end*
%ADD10RoundRect,0.135000X-0.185000X0.135000X-0.185000X-0.135000X0.185000X-0.135000X0.185000X0.135000X0*%
%ADD11RoundRect,0.135000X0.185000X-0.135000X0.185000X0.135000X-0.185000X0.135000X-0.185000X-0.135000X0*%
%ADD12RoundRect,0.135000X0.135000X0.185000X-0.135000X0.185000X-0.135000X-0.185000X0.135000X-0.185000X0*%
%ADD13RoundRect,0.135000X-0.135000X-0.185000X0.135000X-0.185000X0.135000X0.185000X-0.135000X0.185000X0*%
%ADD14RoundRect,0.135000X0.226274X0.035355X0.035355X0.226274X-0.226274X-0.035355X-0.035355X-0.226274X0*%
G04 APERTURE END LIST*
D10*
%TO.C,R4*%
X198000000Y-138690000D03*
X198000000Y-139710000D03*
%TD*%
D11*
%TO.C,R8*%
X197300000Y-161410000D03*
X197300000Y-160390000D03*
%TD*%
%TO.C,R10*%
X199700000Y-161410000D03*
X199700000Y-160390000D03*
%TD*%
D10*
%TO.C,R3*%
X202000000Y-138690000D03*
X202000000Y-139710000D03*
%TD*%
%TO.C,R6*%
X189500000Y-138690000D03*
X189500000Y-139710000D03*
%TD*%
D11*
%TO.C,R7*%
X196100000Y-161410000D03*
X196100000Y-160390000D03*
%TD*%
D10*
%TO.C,R5*%
X193500000Y-138690000D03*
X193500000Y-139710000D03*
%TD*%
D11*
%TO.C,R9*%
X198500000Y-161410000D03*
X198500000Y-160390000D03*
%TD*%
%TO.C,R13*%
X202000000Y-161310000D03*
X202000000Y-160290000D03*
%TD*%
D12*
%TO.C,R18*%
X201790000Y-149900000D03*
X202810000Y-149900000D03*
%TD*%
D11*
%TO.C,R12*%
X188800000Y-161410000D03*
X188800000Y-160390000D03*
%TD*%
D13*
%TO.C,R15*%
X185490000Y-154000000D03*
X186510000Y-154000000D03*
%TD*%
D10*
%TO.C,R2*%
X206500000Y-138790000D03*
X206500000Y-139810000D03*
%TD*%
%TO.C,R1*%
X210500000Y-138890000D03*
X210500000Y-139910000D03*
%TD*%
%TO.C,R19*%
X199000000Y-152310000D03*
X199000000Y-151290000D03*
%TD*%
D14*
%TO.C,R16*%
X203239376Y-155839376D03*
X203960624Y-156560624D03*
%TD*%
D11*
%TO.C,R14*%
X210500000Y-161310000D03*
X210500000Y-160290000D03*
%TD*%
D12*
%TO.C,R20*%
X204490000Y-149500000D03*
X205510000Y-149500000D03*
%TD*%
%TO.C,R17*%
X206590000Y-154300000D03*
X207610000Y-154300000D03*
%TD*%
D11*
%TO.C,R11*%
X191300000Y-161410000D03*
X191300000Y-160390000D03*
%TD*%
M02*
