M48
; DRILL file {KiCad (6.0.0)} date Sun Aug 21 23:10:41 2022
; FORMAT={-:-/ absolute / metric / decimal}
; #@! TF.CreationDate,2022-08-21T23:10:41+12:00
; #@! TF.GenerationSoftware,Kicad,Pcbnew,(6.0.0)
; #@! TF.FileFunction,Plated,1,2,PTH
FMAT,2
METRIC
; #@! TA.AperFunction,Plated,PTH,ViaDrill
T1C0.400
; #@! TA.AperFunction,Plated,PTH,ComponentDrill
T2C1.000
; #@! TA.AperFunction,Plated,PTH,ComponentDrill
T3C1.750
; #@! TA.AperFunction,Plated,PTH,ComponentDrill
T4C3.000
%
G90
G05
T1
X159.5Y-135.2
X159.5Y-145.7
X159.5Y-176.3
X159.8Y-153.5
X160.3Y-164.6
X161.1Y-179.0
X162.5Y-125.1
X162.9Y-114.7
X163.7Y-153.1
X163.7Y-164.6
X163.8Y-135.5
X163.9Y-145.7
X163.9Y-176.5
X165.6Y-183.4
X167.1Y-135.5
X167.2Y-124.7
X167.2Y-164.6
X167.3Y-145.3
X167.4Y-153.8
X168.1Y-173.1
X168.9Y-185.2
X169.1Y-181.2
X169.6Y-114.8
X170.4Y-122.4
X170.5Y-135.3
X170.6Y-154.2
X170.6Y-163.3
X171.2Y-145.6
X171.2Y-177.9
X175.5Y-121.2
X176.5Y-127.8
X177.4Y-114.6
X180.6Y-178.3
X180.6Y-181.4
X180.9Y-185.2
X181.4Y-121.1
X181.5Y-127.4
X182.5Y-172.7
X183.1Y-134.9
X185.6Y-114.8
X185.7Y-146.2
X187.1Y-120.9
X187.7Y-127.1
X188.8Y-162.5
X188.9Y-151.7
X189.5Y-135.0
X191.2Y-177.9
X191.3Y-170.6
X192.7Y-114.8
X192.8Y-181.1
X193.1Y-185.5
X193.4Y-127.3
X193.7Y-160.6
X193.8Y-121.1
X195.4Y-173.8
X195.6Y-135.1
X195.8Y-183.6
X197.6Y-149.1
X198.9Y-156.9
X199.6Y-174.4
X199.8Y-169.4
X199.9Y-134.6
X200.2Y-126.9
X202.0Y-177.5
X204.5Y-134.6
X205.0Y-158.1
X205.7Y-166.8
X206.5Y-149.5
X207.2Y-115.2
X207.2Y-152.2
X207.5Y-126.6
X207.7Y-120.8
X207.8Y-146.3
X208.1Y-158.1
X208.3Y-135.0
X210.8Y-169.4
X213.2Y-164.7
X213.3Y-154.6
X213.5Y-127.0
X214.1Y-138.8
X214.2Y-115.7
X214.2Y-122.2
X218.5Y-145.2
X221.8Y-129.6
X222.5Y-116.5
X222.5Y-122.5
X222.8Y-149.4
X224.7Y-139.8
X229.5Y-125.1
X230.2Y-141.7
X230.3Y-132.0
X230.4Y-115.0
X233.2Y-120.9
X237.0Y-134.4
X237.2Y-130.4
X240.0Y-131.1
X240.1Y-121.2
X245.5Y-121.1
T2
X162.0Y-117.42
X162.0Y-119.96
X162.0Y-122.5
X162.0Y-127.42
X162.0Y-129.96
X162.0Y-132.5
X171.66Y-167.72
X171.66Y-170.26
X171.66Y-172.8
X174.2Y-167.72
X174.2Y-170.26
X174.2Y-172.8
X176.74Y-167.72
X176.74Y-170.26
X176.74Y-172.8
X179.28Y-167.72
X179.28Y-170.26
X179.28Y-172.8
T3
X188.77Y-157.81
X189.5Y-142.25
X191.0Y-154.0
X191.31Y-157.81
X193.5Y-142.25
X193.85Y-150.19
X193.85Y-152.73
X193.85Y-155.27
X193.85Y-157.81
X198.0Y-142.25
X199.0Y-154.25
X201.75Y-151.75
X201.75Y-154.25
X202.0Y-142.25
X202.0Y-157.5
X204.5Y-151.75
X204.5Y-154.25
X206.5Y-142.25
X210.5Y-142.25
X210.5Y-157.5
T4
X155.0Y-105.0
X155.0Y-150.0
X155.0Y-195.0
X165.5Y-110.0
X173.5Y-110.0
X181.5Y-110.0
X189.5Y-110.0
X200.0Y-105.0
X200.0Y-195.0
X210.5Y-110.0
X218.5Y-110.0
X226.5Y-110.0
X234.5Y-110.0
X245.0Y-105.0
X245.0Y-150.0
X245.0Y-195.0
T0
M30
