%TF.GenerationSoftware,KiCad,Pcbnew,(6.0.0)*%
%TF.CreationDate,2022-08-21T23:10:39+12:00*%
%TF.ProjectId,TEST_FIXTURE,54455354-5f46-4495-9854-5552452e6b69,v1.0*%
%TF.SameCoordinates,Original*%
%TF.FileFunction,Legend,Top*%
%TF.FilePolarity,Positive*%
%FSLAX46Y46*%
G04 Gerber Fmt 4.6, Leading zero omitted, Abs format (unit mm)*
G04 Created by KiCad (PCBNEW (6.0.0)) date 2022-08-21 23:10:39*
%MOMM*%
%LPD*%
G01*
G04 APERTURE LIST*
%ADD10C,0.200000*%
%ADD11C,0.120000*%
%ADD12C,0.150000*%
G04 APERTURE END LIST*
D10*
X212500000Y-159500000D02*
X212500000Y-140500000D01*
X187500000Y-140500000D02*
X212500000Y-140500000D01*
X187500000Y-159500000D02*
X187500000Y-140500000D01*
X187500000Y-159500000D02*
X212500000Y-159500000D01*
D11*
%TO.C,J5*%
X238730000Y-125595000D02*
X239365000Y-125595000D01*
X238730000Y-126230000D02*
X238730000Y-125595000D01*
D12*
%TO.C,R4*%
X198380000Y-139046359D02*
X198380000Y-139353641D01*
X197620000Y-139046359D02*
X197620000Y-139353641D01*
%TO.C,R8*%
X197680000Y-161053641D02*
X197680000Y-160746359D01*
X196920000Y-161053641D02*
X196920000Y-160746359D01*
%TO.C,R10*%
X199320000Y-161053641D02*
X199320000Y-160746359D01*
X200080000Y-161053641D02*
X200080000Y-160746359D01*
%TO.C,R3*%
X201620000Y-139046359D02*
X201620000Y-139353641D01*
X202380000Y-139046359D02*
X202380000Y-139353641D01*
%TO.C,R6*%
X189880000Y-139046359D02*
X189880000Y-139353641D01*
X189120000Y-139046359D02*
X189120000Y-139353641D01*
%TO.C,R7*%
X195720000Y-161053641D02*
X195720000Y-160746359D01*
X196480000Y-161053641D02*
X196480000Y-160746359D01*
%TO.C,R5*%
X193120000Y-139046359D02*
X193120000Y-139353641D01*
X193880000Y-139046359D02*
X193880000Y-139353641D01*
%TO.C,R9*%
X198880000Y-161053641D02*
X198880000Y-160746359D01*
X198120000Y-161053641D02*
X198120000Y-160746359D01*
%TO.C,R13*%
X201620000Y-160953641D02*
X201620000Y-160646359D01*
X202380000Y-160953641D02*
X202380000Y-160646359D01*
%TO.C,R18*%
X202453641Y-149520000D02*
X202146359Y-149520000D01*
X202453641Y-150280000D02*
X202146359Y-150280000D01*
%TO.C,R12*%
X189180000Y-161053641D02*
X189180000Y-160746359D01*
X188420000Y-161053641D02*
X188420000Y-160746359D01*
%TO.C,R15*%
X185846359Y-153620000D02*
X186153641Y-153620000D01*
X185846359Y-154380000D02*
X186153641Y-154380000D01*
%TO.C,R2*%
X206880000Y-139146359D02*
X206880000Y-139453641D01*
X206120000Y-139146359D02*
X206120000Y-139453641D01*
%TO.C,R1*%
X210880000Y-139246359D02*
X210880000Y-139553641D01*
X210120000Y-139246359D02*
X210120000Y-139553641D01*
%TO.C,R19*%
X198620000Y-151646359D02*
X198620000Y-151953641D01*
X199380000Y-151646359D02*
X199380000Y-151953641D01*
%TO.C,R16*%
X203977341Y-156039940D02*
X203760060Y-155822659D01*
X203439940Y-156577341D02*
X203222659Y-156360060D01*
%TO.C,R14*%
X210880000Y-160953641D02*
X210880000Y-160646359D01*
X210120000Y-160953641D02*
X210120000Y-160646359D01*
%TO.C,R20*%
X205153641Y-149120000D02*
X204846359Y-149120000D01*
X205153641Y-149880000D02*
X204846359Y-149880000D01*
%TO.C,R17*%
X207253641Y-153920000D02*
X206946359Y-153920000D01*
X207253641Y-154680000D02*
X206946359Y-154680000D01*
%TO.C,R11*%
X190920000Y-161053641D02*
X190920000Y-160746359D01*
X191680000Y-161053641D02*
X191680000Y-160746359D01*
%TD*%
M02*
