%TF.GenerationSoftware,KiCad,Pcbnew,(6.0.0)*%
%TF.CreationDate,2022-08-21T23:10:39+12:00*%
%TF.ProjectId,TEST_FIXTURE,54455354-5f46-4495-9854-5552452e6b69,v1.0*%
%TF.SameCoordinates,Original*%
%TF.FileFunction,Soldermask,Top*%
%TF.FilePolarity,Negative*%
%FSLAX46Y46*%
G04 Gerber Fmt 4.6, Leading zero omitted, Abs format (unit mm)*
G04 Created by KiCad (PCBNEW (6.0.0)) date 2022-08-21 23:10:39*
%MOMM*%
%LPD*%
G01*
G04 APERTURE LIST*
G04 Aperture macros list*
%AMRoundRect*
0 Rectangle with rounded corners*
0 $1 Rounding radius*
0 $2 $3 $4 $5 $6 $7 $8 $9 X,Y pos of 4 corners*
0 Add a 4 corners polygon primitive as box body*
4,1,4,$2,$3,$4,$5,$6,$7,$8,$9,$2,$3,0*
0 Add four circle primitives for the rounded corners*
1,1,$1+$1,$2,$3*
1,1,$1+$1,$4,$5*
1,1,$1+$1,$6,$7*
1,1,$1+$1,$8,$9*
0 Add four rect primitives between the rounded corners*
20,1,$1+$1,$2,$3,$4,$5,0*
20,1,$1+$1,$4,$5,$6,$7,0*
20,1,$1+$1,$6,$7,$8,$9,0*
20,1,$1+$1,$8,$9,$2,$3,0*%
G04 Aperture macros list end*
%ADD10C,3.400000*%
%ADD11C,6.000000*%
%ADD12O,1.700000X1.700000*%
%ADD13R,1.700000X1.700000*%
%ADD14C,2.374900*%
%ADD15C,0.990600*%
%ADD16C,0.787400*%
%ADD17O,2.750000X2.340000*%
%ADD18RoundRect,0.135000X-0.185000X0.135000X-0.185000X-0.135000X0.185000X-0.135000X0.185000X0.135000X0*%
%ADD19O,2.340000X2.750000*%
%ADD20RoundRect,0.135000X0.185000X-0.135000X0.185000X0.135000X-0.185000X0.135000X-0.185000X-0.135000X0*%
%ADD21O,2.750000X2.200000*%
%ADD22RoundRect,0.135000X0.135000X0.185000X-0.135000X0.185000X-0.135000X-0.185000X0.135000X-0.185000X0*%
%ADD23RoundRect,0.135000X-0.135000X-0.185000X0.135000X-0.185000X0.135000X0.185000X-0.135000X0.185000X0*%
%ADD24C,1.700000*%
%ADD25RoundRect,0.135000X0.226274X0.035355X0.035355X0.226274X-0.226274X-0.035355X-0.035355X-0.226274X0*%
G04 APERTURE END LIST*
D10*
%TO.C,H16*%
X234500000Y-110000000D03*
D11*
X234500000Y-110000000D03*
%TD*%
D10*
%TO.C,H15*%
X226500000Y-110000000D03*
D11*
X226500000Y-110000000D03*
%TD*%
D12*
%TO.C,J4*%
X162000000Y-127420000D03*
X162000000Y-129960000D03*
D13*
X162000000Y-132500000D03*
%TD*%
D12*
%TO.C,J3*%
X162000000Y-117420000D03*
X162000000Y-119960000D03*
D13*
X162000000Y-122500000D03*
%TD*%
D14*
%TO.C,J5*%
X237460000Y-124960000D03*
X242540000Y-124960000D03*
X242540000Y-128135000D03*
X237460000Y-128135000D03*
D15*
X241016000Y-130040000D03*
X238984000Y-130040000D03*
X240000000Y-124960000D03*
D16*
X239365000Y-126230000D03*
X240635000Y-126230000D03*
X239365000Y-127500000D03*
X240635000Y-127500000D03*
X239365000Y-128770000D03*
X240635000Y-128770000D03*
%TD*%
D10*
%TO.C,H14*%
X181500000Y-110000000D03*
D11*
X181500000Y-110000000D03*
%TD*%
D10*
%TO.C,H13*%
X165500000Y-110000000D03*
D11*
X165500000Y-110000000D03*
%TD*%
D10*
%TO.C,H12*%
X173500000Y-110000000D03*
D11*
X173500000Y-110000000D03*
%TD*%
D10*
%TO.C,H11*%
X189500000Y-110000000D03*
D11*
X189500000Y-110000000D03*
%TD*%
D10*
%TO.C,H10*%
X210500000Y-110000000D03*
D11*
X210500000Y-110000000D03*
%TD*%
D10*
%TO.C,H9*%
X218500000Y-110000000D03*
D11*
X218500000Y-110000000D03*
%TD*%
D17*
%TO.C,J13*%
X206500000Y-142250000D03*
%TD*%
D18*
%TO.C,R4*%
X198000000Y-138690000D03*
X198000000Y-139710000D03*
%TD*%
D17*
%TO.C,J14*%
X202000000Y-142250000D03*
%TD*%
%TO.C,J30*%
X199000000Y-154250000D03*
%TD*%
%TO.C,J15*%
X198000000Y-142250000D03*
%TD*%
%TO.C,J25*%
X210500000Y-157500000D03*
%TD*%
%TO.C,J21*%
X193850000Y-150190000D03*
%TD*%
D19*
%TO.C,J23*%
X188770000Y-157810000D03*
%TD*%
D20*
%TO.C,R8*%
X197300000Y-161410000D03*
X197300000Y-160390000D03*
%TD*%
D17*
%TO.C,J17*%
X189500000Y-142250000D03*
%TD*%
D10*
%TO.C,H8*%
X155000000Y-150000000D03*
D11*
X155000000Y-150000000D03*
%TD*%
D17*
%TO.C,J12*%
X210500000Y-142250000D03*
%TD*%
D21*
%TO.C,J28*%
X204500000Y-154250000D03*
%TD*%
D17*
%TO.C,J26*%
X191000000Y-154000000D03*
%TD*%
%TO.C,J19*%
X193850000Y-155270000D03*
%TD*%
D20*
%TO.C,R10*%
X199700000Y-161410000D03*
X199700000Y-160390000D03*
%TD*%
D11*
%TO.C,H2*%
X200000000Y-195000000D03*
D10*
X200000000Y-195000000D03*
%TD*%
D18*
%TO.C,R3*%
X202000000Y-138690000D03*
X202000000Y-139710000D03*
%TD*%
D19*
%TO.C,J27*%
X201750000Y-154455000D03*
%TD*%
D17*
%TO.C,J20*%
X193850000Y-152730000D03*
%TD*%
D21*
%TO.C,J29*%
X201750000Y-151750000D03*
%TD*%
D19*
%TO.C,J22*%
X191310000Y-157810000D03*
%TD*%
%TO.C,J31*%
X204500000Y-151545000D03*
%TD*%
D18*
%TO.C,R6*%
X189500000Y-138690000D03*
X189500000Y-139710000D03*
%TD*%
D20*
%TO.C,R7*%
X196100000Y-161410000D03*
X196100000Y-160390000D03*
%TD*%
D11*
%TO.C,H1*%
X155000000Y-195000000D03*
D10*
X155000000Y-195000000D03*
%TD*%
D18*
%TO.C,R5*%
X193500000Y-138690000D03*
X193500000Y-139710000D03*
%TD*%
D10*
%TO.C,H5*%
X245000000Y-105000000D03*
D11*
X245000000Y-105000000D03*
%TD*%
D20*
%TO.C,R9*%
X198500000Y-161410000D03*
X198500000Y-160390000D03*
%TD*%
D10*
%TO.C,H7*%
X155000000Y-105000000D03*
D11*
X155000000Y-105000000D03*
%TD*%
D20*
%TO.C,R13*%
X202000000Y-161310000D03*
X202000000Y-160290000D03*
%TD*%
D11*
%TO.C,H4*%
X245000000Y-150000000D03*
D10*
X245000000Y-150000000D03*
%TD*%
D22*
%TO.C,R18*%
X201790000Y-149900000D03*
X202810000Y-149900000D03*
%TD*%
D17*
%TO.C,J18*%
X194055000Y-157810000D03*
%TD*%
D20*
%TO.C,R12*%
X188800000Y-161410000D03*
X188800000Y-160390000D03*
%TD*%
D23*
%TO.C,R15*%
X185490000Y-154000000D03*
X186510000Y-154000000D03*
%TD*%
D24*
%TO.C,J1*%
X179280000Y-172800000D03*
D12*
X176740000Y-172800000D03*
X179280000Y-170260000D03*
X176740000Y-170260000D03*
X179280000Y-167720000D03*
X176740000Y-167720000D03*
%TD*%
D17*
%TO.C,J24*%
X202000000Y-157500000D03*
%TD*%
D11*
%TO.C,H6*%
X200000000Y-105000000D03*
D10*
X200000000Y-105000000D03*
%TD*%
D18*
%TO.C,R2*%
X206500000Y-138790000D03*
X206500000Y-139810000D03*
%TD*%
D17*
%TO.C,J16*%
X193500000Y-142250000D03*
%TD*%
D24*
%TO.C,J2*%
X174200000Y-172800000D03*
D12*
X171660000Y-172800000D03*
X174200000Y-170260000D03*
X171660000Y-170260000D03*
X174200000Y-167720000D03*
X171660000Y-167720000D03*
%TD*%
D18*
%TO.C,R1*%
X210500000Y-138890000D03*
X210500000Y-139910000D03*
%TD*%
%TO.C,R19*%
X199000000Y-152310000D03*
X199000000Y-151290000D03*
%TD*%
D25*
%TO.C,R16*%
X203239376Y-155839376D03*
X203960624Y-156560624D03*
%TD*%
D20*
%TO.C,R14*%
X210500000Y-161310000D03*
X210500000Y-160290000D03*
%TD*%
D22*
%TO.C,R20*%
X204490000Y-149500000D03*
X205510000Y-149500000D03*
%TD*%
%TO.C,R17*%
X206590000Y-154300000D03*
X207610000Y-154300000D03*
%TD*%
D11*
%TO.C,H3*%
X245000000Y-195000000D03*
D10*
X245000000Y-195000000D03*
%TD*%
D20*
%TO.C,R11*%
X191300000Y-161410000D03*
X191300000Y-160390000D03*
%TD*%
M02*
