%TF.GenerationSoftware,KiCad,Pcbnew,(6.0.0)*%
%TF.CreationDate,2022-08-21T23:10:39+12:00*%
%TF.ProjectId,TEST_FIXTURE,54455354-5f46-4495-9854-5552452e6b69,v1.0*%
%TF.SameCoordinates,Original*%
%TF.FileFunction,Soldermask,Bot*%
%TF.FilePolarity,Negative*%
%FSLAX46Y46*%
G04 Gerber Fmt 4.6, Leading zero omitted, Abs format (unit mm)*
G04 Created by KiCad (PCBNEW (6.0.0)) date 2022-08-21 23:10:39*
%MOMM*%
%LPD*%
G01*
G04 APERTURE LIST*
%ADD10C,3.400000*%
%ADD11C,6.000000*%
%ADD12O,1.700000X1.700000*%
%ADD13R,1.700000X1.700000*%
%ADD14C,2.374900*%
%ADD15C,0.990600*%
%ADD16O,2.750000X2.340000*%
%ADD17O,2.340000X2.750000*%
%ADD18O,2.750000X2.200000*%
%ADD19C,1.700000*%
G04 APERTURE END LIST*
D10*
%TO.C,H16*%
X234500000Y-110000000D03*
D11*
X234500000Y-110000000D03*
%TD*%
D10*
%TO.C,H15*%
X226500000Y-110000000D03*
D11*
X226500000Y-110000000D03*
%TD*%
D12*
%TO.C,J4*%
X162000000Y-127420000D03*
X162000000Y-129960000D03*
D13*
X162000000Y-132500000D03*
%TD*%
D12*
%TO.C,J3*%
X162000000Y-117420000D03*
X162000000Y-119960000D03*
D13*
X162000000Y-122500000D03*
%TD*%
D14*
%TO.C,J5*%
X237460000Y-124960000D03*
X242540000Y-124960000D03*
X242540000Y-128135000D03*
X237460000Y-128135000D03*
D15*
X241016000Y-130040000D03*
X238984000Y-130040000D03*
X240000000Y-124960000D03*
%TD*%
D10*
%TO.C,H14*%
X181500000Y-110000000D03*
D11*
X181500000Y-110000000D03*
%TD*%
D10*
%TO.C,H13*%
X165500000Y-110000000D03*
D11*
X165500000Y-110000000D03*
%TD*%
D10*
%TO.C,H12*%
X173500000Y-110000000D03*
D11*
X173500000Y-110000000D03*
%TD*%
D10*
%TO.C,H11*%
X189500000Y-110000000D03*
D11*
X189500000Y-110000000D03*
%TD*%
D10*
%TO.C,H10*%
X210500000Y-110000000D03*
D11*
X210500000Y-110000000D03*
%TD*%
D10*
%TO.C,H9*%
X218500000Y-110000000D03*
D11*
X218500000Y-110000000D03*
%TD*%
D16*
%TO.C,J13*%
X206500000Y-142250000D03*
%TD*%
%TO.C,J14*%
X202000000Y-142250000D03*
%TD*%
%TO.C,J30*%
X199000000Y-154250000D03*
%TD*%
%TO.C,J15*%
X198000000Y-142250000D03*
%TD*%
%TO.C,J25*%
X210500000Y-157500000D03*
%TD*%
%TO.C,J21*%
X193850000Y-150190000D03*
%TD*%
D17*
%TO.C,J23*%
X188770000Y-157810000D03*
%TD*%
D16*
%TO.C,J17*%
X189500000Y-142250000D03*
%TD*%
D11*
%TO.C,H8*%
X155000000Y-150000000D03*
D10*
X155000000Y-150000000D03*
%TD*%
D16*
%TO.C,J12*%
X210500000Y-142250000D03*
%TD*%
D18*
%TO.C,J28*%
X204500000Y-154250000D03*
%TD*%
D16*
%TO.C,J26*%
X191000000Y-154000000D03*
%TD*%
%TO.C,J19*%
X193850000Y-155270000D03*
%TD*%
D11*
%TO.C,H2*%
X200000000Y-195000000D03*
D10*
X200000000Y-195000000D03*
%TD*%
D17*
%TO.C,J27*%
X201750000Y-154455000D03*
%TD*%
D16*
%TO.C,J20*%
X193850000Y-152730000D03*
%TD*%
D18*
%TO.C,J29*%
X201750000Y-151750000D03*
%TD*%
D17*
%TO.C,J22*%
X191310000Y-157810000D03*
%TD*%
%TO.C,J31*%
X204500000Y-151545000D03*
%TD*%
D11*
%TO.C,H1*%
X155000000Y-195000000D03*
D10*
X155000000Y-195000000D03*
%TD*%
D11*
%TO.C,H5*%
X245000000Y-105000000D03*
D10*
X245000000Y-105000000D03*
%TD*%
%TO.C,H7*%
X155000000Y-105000000D03*
D11*
X155000000Y-105000000D03*
%TD*%
%TO.C,H4*%
X245000000Y-150000000D03*
D10*
X245000000Y-150000000D03*
%TD*%
D16*
%TO.C,J18*%
X194055000Y-157810000D03*
%TD*%
D19*
%TO.C,J1*%
X179280000Y-172800000D03*
D12*
X176740000Y-172800000D03*
X179280000Y-170260000D03*
X176740000Y-170260000D03*
X179280000Y-167720000D03*
X176740000Y-167720000D03*
%TD*%
D16*
%TO.C,J24*%
X202000000Y-157500000D03*
%TD*%
D11*
%TO.C,H6*%
X200000000Y-105000000D03*
D10*
X200000000Y-105000000D03*
%TD*%
D16*
%TO.C,J16*%
X193500000Y-142250000D03*
%TD*%
D19*
%TO.C,J2*%
X174200000Y-172800000D03*
D12*
X171660000Y-172800000D03*
X174200000Y-170260000D03*
X171660000Y-170260000D03*
X174200000Y-167720000D03*
X171660000Y-167720000D03*
%TD*%
D11*
%TO.C,H3*%
X245000000Y-195000000D03*
D10*
X245000000Y-195000000D03*
%TD*%
M02*
