M48
; DRILL file {KiCad (5.1.10)-1} date 11/07/21 17:05:51
; FORMAT={-:-/ absolute / metric / decimal}
; #@! TF.CreationDate,2021-11-07T17:05:51+13:00
; #@! TF.GenerationSoftware,Kicad,Pcbnew,(5.1.10)-1
; #@! TF.FileFunction,Plated,1,2,PTH
FMAT,2
METRIC
T1C0.300
T2C1.000
T3C1.750
%
G90
G05
T1
X101.5Y-54.525
X101.5Y-56.525
X101.5Y-58.525
X101.5Y-60.525
X101.5Y-62.525
X101.5Y-64.525
X101.5Y-66.525
X101.5Y-68.525
X101.5Y-70.525
X101.5Y-72.525
X101.5Y-74.525
X101.5Y-76.525
X101.5Y-78.525
X101.5Y-80.525
X101.5Y-82.525
X101.5Y-84.525
X101.5Y-86.525
X101.5Y-88.525
X101.5Y-90.525
X101.5Y-92.5
X101.5Y-94.5
X101.5Y-96.5
X101.5Y-98.5
X101.5Y-101.55
X101.5Y-103.55
X101.5Y-105.55
X101.5Y-107.55
X101.5Y-109.525
X101.5Y-111.525
X101.5Y-113.525
X101.5Y-115.525
X101.5Y-117.525
X101.5Y-119.525
X101.5Y-121.525
X101.5Y-123.525
X101.5Y-125.525
X101.5Y-127.525
X101.5Y-129.525
X101.5Y-131.525
X101.5Y-133.525
X101.5Y-135.525
X101.5Y-137.525
X101.5Y-139.525
X101.5Y-141.525
X101.5Y-143.525
X101.5Y-145.525
X102.85Y-147.025
X102.975Y-52.95
X104.475Y-51.5
X104.5Y-148.5
X106.475Y-51.5
X106.5Y-148.5
X108.475Y-51.5
X108.5Y-148.5
X110.475Y-51.5
X110.5Y-148.5
X112.475Y-51.5
X112.5Y-148.5
X114.475Y-51.5
X114.5Y-148.5
X116.475Y-51.5
X116.5Y-148.5
X118.475Y-51.5
X118.5Y-148.5
X120.475Y-51.5
X120.5Y-76.025
X120.5Y-148.5
X120.55Y-72.075
X121.975Y-68.35
X122.475Y-51.5
X122.5Y-148.5
X122.6Y-116.775
X122.725Y-125.275
X122.925Y-106.275
X122.975Y-98.25
X123.05Y-88.25
X123.075Y-62.725
X123.175Y-79.9
X123.55Y-132.675
X124.35Y-72.075
X124.425Y-68.375
X124.475Y-51.5
X124.475Y-75.975
X124.5Y-148.5
X125.95Y-62.75
X126.25Y-132.675
X126.375Y-90.675
X126.425Y-77.675
X126.475Y-51.5
X126.5Y-148.5
X127.1Y-68.4
X127.3Y-60.5
X127.375Y-54.0
X127.425Y-93.925
X127.45Y-102.15
X127.675Y-108.925
X127.9Y-124.6
X127.975Y-128.325
X128.0Y-117.35
X128.05Y-71.975
X128.05Y-75.95
X128.475Y-51.5
X128.5Y-148.5
X128.775Y-62.8
X129.675Y-87.7
X129.775Y-132.775
X129.85Y-68.4
X130.475Y-51.5
X130.5Y-148.5
X130.9Y-109.25
X130.925Y-113.275
X130.925Y-128.35
X131.0Y-124.55
X131.225Y-105.15
X131.825Y-75.95
X132.425Y-68.4
X132.475Y-51.5
X132.5Y-148.5
X132.55Y-84.85
X132.6Y-132.825
X132.975Y-117.35
X133.0Y-141.05
X133.3Y-102.65
X133.475Y-128.4
X133.525Y-105.475
X133.55Y-124.575
X134.475Y-51.5
X134.5Y-148.5
X134.65Y-83.45
X134.975Y-68.375
X135.025Y-139.2
X135.275Y-100.125
X135.45Y-114.775
X135.675Y-75.95
X135.825Y-94.025
X136.1Y-128.425
X136.125Y-124.525
X136.2Y-85.725
X136.475Y-51.5
X136.5Y-148.5
X136.975Y-97.475
X137.525Y-68.375
X138.25Y-79.975
X138.475Y-51.5
X138.5Y-148.5
X138.7Y-128.45
X138.725Y-124.625
X139.1Y-62.975
X140.1Y-81.825
X140.125Y-60.5
X140.175Y-54.025
X140.3Y-68.325
X140.475Y-51.5
X140.5Y-148.5
X140.925Y-128.375
X141.075Y-124.625
X141.5Y-93.95
X141.7Y-63.0
X141.8Y-105.025
X141.85Y-100.0
X141.85Y-102.6
X141.875Y-97.475
X142.2Y-132.7
X142.45Y-51.5
X142.475Y-148.5
X142.85Y-79.175
X142.9Y-68.325
X142.975Y-71.7
X143.125Y-75.8
X143.975Y-86.375
X144.45Y-51.5
X144.45Y-62.9
X144.475Y-148.5
X145.675Y-68.35
X146.1Y-102.55
X146.125Y-100.025
X146.15Y-97.5
X146.45Y-51.5
X146.475Y-148.5
X146.65Y-83.35
X146.8Y-71.775
X146.85Y-75.85
X147.65Y-90.05
X148.075Y-114.975
X148.275Y-134.675
X148.45Y-51.5
X148.475Y-148.5
X148.75Y-124.475
X149.2Y-107.45
X150.525Y-86.95
X151.125Y-92.6
X151.325Y-124.5
X151.5Y-51.5
X151.525Y-148.5
X152.075Y-97.425
X152.125Y-103.05
X153.5Y-51.5
X153.525Y-148.5
X153.725Y-83.725
X153.75Y-116.95
X153.825Y-124.45
X153.825Y-128.275
X154.1Y-130.7
X154.175Y-108.875
X154.425Y-88.8
X155.425Y-71.7
X155.5Y-51.5
X155.525Y-148.5
X155.675Y-76.275
X156.0Y-82.85
X156.0Y-83.775
X156.05Y-103.8
X156.2Y-118.975
X156.3Y-124.375
X156.35Y-128.275
X156.95Y-88.85
X157.5Y-51.5
X157.525Y-148.5
X157.55Y-82.85
X157.875Y-85.4
X158.1Y-95.65
X158.15Y-130.75
X158.4Y-68.35
X158.5Y-134.325
X158.6Y-77.75
X158.6Y-81.35
X158.7Y-71.95
X158.9Y-124.425
X158.925Y-83.75
X158.95Y-120.825
X158.975Y-128.375
X159.475Y-51.5
X159.5Y-148.5
X159.775Y-54.0
X159.8Y-60.5
X159.85Y-76.325
X160.825Y-84.7
X160.95Y-68.5
X161.075Y-88.925
X161.475Y-51.5
X161.5Y-148.5
X161.525Y-130.7
X161.775Y-124.375
X161.8Y-92.75
X162.075Y-95.65
X162.1Y-97.95
X162.125Y-100.025
X162.15Y-102.0
X162.15Y-104.425
X162.3Y-107.075
X162.4Y-72.1
X163.2Y-86.725
X163.225Y-76.4
X163.475Y-51.5
X163.5Y-68.55
X163.5Y-148.5
X164.2Y-129.875
X165.2Y-135.3
X165.375Y-78.675
X165.475Y-51.5
X165.5Y-148.5
X166.15Y-72.05
X166.25Y-76.1
X166.3Y-68.6
X167.3Y-80.725
X167.3Y-82.775
X167.375Y-84.75
X167.475Y-51.5
X167.475Y-135.275
X167.5Y-148.5
X167.925Y-92.225
X167.95Y-87.275
X168.8Y-68.5
X169.325Y-104.725
X169.475Y-51.5
X169.5Y-148.5
X169.8Y-71.9
X170.0Y-102.075
X170.025Y-96.05
X170.025Y-98.05
X170.025Y-100.075
X170.15Y-75.975
X170.85Y-79.0
X171.2Y-135.25
X171.475Y-51.5
X171.5Y-68.45
X171.5Y-148.5
X171.95Y-92.225
X172.175Y-87.25
X172.225Y-129.925
X172.25Y-80.725
X172.65Y-109.875
X172.675Y-83.275
X172.7Y-60.525
X172.725Y-54.0
X173.475Y-51.5
X173.5Y-148.5
X173.75Y-71.7
X173.95Y-75.95
X173.95Y-135.15
X174.2Y-127.45
X174.8Y-113.7
X175.475Y-51.5
X175.5Y-148.5
X176.025Y-105.4
X176.525Y-84.175
X176.55Y-81.675
X176.575Y-79.075
X176.575Y-88.35
X176.825Y-99.0
X176.825Y-103.0
X176.85Y-97.0
X176.85Y-101.025
X177.35Y-138.7
X177.475Y-51.5
X177.5Y-148.5
X177.7Y-71.75
X177.725Y-75.95
X178.2Y-142.15
X178.3Y-95.625
X179.45Y-92.425
X179.475Y-51.5
X179.5Y-148.5
X179.8Y-78.975
X179.85Y-109.125
X179.875Y-88.4
X179.975Y-129.825
X180.35Y-121.425
X180.45Y-135.5
X180.7Y-98.075
X181.475Y-51.5
X181.5Y-148.5
X183.275Y-79.15
X183.35Y-83.875
X183.35Y-88.3
X183.475Y-51.5
X183.5Y-148.5
X183.7Y-121.3
X183.875Y-137.375
X183.9Y-109.075
X184.05Y-97.25
X185.475Y-51.5
X185.5Y-148.5
X187.475Y-51.5
X187.5Y-148.5
X189.475Y-51.5
X189.5Y-148.5
X191.475Y-51.5
X191.5Y-148.5
X193.475Y-51.5
X193.5Y-148.5
X195.475Y-51.5
X195.5Y-148.5
X197.0Y-52.9
X197.175Y-146.975
X198.5Y-54.45
X198.5Y-56.45
X198.5Y-58.45
X198.5Y-60.45
X198.5Y-62.45
X198.5Y-64.45
X198.5Y-66.45
X198.5Y-68.45
X198.5Y-70.45
X198.5Y-72.45
X198.5Y-74.45
X198.5Y-76.45
X198.5Y-78.45
X198.5Y-80.45
X198.5Y-82.45
X198.5Y-84.45
X198.5Y-86.45
X198.5Y-88.45
X198.5Y-90.45
X198.5Y-92.425
X198.5Y-94.425
X198.5Y-96.425
X198.5Y-98.425
X198.5Y-101.475
X198.5Y-103.475
X198.5Y-105.475
X198.5Y-107.475
X198.5Y-109.45
X198.5Y-111.45
X198.5Y-113.45
X198.5Y-115.45
X198.5Y-117.45
X198.5Y-119.45
X198.5Y-121.45
X198.5Y-123.45
X198.5Y-125.45
X198.5Y-127.45
X198.5Y-129.45
X198.5Y-131.45
X198.5Y-133.45
X198.5Y-135.45
X198.5Y-137.45
X198.5Y-139.45
X198.5Y-141.45
X198.5Y-143.45
X198.5Y-145.45
T2
X122.55Y-74.0
X124.91Y-137.5
X126.275Y-74.0
X127.45Y-137.5
X130.0Y-74.0
X131.21Y-56.0
X131.21Y-58.54
X131.21Y-137.5
X132.215Y-111.4
X132.215Y-126.64
X133.75Y-56.0
X133.75Y-58.54
X133.75Y-74.0
X133.75Y-137.5
X134.755Y-111.4
X134.755Y-126.64
X136.29Y-56.0
X136.29Y-58.54
X136.29Y-137.5
X137.295Y-111.4
X137.295Y-126.64
X137.5Y-74.0
X139.42Y-115.165
X139.42Y-117.705
X139.42Y-120.245
X139.42Y-122.785
X139.835Y-111.4
X139.835Y-126.64
X140.1Y-137.5
X140.5Y-106.1
X141.225Y-74.0
X141.96Y-115.165
X141.96Y-117.705
X141.96Y-120.245
X141.96Y-122.785
X142.375Y-111.4
X142.375Y-126.64
X142.64Y-137.5
X143.875Y-93.15
X143.875Y-106.875
X144.5Y-115.165
X144.5Y-117.705
X144.5Y-120.245
X144.5Y-122.785
X144.915Y-111.4
X144.915Y-126.64
X144.95Y-74.0
X145.6Y-104.95
X146.415Y-93.15
X146.415Y-106.875
X147.1Y-104.95
X147.455Y-111.4
X147.455Y-126.64
X148.6Y-104.95
X149.995Y-111.4
X149.995Y-126.64
X150.1Y-104.95
X152.535Y-111.4
X152.535Y-126.64
X154.96Y-93.15
X154.96Y-106.85
X155.075Y-111.4
X155.075Y-126.64
X156.75Y-74.0
X157.41Y-137.5
X157.5Y-93.15
X157.5Y-106.85
X157.615Y-111.4
X157.615Y-126.64
X158.65Y-97.0
X158.65Y-99.0
X158.65Y-101.0
X158.65Y-103.0
X159.95Y-137.5
X160.0Y-94.25
X160.0Y-105.75
X160.155Y-111.4
X160.155Y-126.64
X160.25Y-97.625
X160.25Y-102.375
X160.55Y-74.0
X162.695Y-111.4
X162.695Y-126.64
X163.71Y-56.0
X163.71Y-58.54
X163.71Y-137.5
X164.35Y-74.0
X165.235Y-111.4
X165.235Y-126.64
X166.25Y-56.0
X166.25Y-58.54
X166.25Y-137.5
X167.775Y-111.4
X167.775Y-126.64
X168.15Y-74.0
X168.79Y-56.0
X168.79Y-58.54
X168.79Y-137.5
X171.95Y-74.0
X172.61Y-137.5
X175.15Y-137.5
X175.75Y-74.0
T3
X143.85Y-96.19
X143.85Y-98.73
X143.85Y-101.27
X143.85Y-103.81
T0
M30
