%TF.GenerationSoftware,KiCad,Pcbnew,(5.1.10)-1*%
%TF.CreationDate,2021-11-07T17:05:54+13:00*%
%TF.ProjectId,THE_BRAINS_FIXTURE,5448455f-4252-4414-994e-535f46495854,rev?*%
%TF.SameCoordinates,Original*%
%TF.FileFunction,Soldermask,Top*%
%TF.FilePolarity,Negative*%
%FSLAX46Y46*%
G04 Gerber Fmt 4.6, Leading zero omitted, Abs format (unit mm)*
G04 Created by KiCad (PCBNEW (5.1.10)-1) date 2021-11-07 17:05:54*
%MOMM*%
%LPD*%
G01*
G04 APERTURE LIST*
%ADD10O,1.700000X1.700000*%
%ADD11R,1.700000X1.700000*%
%ADD12C,3.000000*%
%ADD13C,6.000000*%
%ADD14C,3.200000*%
%ADD15C,1.700000*%
%ADD16O,1.800000X1.800000*%
%ADD17C,1.800000*%
%ADD18C,2.000000*%
%ADD19O,2.750000X2.340000*%
%ADD20O,2.000000X1.400000*%
%ADD21O,1.400000X2.000000*%
G04 APERTURE END LIST*
D10*
%TO.C,J33*%
X154960000Y-93150000D03*
D11*
X157500000Y-93150000D03*
%TD*%
%TO.C,J32*%
X157500000Y-106850000D03*
D10*
X154960000Y-106850000D03*
%TD*%
%TO.C,J31*%
X146415000Y-93150000D03*
D11*
X143875000Y-93150000D03*
%TD*%
%TO.C,J30*%
X143875000Y-106875000D03*
D10*
X146415000Y-106875000D03*
%TD*%
D12*
%TO.C,H5*%
X194975000Y-122200000D03*
%TD*%
%TO.C,H6*%
X194975000Y-115200000D03*
%TD*%
D13*
%TO.C,H1*%
X106500000Y-143500000D03*
%TD*%
%TO.C,H2*%
X193500000Y-143500000D03*
%TD*%
%TO.C,H3*%
X106500000Y-56500000D03*
%TD*%
%TO.C,H4*%
X193500000Y-56500000D03*
%TD*%
D12*
%TO.C,H5*%
X195000000Y-87250000D03*
%TD*%
%TO.C,H6*%
X195000000Y-80250000D03*
%TD*%
D14*
%TO.C,H9*%
X117500000Y-55000000D03*
%TD*%
%TO.C,H10*%
X150000000Y-55000000D03*
%TD*%
%TO.C,H11*%
X182500000Y-55000000D03*
%TD*%
%TO.C,H12*%
X195000000Y-67500000D03*
%TD*%
%TO.C,H13*%
X195000000Y-100000000D03*
%TD*%
%TO.C,H14*%
X195000000Y-132500000D03*
%TD*%
%TO.C,H15*%
X182500000Y-145000000D03*
%TD*%
%TO.C,H16*%
X150000000Y-145000000D03*
%TD*%
%TO.C,H17*%
X117500000Y-145000000D03*
%TD*%
%TO.C,H18*%
X105000000Y-132500000D03*
%TD*%
%TO.C,H19*%
X105000000Y-100000000D03*
%TD*%
%TO.C,H20*%
X105000000Y-67500000D03*
%TD*%
D10*
%TO.C,J1*%
X139420000Y-122785000D03*
X141960000Y-122785000D03*
D11*
X144500000Y-122785000D03*
%TD*%
%TO.C,J2*%
X144500000Y-120245000D03*
D10*
X141960000Y-120245000D03*
X139420000Y-120245000D03*
%TD*%
%TO.C,J3*%
X139420000Y-117705000D03*
X141960000Y-117705000D03*
D11*
X144500000Y-117705000D03*
%TD*%
%TO.C,J4*%
X144500000Y-115165000D03*
D10*
X141960000Y-115165000D03*
X139420000Y-115165000D03*
%TD*%
D15*
%TO.C,J19*%
X136290000Y-58540000D03*
X133750000Y-58540000D03*
X131210000Y-58540000D03*
X136290000Y-56000000D03*
X133750000Y-56000000D03*
G36*
G01*
X130610000Y-55150000D02*
X131810000Y-55150000D01*
G75*
G02*
X132060000Y-55400000I0J-250000D01*
G01*
X132060000Y-56600000D01*
G75*
G02*
X131810000Y-56850000I-250000J0D01*
G01*
X130610000Y-56850000D01*
G75*
G02*
X130360000Y-56600000I0J250000D01*
G01*
X130360000Y-55400000D01*
G75*
G02*
X130610000Y-55150000I250000J0D01*
G01*
G37*
%TD*%
%TO.C,J20*%
G36*
G01*
X163110000Y-55150000D02*
X164310000Y-55150000D01*
G75*
G02*
X164560000Y-55400000I0J-250000D01*
G01*
X164560000Y-56600000D01*
G75*
G02*
X164310000Y-56850000I-250000J0D01*
G01*
X163110000Y-56850000D01*
G75*
G02*
X162860000Y-56600000I0J250000D01*
G01*
X162860000Y-55400000D01*
G75*
G02*
X163110000Y-55150000I250000J0D01*
G01*
G37*
X166250000Y-56000000D03*
X168790000Y-56000000D03*
X163710000Y-58540000D03*
X166250000Y-58540000D03*
X168790000Y-58540000D03*
%TD*%
D16*
%TO.C,A1*%
X157615000Y-126640000D03*
X162695000Y-111400000D03*
X152535000Y-126640000D03*
X160155000Y-111400000D03*
D17*
X170315000Y-126640000D03*
D16*
X142375000Y-111400000D03*
X165235000Y-126640000D03*
X167775000Y-111400000D03*
X147455000Y-111400000D03*
D17*
X129675000Y-126640000D03*
D16*
X142375000Y-126640000D03*
X139835000Y-111400000D03*
X162695000Y-126640000D03*
X132215000Y-111400000D03*
X165235000Y-111400000D03*
X134755000Y-126640000D03*
D17*
X129675000Y-111400000D03*
X170315000Y-111400000D03*
D16*
X149995000Y-126640000D03*
X144915000Y-111400000D03*
D17*
X132215000Y-126640000D03*
D16*
X157615000Y-111400000D03*
X149995000Y-111400000D03*
X152535000Y-111400000D03*
X139835000Y-126640000D03*
X167775000Y-126640000D03*
X137295000Y-111400000D03*
X134755000Y-111400000D03*
X137295000Y-126640000D03*
X155075000Y-126640000D03*
X155075000Y-111400000D03*
X144915000Y-126640000D03*
X147455000Y-126640000D03*
X160155000Y-126640000D03*
%TD*%
D10*
%TO.C,J5*%
X136290000Y-137500000D03*
X133750000Y-137500000D03*
D11*
X131210000Y-137500000D03*
%TD*%
D10*
%TO.C,J6*%
X168790000Y-137500000D03*
X166250000Y-137500000D03*
D11*
X163710000Y-137500000D03*
%TD*%
%TO.C,J7*%
X140100000Y-137500000D03*
D10*
X142640000Y-137500000D03*
%TD*%
D11*
%TO.C,J8*%
X157410000Y-137500000D03*
D10*
X159950000Y-137500000D03*
%TD*%
%TO.C,J9*%
X175150000Y-137500000D03*
D11*
X172610000Y-137500000D03*
%TD*%
%TO.C,J10*%
X124910000Y-137500000D03*
D10*
X127450000Y-137500000D03*
%TD*%
D18*
%TO.C,TP10*%
X126275000Y-74000000D03*
%TD*%
%TO.C,TP11*%
X133750000Y-74000000D03*
%TD*%
%TO.C,TP12*%
X141225000Y-74000000D03*
%TD*%
%TO.C,TP13*%
X160550000Y-74000000D03*
%TD*%
%TO.C,TP14*%
X168150000Y-74000000D03*
%TD*%
%TO.C,TP15*%
X175750000Y-74000000D03*
%TD*%
%TO.C,TP26*%
X122550000Y-74000000D03*
%TD*%
%TO.C,TP27*%
X156750000Y-74000000D03*
%TD*%
%TO.C,TP28*%
X164350000Y-74000000D03*
%TD*%
%TO.C,TP29*%
X171950000Y-74000000D03*
%TD*%
%TO.C,J22*%
G36*
G01*
X159286396Y-96363604D02*
X159286396Y-96363604D01*
G75*
G02*
X159286396Y-97353554I-494975J-494975D01*
G01*
X159003554Y-97636396D01*
G75*
G02*
X158013604Y-97636396I-494975J494975D01*
G01*
X158013604Y-97636396D01*
G75*
G02*
X158013604Y-96646446I494975J494975D01*
G01*
X158296446Y-96363604D01*
G75*
G02*
X159286396Y-96363604I494975J-494975D01*
G01*
G37*
%TD*%
D19*
%TO.C,J11*%
X143850000Y-103810000D03*
%TD*%
%TO.C,J12*%
X143850000Y-101270000D03*
%TD*%
%TO.C,J13*%
X143850000Y-98730000D03*
%TD*%
%TO.C,J14*%
X143850000Y-96190000D03*
%TD*%
%TO.C,J15*%
G36*
G01*
X150600000Y-104083974D02*
X150600000Y-104083974D01*
G75*
G02*
X150795824Y-104814798I-267500J-463324D01*
G01*
X150330824Y-105620202D01*
G75*
G02*
X149600000Y-105816026I-463324J267500D01*
G01*
X149600000Y-105816026D01*
G75*
G02*
X149404176Y-105085202I267500J463324D01*
G01*
X149869176Y-104279798D01*
G75*
G02*
X150600000Y-104083974I463324J-267500D01*
G01*
G37*
%TD*%
%TO.C,J16*%
G36*
G01*
X149100000Y-104083974D02*
X149100000Y-104083974D01*
G75*
G02*
X149295824Y-104814798I-267500J-463324D01*
G01*
X148830824Y-105620202D01*
G75*
G02*
X148100000Y-105816026I-463324J267500D01*
G01*
X148100000Y-105816026D01*
G75*
G02*
X147904176Y-105085202I267500J463324D01*
G01*
X148369176Y-104279798D01*
G75*
G02*
X149100000Y-104083974I463324J-267500D01*
G01*
G37*
%TD*%
%TO.C,J17*%
G36*
G01*
X147600000Y-104083974D02*
X147600000Y-104083974D01*
G75*
G02*
X147795824Y-104814798I-267500J-463324D01*
G01*
X147330824Y-105620202D01*
G75*
G02*
X146600000Y-105816026I-463324J267500D01*
G01*
X146600000Y-105816026D01*
G75*
G02*
X146404176Y-105085202I267500J463324D01*
G01*
X146869176Y-104279798D01*
G75*
G02*
X147600000Y-104083974I463324J-267500D01*
G01*
G37*
%TD*%
%TO.C,J18*%
G36*
G01*
X146100000Y-104083974D02*
X146100000Y-104083974D01*
G75*
G02*
X146295824Y-104814798I-267500J-463324D01*
G01*
X145830824Y-105620202D01*
G75*
G02*
X145100000Y-105816026I-463324J267500D01*
G01*
X145100000Y-105816026D01*
G75*
G02*
X144904176Y-105085202I267500J463324D01*
G01*
X145369176Y-104279798D01*
G75*
G02*
X146100000Y-104083974I463324J-267500D01*
G01*
G37*
%TD*%
D20*
%TO.C,J21*%
X160000000Y-94250000D03*
%TD*%
%TO.C,J23*%
G36*
G01*
X159286396Y-98363604D02*
X159286396Y-98363604D01*
G75*
G02*
X159286396Y-99353554I-494975J-494975D01*
G01*
X159003554Y-99636396D01*
G75*
G02*
X158013604Y-99636396I-494975J494975D01*
G01*
X158013604Y-99636396D01*
G75*
G02*
X158013604Y-98646446I494975J494975D01*
G01*
X158296446Y-98363604D01*
G75*
G02*
X159286396Y-98363604I494975J-494975D01*
G01*
G37*
%TD*%
%TO.C,J24*%
G36*
G01*
X159286396Y-101636396D02*
X159286396Y-101636396D01*
G75*
G02*
X158296446Y-101636396I-494975J494975D01*
G01*
X158013604Y-101353554D01*
G75*
G02*
X158013604Y-100363604I494975J494975D01*
G01*
X158013604Y-100363604D01*
G75*
G02*
X159003554Y-100363604I494975J-494975D01*
G01*
X159286396Y-100646446D01*
G75*
G02*
X159286396Y-101636396I-494975J-494975D01*
G01*
G37*
%TD*%
%TO.C,J25*%
G36*
G01*
X159357107Y-103707107D02*
X159357107Y-103707107D01*
G75*
G02*
X158367157Y-103707107I-494975J494975D01*
G01*
X157942893Y-103282843D01*
G75*
G02*
X157942893Y-102292893I494975J494975D01*
G01*
X157942893Y-102292893D01*
G75*
G02*
X158932843Y-102292893I494975J-494975D01*
G01*
X159357107Y-102717157D01*
G75*
G02*
X159357107Y-103707107I-494975J-494975D01*
G01*
G37*
%TD*%
%TO.C,J26*%
X160000000Y-105750000D03*
%TD*%
D18*
%TO.C,TP1*%
X130000000Y-74000000D03*
%TD*%
%TO.C,TP2*%
X137500000Y-74000000D03*
%TD*%
%TO.C,TP4*%
X144950000Y-74000000D03*
%TD*%
D21*
%TO.C,J27*%
X140500000Y-106100000D03*
%TD*%
%TO.C,J28*%
G36*
G01*
X160863799Y-103033218D02*
X160863799Y-103033218D01*
G75*
G02*
X159888586Y-102999163I-470579J504634D01*
G01*
X159602146Y-102691995D01*
G75*
G02*
X159636201Y-101716782I504634J470579D01*
G01*
X159636201Y-101716782D01*
G75*
G02*
X160611414Y-101750837I470579J-504634D01*
G01*
X160897854Y-102058005D01*
G75*
G02*
X160863799Y-103033218I-504634J-470579D01*
G01*
G37*
%TD*%
%TO.C,J29*%
G36*
G01*
X160886396Y-96988604D02*
X160886396Y-96988604D01*
G75*
G02*
X160886396Y-97964412I-487904J-487904D01*
G01*
X160589412Y-98261396D01*
G75*
G02*
X159613604Y-98261396I-487904J487904D01*
G01*
X159613604Y-98261396D01*
G75*
G02*
X159613604Y-97285588I487904J487904D01*
G01*
X159910588Y-96988604D01*
G75*
G02*
X160886396Y-96988604I487904J-487904D01*
G01*
G37*
%TD*%
M02*
