M48
; DRILL file {KiCad (5.1.10)-1} date 11/07/21 17:05:51
; FORMAT={-:-/ absolute / metric / decimal}
; #@! TF.CreationDate,2021-11-07T17:05:51+13:00
; #@! TF.GenerationSoftware,Kicad,Pcbnew,(5.1.10)-1
; #@! TF.FileFunction,NonPlated,1,2,NPTH
FMAT,2
METRIC
T1C1.780
T2C1.800
T3C3.000
T4C3.200
T5C6.000
%
G90
G05
T1
X129.675Y-111.4
X129.675Y-126.64
X170.315Y-111.4
T2
X170.315Y-126.64
T3
X194.975Y-115.2
X194.975Y-122.2
X195.0Y-80.25
X195.0Y-87.25
T4
X105.0Y-67.5
X105.0Y-100.0
X105.0Y-132.5
X117.5Y-55.0
X117.5Y-145.0
X150.0Y-55.0
X150.0Y-145.0
X182.5Y-55.0
X182.5Y-145.0
X195.0Y-67.5
X195.0Y-100.0
X195.0Y-132.5
T5
X106.5Y-56.5
X106.5Y-143.5
X193.5Y-56.5
X193.5Y-143.5
T0
M30
