G04*
G04 #@! TF.GenerationSoftware,Altium Limited,Altium Designer,21.5.1 (32)*
G04*
G04 Layer_Physical_Order=1*
G04 Layer_Color=255*
%FSLAX25Y25*%
%MOIN*%
G70*
G04*
G04 #@! TF.SameCoordinates,46425C1A-2BEC-4B65-9795-0374EE0649E2*
G04*
G04*
G04 #@! TF.FilePolarity,Positive*
G04*
G01*
G75*
%ADD10C,0.00787*%
G04:AMPARAMS|DCode=12|XSize=53.15mil|YSize=70.87mil|CornerRadius=13.29mil|HoleSize=0mil|Usage=FLASHONLY|Rotation=270.000|XOffset=0mil|YOffset=0mil|HoleType=Round|Shape=RoundedRectangle|*
%AMROUNDEDRECTD12*
21,1,0.05315,0.04429,0,0,270.0*
21,1,0.02657,0.07087,0,0,270.0*
1,1,0.02657,-0.02215,-0.01329*
1,1,0.02657,-0.02215,0.01329*
1,1,0.02657,0.02215,0.01329*
1,1,0.02657,0.02215,-0.01329*
%
%ADD12ROUNDEDRECTD12*%
G04:AMPARAMS|DCode=13|XSize=23.62mil|YSize=25.59mil|CornerRadius=3.9mil|HoleSize=0mil|Usage=FLASHONLY|Rotation=180.000|XOffset=0mil|YOffset=0mil|HoleType=Round|Shape=RoundedRectangle|*
%AMROUNDEDRECTD13*
21,1,0.02362,0.01780,0,0,180.0*
21,1,0.01583,0.02559,0,0,180.0*
1,1,0.00780,-0.00791,0.00890*
1,1,0.00780,0.00791,0.00890*
1,1,0.00780,0.00791,-0.00890*
1,1,0.00780,-0.00791,-0.00890*
%
%ADD13ROUNDEDRECTD13*%
%ADD14C,0.03937*%
G04:AMPARAMS|DCode=15|XSize=23.62mil|YSize=25.59mil|CornerRadius=3.9mil|HoleSize=0mil|Usage=FLASHONLY|Rotation=90.000|XOffset=0mil|YOffset=0mil|HoleType=Round|Shape=RoundedRectangle|*
%AMROUNDEDRECTD15*
21,1,0.02362,0.01780,0,0,90.0*
21,1,0.01583,0.02559,0,0,90.0*
1,1,0.00780,0.00890,0.00791*
1,1,0.00780,0.00890,-0.00791*
1,1,0.00780,-0.00890,-0.00791*
1,1,0.00780,-0.00890,0.00791*
%
%ADD15ROUNDEDRECTD15*%
G04:AMPARAMS|DCode=16|XSize=57.09mil|YSize=45.28mil|CornerRadius=5.89mil|HoleSize=0mil|Usage=FLASHONLY|Rotation=180.000|XOffset=0mil|YOffset=0mil|HoleType=Round|Shape=RoundedRectangle|*
%AMROUNDEDRECTD16*
21,1,0.05709,0.03350,0,0,180.0*
21,1,0.04532,0.04528,0,0,180.0*
1,1,0.01177,-0.02266,0.01675*
1,1,0.01177,0.02266,0.01675*
1,1,0.01177,0.02266,-0.01675*
1,1,0.01177,-0.02266,-0.01675*
%
%ADD16ROUNDEDRECTD16*%
G04:AMPARAMS|DCode=17|XSize=37.4mil|YSize=37.4mil|CornerRadius=5.98mil|HoleSize=0mil|Usage=FLASHONLY|Rotation=180.000|XOffset=0mil|YOffset=0mil|HoleType=Round|Shape=RoundedRectangle|*
%AMROUNDEDRECTD17*
21,1,0.03740,0.02543,0,0,180.0*
21,1,0.02543,0.03740,0,0,180.0*
1,1,0.01197,-0.01272,0.01272*
1,1,0.01197,0.01272,0.01272*
1,1,0.01197,0.01272,-0.01272*
1,1,0.01197,-0.01272,-0.01272*
%
%ADD17ROUNDEDRECTD17*%
G04:AMPARAMS|DCode=18|XSize=11.81mil|YSize=55.12mil|CornerRadius=1.95mil|HoleSize=0mil|Usage=FLASHONLY|Rotation=270.000|XOffset=0mil|YOffset=0mil|HoleType=Round|Shape=RoundedRectangle|*
%AMROUNDEDRECTD18*
21,1,0.01181,0.05122,0,0,270.0*
21,1,0.00791,0.05512,0,0,270.0*
1,1,0.00390,-0.02561,-0.00396*
1,1,0.00390,-0.02561,0.00396*
1,1,0.00390,0.02561,0.00396*
1,1,0.00390,0.02561,-0.00396*
%
%ADD18ROUNDEDRECTD18*%
G04:AMPARAMS|DCode=21|XSize=27.56mil|YSize=25.59mil|CornerRadius=4.22mil|HoleSize=0mil|Usage=FLASHONLY|Rotation=0.000|XOffset=0mil|YOffset=0mil|HoleType=Round|Shape=RoundedRectangle|*
%AMROUNDEDRECTD21*
21,1,0.02756,0.01715,0,0,0.0*
21,1,0.01911,0.02559,0,0,0.0*
1,1,0.00845,0.00956,-0.00857*
1,1,0.00845,-0.00956,-0.00857*
1,1,0.00845,-0.00956,0.00857*
1,1,0.00845,0.00956,0.00857*
%
%ADD21ROUNDEDRECTD21*%
G04:AMPARAMS|DCode=22|XSize=11.81mil|YSize=55.12mil|CornerRadius=1.95mil|HoleSize=0mil|Usage=FLASHONLY|Rotation=180.000|XOffset=0mil|YOffset=0mil|HoleType=Round|Shape=RoundedRectangle|*
%AMROUNDEDRECTD22*
21,1,0.01181,0.05122,0,0,180.0*
21,1,0.00791,0.05512,0,0,180.0*
1,1,0.00390,-0.00396,0.02561*
1,1,0.00390,0.00396,0.02561*
1,1,0.00390,0.00396,-0.02561*
1,1,0.00390,-0.00396,-0.02561*
%
%ADD22ROUNDEDRECTD22*%
G04:AMPARAMS|DCode=23|XSize=31.5mil|YSize=31.5mil|CornerRadius=3.94mil|HoleSize=0mil|Usage=FLASHONLY|Rotation=270.000|XOffset=0mil|YOffset=0mil|HoleType=Round|Shape=RoundedRectangle|*
%AMROUNDEDRECTD23*
21,1,0.03150,0.02362,0,0,270.0*
21,1,0.02362,0.03150,0,0,270.0*
1,1,0.00787,-0.01181,-0.01181*
1,1,0.00787,-0.01181,0.01181*
1,1,0.00787,0.01181,0.01181*
1,1,0.00787,0.01181,-0.01181*
%
%ADD23ROUNDEDRECTD23*%
G04:AMPARAMS|DCode=42|XSize=13.78mil|YSize=33.47mil|CornerRadius=2.27mil|HoleSize=0mil|Usage=FLASHONLY|Rotation=180.000|XOffset=0mil|YOffset=0mil|HoleType=Round|Shape=RoundedRectangle|*
%AMROUNDEDRECTD42*
21,1,0.01378,0.02892,0,0,180.0*
21,1,0.00923,0.03347,0,0,180.0*
1,1,0.00455,-0.00462,0.01446*
1,1,0.00455,0.00462,0.01446*
1,1,0.00455,0.00462,-0.01446*
1,1,0.00455,-0.00462,-0.01446*
%
%ADD42ROUNDEDRECTD42*%
G04:AMPARAMS|DCode=43|XSize=40.16mil|YSize=62.99mil|CornerRadius=2.01mil|HoleSize=0mil|Usage=FLASHONLY|Rotation=90.000|XOffset=0mil|YOffset=0mil|HoleType=Round|Shape=RoundedRectangle|*
%AMROUNDEDRECTD43*
21,1,0.04016,0.05898,0,0,90.0*
21,1,0.03614,0.06299,0,0,90.0*
1,1,0.00402,0.02949,0.01807*
1,1,0.00402,0.02949,-0.01807*
1,1,0.00402,-0.02949,-0.01807*
1,1,0.00402,-0.02949,0.01807*
%
%ADD43ROUNDEDRECTD43*%
%ADD44C,0.01181*%
%ADD45C,0.07087*%
%ADD46C,0.01575*%
G36*
X97426Y58056D02*
Y1000D01*
X1000D01*
Y58056D01*
X97426Y58056D01*
D02*
G37*
%LPC*%
G36*
X79331Y56421D02*
X26772D01*
X26235Y56314D01*
X25781Y56010D01*
X25781Y56010D01*
X22639Y52868D01*
X22622Y52857D01*
X21356Y51591D01*
X21345Y51574D01*
X19765Y49994D01*
X19303Y50185D01*
Y55020D01*
X19242Y55325D01*
X19069Y55585D01*
X18810Y55758D01*
X18504Y55818D01*
X14272D01*
X13966Y55758D01*
X13872Y55695D01*
X13779Y55758D01*
X13473Y55818D01*
X3347D01*
X3041Y55758D01*
X2782Y55585D01*
X2609Y55325D01*
X2548Y55020D01*
Y51669D01*
X2609Y51364D01*
X2782Y51104D01*
X3041Y50931D01*
X3347Y50871D01*
X3500D01*
X3784Y50753D01*
X4001Y50536D01*
X4118Y50252D01*
Y50107D01*
X4134Y50029D01*
Y49951D01*
X4164Y49878D01*
X4179Y49801D01*
X4223Y49736D01*
X4253Y49663D01*
X4309Y49607D01*
X4352Y49542D01*
X4385Y49520D01*
X4490Y49363D01*
X4535Y49138D01*
Y47516D01*
X4490Y47291D01*
X4408Y47167D01*
X4284Y47084D01*
X4059Y47040D01*
X3051D01*
X2746Y46979D01*
X2486Y46806D01*
X2313Y46547D01*
X2252Y46241D01*
Y42355D01*
X2253Y42351D01*
X2252Y42346D01*
X2284Y42198D01*
X2313Y42050D01*
X2316Y42046D01*
X2317Y42041D01*
X2517Y41572D01*
X2603Y41446D01*
X2687Y41321D01*
X2691Y41318D01*
X2693Y41314D01*
X2820Y41232D01*
X2946Y41147D01*
X2951Y41146D01*
X2955Y41144D01*
X3052Y41126D01*
X3376Y40909D01*
X3771Y40831D01*
X4694D01*
X5088Y40909D01*
X5217Y40995D01*
X5345Y40909D01*
X5739Y40831D01*
X6662D01*
X7057Y40909D01*
X7185Y40995D01*
X7313Y40909D01*
X7708Y40831D01*
X8631D01*
X9025Y40909D01*
X9241Y41053D01*
X9354Y41030D01*
X9398Y41012D01*
X9477Y41012D01*
X9554Y40997D01*
X9631Y41012D01*
X9710Y41012D01*
X9783Y41042D01*
X9860Y41057D01*
X9925Y41101D01*
X9998Y41131D01*
X10054Y41187D01*
X10119Y41230D01*
X10389Y41501D01*
X10673Y41618D01*
X10980D01*
X11264Y41501D01*
X11481Y41284D01*
X11591Y41018D01*
Y40943D01*
X11599Y40905D01*
Y40534D01*
X11614Y40457D01*
Y40378D01*
X11644Y40306D01*
X11660Y40228D01*
X11703Y40163D01*
X11733Y40090D01*
X11853Y39911D01*
X11909Y39855D01*
X11953Y39790D01*
X12018Y39746D01*
X12074Y39690D01*
X12147Y39660D01*
X12212Y39616D01*
X12289Y39601D01*
X12362Y39571D01*
X12440D01*
X12518Y39555D01*
X12932D01*
X12990Y39544D01*
X17522D01*
X17580Y39555D01*
X18481D01*
Y32467D01*
X18471Y32442D01*
X18360Y32309D01*
X18013Y32088D01*
X18001Y32086D01*
X17981Y32089D01*
X17844Y32062D01*
X17706Y32040D01*
X17691Y32032D01*
X17675Y32028D01*
X17397Y31913D01*
X17052D01*
X16761Y32033D01*
X16548Y32176D01*
X16548Y32176D01*
X16242Y32237D01*
X16242D01*
X15936Y32176D01*
X15807Y32089D01*
X15714Y32027D01*
X15438Y31913D01*
X15074D01*
X14798Y32027D01*
X14575Y32176D01*
X14270Y32237D01*
X13964Y32176D01*
X13751Y32033D01*
X13441Y31905D01*
X13134D01*
X12850Y32023D01*
X12633Y32240D01*
X12515Y32524D01*
Y32831D01*
X12532Y32871D01*
X12547Y32948D01*
X12577Y33021D01*
Y33100D01*
X12593Y33177D01*
X12577Y33254D01*
Y33333D01*
X12547Y33405D01*
X12532Y33483D01*
X12488Y33548D01*
X12458Y33621D01*
X12450Y33633D01*
X12390Y33935D01*
Y35398D01*
X12375Y35475D01*
Y35553D01*
X12345Y35626D01*
X12329Y35703D01*
X12286Y35769D01*
X12255Y35841D01*
X12200Y35897D01*
X12156Y35962D01*
X12091Y36006D01*
X12035Y36062D01*
X11681Y36298D01*
X11609Y36328D01*
X11543Y36372D01*
X11466Y36387D01*
X11394Y36417D01*
X11315D01*
X11238Y36433D01*
X10772D01*
X10488Y36550D01*
X10165Y36873D01*
X10155Y36889D01*
X10122Y36911D01*
X10097Y36941D01*
X9993Y36996D01*
X9895Y37062D01*
X9857Y37069D01*
X9822Y37088D01*
X9765Y37105D01*
X9726Y37109D01*
X9689Y37124D01*
X9572D01*
X9455Y37136D01*
X9417Y37124D01*
X9378D01*
X9240Y37097D01*
X9025Y37241D01*
X8631Y37319D01*
X7708D01*
X7313Y37241D01*
X7185Y37155D01*
X7057Y37241D01*
X6662Y37319D01*
X5739D01*
X5345Y37241D01*
X5010Y37017D01*
X4787Y36683D01*
X4709Y36288D01*
Y33397D01*
X4787Y33002D01*
X4919Y32805D01*
Y31836D01*
X2596Y29513D01*
X2336Y29123D01*
X2245Y28664D01*
Y28045D01*
X1906Y27818D01*
X1647Y27430D01*
X1556Y26972D01*
Y25390D01*
X1647Y24932D01*
X1906Y24544D01*
X2294Y24285D01*
X2752Y24194D01*
X3932D01*
X5493Y22633D01*
Y21453D01*
X5584Y20995D01*
X5843Y20607D01*
X6231Y20348D01*
X6689Y20257D01*
X8468D01*
X8926Y20348D01*
X9314Y20607D01*
X9574Y20995D01*
X9665Y21453D01*
Y23035D01*
X9739Y23098D01*
X9812Y23128D01*
X9889Y23143D01*
X9954Y23187D01*
X10027Y23217D01*
X10283Y23388D01*
X10508Y23433D01*
X12130D01*
X12355Y23388D01*
X12603Y23222D01*
X12616Y23210D01*
X12652Y23194D01*
X12683Y23169D01*
X12795Y23135D01*
X12904Y23090D01*
X12943Y23090D01*
X12981Y23079D01*
X13059Y23087D01*
X13112Y23079D01*
X13516Y22767D01*
X13559Y22700D01*
Y21661D01*
X13667Y21122D01*
X13972Y20665D01*
X14013Y20638D01*
X14167Y20085D01*
X14118Y20012D01*
X13863Y19631D01*
X13757Y19094D01*
Y18895D01*
X13752Y18848D01*
X13735Y18764D01*
X13718Y18707D01*
X13704Y18675D01*
X13702Y18673D01*
X13658Y18655D01*
X13637Y18642D01*
X13330Y18560D01*
X12343Y17990D01*
X11538Y17184D01*
X10968Y16198D01*
X10673Y15097D01*
Y13958D01*
X10968Y12857D01*
X11538Y11871D01*
X12343Y11065D01*
X13330Y10496D01*
X14430Y10201D01*
X15570D01*
X16670Y10496D01*
X17657Y11065D01*
X18175Y11583D01*
X18817Y11521D01*
X18891Y11411D01*
X27159Y3143D01*
X27613Y2840D01*
X28150Y2733D01*
X28150Y2733D01*
X79331D01*
X79867Y2840D01*
X80321Y3143D01*
X86651Y9473D01*
X86959Y9411D01*
X91388D01*
X92212Y9575D01*
X92911Y10042D01*
X93377Y10741D01*
X93541Y11565D01*
Y14222D01*
X93377Y15047D01*
X92911Y15745D01*
X92212Y16212D01*
X91868Y16281D01*
Y16790D01*
X92212Y16859D01*
X92911Y17326D01*
X93377Y18024D01*
X93541Y18848D01*
Y21506D01*
X93377Y22330D01*
X92911Y23029D01*
X92212Y23496D01*
X91388Y23660D01*
X86959D01*
X86134Y23496D01*
X85460Y23045D01*
X85324Y23073D01*
X84960Y23216D01*
Y24461D01*
X85194Y24621D01*
X85316Y24670D01*
X85447Y24691D01*
X85761Y24482D01*
X86221Y24390D01*
X88583D01*
X89042Y24482D01*
X89431Y24742D01*
X89692Y25131D01*
X89783Y25591D01*
Y27953D01*
X89692Y28412D01*
X89431Y28801D01*
X89042Y29062D01*
X88583Y29153D01*
X86221D01*
X85761Y29062D01*
X85553Y28923D01*
X85548Y28921D01*
X85539Y28913D01*
X85414Y28829D01*
X85031Y28887D01*
X84871Y28993D01*
X84869Y29005D01*
X84763Y29163D01*
X84651Y29528D01*
X84763Y29892D01*
X84869Y30050D01*
X84871Y30062D01*
X85031Y30168D01*
X85414Y30226D01*
X85539Y30142D01*
X85548Y30134D01*
X85553Y30132D01*
X85761Y29994D01*
X86221Y29902D01*
X88583D01*
X89042Y29994D01*
X89431Y30254D01*
X89692Y30643D01*
X89783Y31102D01*
Y33465D01*
X89692Y33924D01*
X89431Y34313D01*
X89042Y34573D01*
X88583Y34665D01*
X86221D01*
X85761Y34573D01*
X85447Y34364D01*
X85316Y34385D01*
X85194Y34435D01*
X84960Y34594D01*
Y35839D01*
X85324Y35982D01*
X85460Y36010D01*
X86134Y35560D01*
X86959Y35396D01*
X91388D01*
X92212Y35560D01*
X92911Y36026D01*
X93377Y36725D01*
X93541Y37549D01*
Y40207D01*
X93377Y41031D01*
X92911Y41730D01*
X92212Y42196D01*
X91868Y42265D01*
Y42775D01*
X92212Y42843D01*
X92911Y43310D01*
X93377Y44008D01*
X93541Y44833D01*
Y47490D01*
X93377Y48314D01*
X92911Y49013D01*
X92212Y49480D01*
X91388Y49644D01*
X86959D01*
X86733Y49599D01*
X80321Y56010D01*
X79867Y56314D01*
X79331Y56421D01*
D02*
G37*
G36*
X12173Y8264D02*
X11449D01*
X10749Y8076D01*
X10121Y7714D01*
X9609Y7202D01*
X9247Y6574D01*
X9059Y5874D01*
Y5150D01*
X9247Y4450D01*
X9609Y3822D01*
X10121Y3310D01*
X10749Y2947D01*
X11449Y2760D01*
X12173D01*
X12873Y2947D01*
X13501Y3310D01*
X14013Y3822D01*
X14375Y4450D01*
X14563Y5150D01*
Y5874D01*
X14375Y6574D01*
X14013Y7202D01*
X13501Y7714D01*
X12873Y8076D01*
X12173Y8264D01*
D02*
G37*
%LPD*%
G36*
X68428Y49977D02*
X68131Y49579D01*
X67915Y49621D01*
X67124D01*
X66742Y49546D01*
X66535Y49407D01*
X66329Y49546D01*
X65947Y49621D01*
X65156D01*
X64774Y49546D01*
X64567Y49407D01*
X64360Y49546D01*
X63978Y49621D01*
X63187D01*
X62805Y49546D01*
X62598Y49407D01*
X62392Y49546D01*
X62010Y49621D01*
X61219D01*
X60837Y49546D01*
X60630Y49407D01*
X60423Y49546D01*
X60041Y49621D01*
X59250D01*
X58868Y49546D01*
X58661Y49407D01*
X58455Y49546D01*
X58073Y49621D01*
X57282D01*
X56900Y49546D01*
X56693Y49407D01*
X56486Y49546D01*
X56104Y49621D01*
X55313D01*
X54931Y49546D01*
X54724Y49407D01*
X54518Y49546D01*
X54136Y49621D01*
X53345D01*
X52963Y49546D01*
X52639Y49329D01*
X52423Y49006D01*
X52347Y48624D01*
Y43502D01*
X52423Y43120D01*
X52540Y42945D01*
Y41823D01*
X52631Y41364D01*
X52891Y40974D01*
X60340Y33525D01*
X60730Y33265D01*
X60980Y33215D01*
X61315Y32881D01*
X61892Y32642D01*
X62517D01*
X63095Y32881D01*
X63536Y33323D01*
X63776Y33900D01*
Y34525D01*
X63536Y35102D01*
X63363Y35276D01*
X63536Y35449D01*
X63776Y36026D01*
Y36651D01*
X63536Y37228D01*
X63363Y37402D01*
X63536Y37575D01*
X63776Y38152D01*
Y38777D01*
X63536Y39354D01*
X63363Y39528D01*
X63536Y39701D01*
X63776Y40278D01*
Y40903D01*
X63536Y41480D01*
X63095Y41922D01*
X63023Y41952D01*
X62917Y42290D01*
X62961Y42519D01*
X63014Y42539D01*
X63187Y42505D01*
X63978D01*
X64360Y42580D01*
X64567Y42719D01*
X64774Y42580D01*
X65156Y42505D01*
X65947D01*
X66329Y42580D01*
X66535Y42719D01*
X66742Y42580D01*
X67124Y42505D01*
X67915D01*
X67928Y42507D01*
X68379Y42257D01*
X68639Y41868D01*
X70500Y40007D01*
Y36666D01*
X65448Y31614D01*
X60340D01*
X49911Y42042D01*
X50102Y42505D01*
X50199D01*
X50581Y42580D01*
X50904Y42797D01*
X51120Y43120D01*
X51196Y43502D01*
Y48624D01*
X51120Y49006D01*
X50921Y49304D01*
Y49346D01*
X50855Y49678D01*
X51136Y50178D01*
X68275D01*
X68428Y49977D01*
D02*
G37*
G36*
X18504Y48344D02*
X18481Y48228D01*
Y46260D01*
X15359D01*
X15136Y46760D01*
X15282Y46979D01*
X15373Y47437D01*
Y49216D01*
X15282Y49674D01*
X15023Y50062D01*
X14635Y50322D01*
X14272Y50394D01*
Y55020D01*
X18504D01*
Y48344D01*
D02*
G37*
G36*
X84817Y47552D02*
X84805Y47490D01*
Y44833D01*
X84807Y44823D01*
X84357Y44523D01*
X84222Y44613D01*
X83764Y44704D01*
X81984D01*
X81526Y44613D01*
X81138Y44354D01*
X80879Y43966D01*
X80788Y43508D01*
Y41925D01*
X80823Y41750D01*
X80625Y41601D01*
X80362Y41502D01*
X80108Y41672D01*
X79726Y41747D01*
X76012D01*
X75821Y42209D01*
X76242Y42631D01*
X76503Y43020D01*
X76594Y43480D01*
Y44058D01*
X76643Y44068D01*
X77031Y44327D01*
X77290Y44715D01*
X77381Y45173D01*
Y46953D01*
X77290Y47411D01*
X77031Y47799D01*
X76643Y48058D01*
X76185Y48149D01*
X74602D01*
X74145Y48058D01*
X73756Y47799D01*
X73497Y47411D01*
X73406Y46953D01*
Y45173D01*
X73497Y44715D01*
X73756Y44327D01*
X73805Y44295D01*
X73869Y43652D01*
X73271Y43054D01*
X72810Y43300D01*
X72850Y43502D01*
Y48624D01*
X72774Y49006D01*
X72558Y49329D01*
X72409Y49429D01*
X72365Y49652D01*
X72105Y50041D01*
X69919Y52227D01*
X69530Y52487D01*
X69070Y52578D01*
X28846D01*
X28387Y52487D01*
X27997Y52227D01*
X27934Y52163D01*
X27580D01*
X27003Y51924D01*
X26561Y51482D01*
X26322Y50905D01*
Y50280D01*
X26561Y49702D01*
X27003Y49260D01*
X27580Y49021D01*
X28171D01*
Y48704D01*
X28411Y48126D01*
X28852Y47684D01*
X29430Y47445D01*
X30055D01*
X30632Y47684D01*
X31074Y48126D01*
X31273Y48607D01*
X32412D01*
X32462Y48107D01*
X32215Y48058D01*
X31827Y47799D01*
X31568Y47411D01*
X31477Y46953D01*
Y45173D01*
X31568Y44715D01*
X31765Y44421D01*
X31793Y44165D01*
X31513Y43697D01*
X31184D01*
X30606Y43458D01*
X30164Y43016D01*
X30047Y42732D01*
X29463Y42608D01*
X29070Y43001D01*
X29327Y43958D01*
Y45097D01*
X29032Y46198D01*
X28462Y47184D01*
X27657Y47990D01*
X26670Y48559D01*
X25570Y48854D01*
X24430D01*
X23330Y48559D01*
X22549Y48108D01*
X22242Y48509D01*
X23337Y49604D01*
X23348Y49621D01*
X24592Y50864D01*
X24609Y50876D01*
X27352Y53619D01*
X78750D01*
X84817Y47552D01*
D02*
G37*
G36*
X76106Y44792D02*
X76039Y44768D01*
X75980Y44728D01*
X75929Y44672D01*
X75886Y44600D01*
X75850Y44512D01*
X75823Y44408D01*
X75803Y44288D01*
X75791Y44153D01*
X75787Y44001D01*
X75000D01*
X74996Y44153D01*
X74984Y44288D01*
X74965Y44408D01*
X74937Y44512D01*
X74902Y44600D01*
X74858Y44672D01*
X74807Y44728D01*
X74748Y44768D01*
X74681Y44792D01*
X74606Y44800D01*
X76181D01*
X76106Y44792D01*
D02*
G37*
G36*
X48410Y43777D02*
X48193Y43420D01*
X47936Y43322D01*
X39328D01*
X39298Y43474D01*
X39039Y43862D01*
X38651Y44121D01*
X38193Y44212D01*
X36610D01*
X36152Y44121D01*
X35764Y43862D01*
X35315Y44081D01*
X35152Y44313D01*
X35164Y44421D01*
X35361Y44715D01*
X35452Y45173D01*
Y46953D01*
X35361Y47411D01*
X35102Y47799D01*
X34714Y48058D01*
X34468Y48107D01*
X34517Y48607D01*
X40532D01*
Y48068D01*
X40483Y48058D01*
X40095Y47799D01*
X39836Y47411D01*
X39745Y46953D01*
Y45173D01*
X39836Y44715D01*
X40095Y44327D01*
X40483Y44068D01*
X40941Y43977D01*
X42524D01*
X42981Y44068D01*
X43369Y44327D01*
X43629Y44715D01*
X43720Y45173D01*
Y46953D01*
X43629Y47411D01*
X43369Y47799D01*
X42981Y48058D01*
X42933Y48068D01*
Y48607D01*
X48410D01*
Y43777D01*
D02*
G37*
G36*
X34177Y44792D02*
X34110Y44768D01*
X34051Y44728D01*
X34000Y44672D01*
X33957Y44600D01*
X33921Y44512D01*
X33894Y44408D01*
X33874Y44288D01*
X33862Y44153D01*
X33861Y44094D01*
X33862Y44036D01*
X33874Y43900D01*
X33894Y43781D01*
X33921Y43677D01*
X33957Y43589D01*
X34000Y43517D01*
X34051Y43461D01*
X34110Y43421D01*
X34177Y43397D01*
X34252Y43389D01*
X32677D01*
X32752Y43397D01*
X32819Y43421D01*
X32878Y43461D01*
X32929Y43517D01*
X32972Y43589D01*
X33008Y43677D01*
X33035Y43781D01*
X33055Y43900D01*
X33067Y44036D01*
X33068Y44094D01*
X33067Y44153D01*
X33055Y44288D01*
X33035Y44408D01*
X33008Y44512D01*
X32972Y44600D01*
X32929Y44672D01*
X32878Y44728D01*
X32819Y44768D01*
X32752Y44792D01*
X32677Y44800D01*
X34252D01*
X34177Y44792D01*
D02*
G37*
G36*
X69997Y43345D02*
X69973Y43317D01*
X69951Y43279D01*
X69933Y43231D01*
X69917Y43171D01*
X69905Y43101D01*
X69895Y43021D01*
X69883Y42829D01*
X69882Y42717D01*
X69095D01*
X69093Y42829D01*
X69072Y43101D01*
X69059Y43171D01*
X69043Y43231D01*
X69025Y43279D01*
X69004Y43317D01*
X68980Y43345D01*
X68953Y43362D01*
X70024D01*
X69997Y43345D01*
D02*
G37*
G36*
X32300Y42555D02*
X32346Y42545D01*
X32413Y42534D01*
X32487Y42526D01*
X32650Y42520D01*
Y41732D01*
X32566Y41731D01*
X32413Y41718D01*
X32346Y41707D01*
X32300Y41697D01*
Y41339D01*
X32292Y41413D01*
X32268Y41480D01*
X32228Y41539D01*
X32172Y41591D01*
X32119Y41623D01*
X32092Y41605D01*
X32058Y41575D01*
Y41651D01*
X32012Y41669D01*
X31908Y41697D01*
X31789Y41717D01*
X31653Y41728D01*
X31501Y41732D01*
Y42520D01*
X31653Y42524D01*
X31789Y42535D01*
X31908Y42555D01*
X32012Y42583D01*
X32058Y42601D01*
Y42677D01*
X32092Y42647D01*
X32119Y42629D01*
X32172Y42661D01*
X32228Y42713D01*
X32268Y42772D01*
X32292Y42839D01*
X32300Y42913D01*
Y42555D01*
D02*
G37*
G36*
X84140Y42963D02*
X84158Y42915D01*
X84190Y42872D01*
X84237Y42836D01*
X84298Y42804D01*
X84374Y42779D01*
X84465Y42759D01*
X84571Y42745D01*
X84691Y42737D01*
X84825Y42734D01*
Y41946D01*
X84679Y41944D01*
X84430Y41921D01*
X84329Y41902D01*
X84242Y41877D01*
X84170Y41847D01*
X84114Y41811D01*
X84072Y41770D01*
X84045Y41723D01*
X84033Y41670D01*
X84137Y43016D01*
X84140Y42963D01*
D02*
G37*
G36*
X85925Y41802D02*
X86174Y41597D01*
X86286Y41524D01*
X86388Y41470D01*
X86482Y41437D01*
X86567Y41423D01*
X86644Y41428D01*
X86712Y41453D01*
X86771Y41498D01*
X85667Y40395D01*
X85712Y40454D01*
X85737Y40521D01*
X85743Y40598D01*
X85729Y40683D01*
X85695Y40777D01*
X85641Y40880D01*
X85568Y40991D01*
X85475Y41111D01*
X85363Y41240D01*
X85231Y41378D01*
X85788Y41934D01*
X85925Y41802D01*
D02*
G37*
G36*
X13473Y50394D02*
X13488Y50317D01*
Y50238D01*
X13518Y50165D01*
X13534Y50088D01*
X13577Y50023D01*
X13608Y49950D01*
X13663Y49894D01*
X13707Y49829D01*
X13772Y49785D01*
X13828Y49730D01*
X13901Y49700D01*
X13966Y49656D01*
X14043Y49641D01*
X14116Y49610D01*
X14323Y49569D01*
X14447Y49487D01*
X14530Y49363D01*
X14575Y49138D01*
Y47516D01*
X14530Y47291D01*
X14471Y47204D01*
X14437Y47121D01*
X14390Y47046D01*
X14378Y46979D01*
X14352Y46916D01*
Y46826D01*
X14337Y46738D01*
X14352Y46672D01*
Y46604D01*
X14386Y46522D01*
X14406Y46435D01*
X14629Y45935D01*
X14713Y45816D01*
X14794Y45695D01*
X14803Y45689D01*
X14809Y45680D01*
X14932Y45603D01*
X15053Y45522D01*
X15064Y45520D01*
X15073Y45514D01*
X15216Y45489D01*
X15359Y45461D01*
X18481D01*
Y40354D01*
X12518D01*
X12398Y40534D01*
Y41159D01*
X12158Y41736D01*
X11717Y42178D01*
X11139Y42417D01*
X10514D01*
X9937Y42178D01*
X9554Y41795D01*
X9534Y41809D01*
X9150Y41885D01*
X7693D01*
Y44753D01*
X7615Y45147D01*
X7391Y45482D01*
X7057Y45705D01*
X6662Y45784D01*
X5739D01*
X5345Y45705D01*
X5010Y45482D01*
X4787Y45147D01*
X4709Y44753D01*
Y41885D01*
X3252D01*
X3051Y42355D01*
Y46241D01*
X4138D01*
X4596Y46332D01*
X4984Y46591D01*
X5243Y46979D01*
X5334Y47437D01*
Y49216D01*
X5243Y49674D01*
X4984Y50062D01*
X4917Y50107D01*
Y50411D01*
X4678Y50988D01*
X4236Y51430D01*
X3659Y51669D01*
X3347D01*
Y55020D01*
X13473D01*
Y50394D01*
D02*
G37*
G36*
X38114Y40855D02*
X38047Y40831D01*
X37988Y40791D01*
X37937Y40735D01*
X37894Y40663D01*
X37858Y40575D01*
X37831Y40471D01*
X37811Y40351D01*
X37799Y40216D01*
X37798Y40157D01*
X37799Y40099D01*
X37811Y39963D01*
X37831Y39844D01*
X37858Y39740D01*
X37894Y39652D01*
X37937Y39580D01*
X37988Y39524D01*
X38047Y39484D01*
X38114Y39460D01*
X38189Y39452D01*
X36614D01*
X36689Y39460D01*
X36756Y39484D01*
X36815Y39524D01*
X36866Y39580D01*
X36909Y39652D01*
X36945Y39740D01*
X36972Y39844D01*
X36992Y39963D01*
X37004Y40099D01*
X37005Y40157D01*
X37004Y40216D01*
X36992Y40351D01*
X36972Y40471D01*
X36945Y40575D01*
X36909Y40663D01*
X36866Y40735D01*
X36815Y40791D01*
X36756Y40831D01*
X36689Y40855D01*
X36614Y40863D01*
X38189D01*
X38114Y40855D01*
D02*
G37*
G36*
X32300Y38650D02*
X32326Y38639D01*
X32382Y38622D01*
X32444Y38608D01*
X32512Y38597D01*
X32585Y38589D01*
X32749Y38583D01*
Y37795D01*
X32664Y37794D01*
X32512Y37781D01*
X32444Y37770D01*
X32382Y37756D01*
X32326Y37739D01*
X32300Y37728D01*
Y37495D01*
X32293Y37552D01*
X32272Y37603D01*
X32237Y37648D01*
X32202Y37676D01*
X32190Y37668D01*
X32157Y37638D01*
Y37703D01*
X32124Y37720D01*
X32046Y37747D01*
X31954Y37768D01*
X31848Y37783D01*
X31729Y37792D01*
X31594Y37795D01*
Y38583D01*
X31729Y38586D01*
X31848Y38595D01*
X31954Y38610D01*
X32046Y38631D01*
X32124Y38658D01*
X32157Y38675D01*
Y38740D01*
X32190Y38710D01*
X32202Y38702D01*
X32237Y38730D01*
X32272Y38775D01*
X32293Y38826D01*
X32300Y38882D01*
Y38650D01*
D02*
G37*
G36*
X79885Y38895D02*
X79919Y38870D01*
X79967Y38849D01*
X80030Y38831D01*
X80107Y38815D01*
X80199Y38802D01*
X80426Y38785D01*
X80712Y38780D01*
Y37992D01*
X80562Y37991D01*
X80107Y37957D01*
X80030Y37941D01*
X79967Y37923D01*
X79919Y37901D01*
X79885Y37877D01*
X79866Y37850D01*
Y38921D01*
X79885Y38895D01*
D02*
G37*
G36*
X81712Y37716D02*
X81670Y37768D01*
X81617Y37815D01*
X81553Y37857D01*
X81479Y37893D01*
X81395Y37923D01*
X81299Y37948D01*
X81193Y37967D01*
X81077Y37981D01*
X80949Y37989D01*
X80812Y37992D01*
Y38780D01*
X80968Y38783D01*
X81108Y38795D01*
X81231Y38815D01*
X81336Y38842D01*
X81425Y38878D01*
X81496Y38921D01*
X81551Y38972D01*
X81588Y39031D01*
X81608Y39098D01*
X81611Y39173D01*
X81712Y37716D01*
D02*
G37*
G36*
X79885Y36926D02*
X79919Y36902D01*
X79967Y36881D01*
X80030Y36862D01*
X80107Y36847D01*
X80199Y36834D01*
X80426Y36817D01*
X80712Y36811D01*
Y36024D01*
X80562Y36022D01*
X80107Y35988D01*
X80030Y35972D01*
X79967Y35954D01*
X79919Y35933D01*
X79885Y35909D01*
X79866Y35882D01*
Y36953D01*
X79885Y36926D01*
D02*
G37*
G36*
X41394Y33913D02*
X41374Y33940D01*
X41341Y33964D01*
X41293Y33986D01*
X41230Y34004D01*
X41153Y34020D01*
X41061Y34032D01*
X40834Y34049D01*
X40548Y34055D01*
Y34843D01*
X40698Y34844D01*
X41153Y34878D01*
X41230Y34894D01*
X41293Y34912D01*
X41341Y34933D01*
X41374Y34958D01*
X41394Y34984D01*
Y33913D01*
D02*
G37*
G36*
X38945Y35160D02*
X38970Y35093D01*
X39012Y35034D01*
X39070Y34983D01*
X39145Y34940D01*
X39235Y34905D01*
X39342Y34878D01*
X39465Y34858D01*
X39604Y34846D01*
X39760Y34843D01*
Y34055D01*
X39607Y34051D01*
X39470Y34039D01*
X39349Y34020D01*
X39245Y33992D01*
X39157Y33957D01*
X39085Y33913D01*
X39030Y33862D01*
X38990Y33803D01*
X38967Y33736D01*
X38960Y33661D01*
X38935Y35234D01*
X38945Y35160D01*
D02*
G37*
G36*
X41394Y31945D02*
X41377Y31972D01*
X41349Y31996D01*
X41311Y32017D01*
X41262Y32035D01*
X41203Y32051D01*
X41133Y32064D01*
X41052Y32074D01*
X40860Y32085D01*
X40748Y32087D01*
Y32874D01*
X40860Y32875D01*
X41133Y32897D01*
X41203Y32910D01*
X41262Y32925D01*
X41311Y32943D01*
X41349Y32965D01*
X41377Y32989D01*
X41394Y33016D01*
Y31945D01*
D02*
G37*
G36*
X85945Y30827D02*
X85895Y30892D01*
X85836Y30950D01*
X85768Y31002D01*
X85691Y31047D01*
X85605Y31084D01*
X85511Y31115D01*
X85407Y31139D01*
X85295Y31156D01*
X85174Y31166D01*
X85044Y31170D01*
Y31957D01*
X85201Y31961D01*
X85340Y31973D01*
X85463Y31993D01*
X85568Y32020D01*
X85657Y32056D01*
X85728Y32099D01*
X85782Y32150D01*
X85820Y32209D01*
X85840Y32276D01*
X85843Y32351D01*
X85945Y30827D01*
D02*
G37*
G36*
X28554Y34101D02*
X28627Y33292D01*
X28689Y32932D01*
X28768Y32600D01*
X28863Y32298D01*
X28975Y32025D01*
X29104Y31781D01*
X29250Y31566D01*
X29412Y31381D01*
X28855Y30824D01*
X28670Y30983D01*
X28462Y31114D01*
X28231Y31216D01*
X27976Y31289D01*
X27699Y31333D01*
X27400Y31348D01*
X27077Y31334D01*
X26731Y31292D01*
X26362Y31220D01*
X25971Y31120D01*
X28543Y34550D01*
X28554Y34101D01*
D02*
G37*
G36*
X84048Y32271D02*
X84078Y32205D01*
X84126Y32147D01*
X84191Y32097D01*
X84272Y32054D01*
X84371Y32019D01*
X84487Y31992D01*
X84620Y31973D01*
X84769Y31961D01*
X84936Y31957D01*
Y31170D01*
X84780Y31166D01*
X84640Y31154D01*
X84518Y31135D01*
X84412Y31107D01*
X84324Y31071D01*
X84253Y31028D01*
X84198Y30977D01*
X84161Y30918D01*
X84140Y30851D01*
X84137Y30776D01*
X84034Y32344D01*
X84048Y32271D01*
D02*
G37*
G36*
X38919Y32084D02*
X38944Y32029D01*
X38985Y31981D01*
X39040Y31939D01*
X39112Y31903D01*
X39198Y31874D01*
X39299Y31851D01*
X39417Y31835D01*
X39549Y31825D01*
X39696Y31822D01*
Y31035D01*
X39554Y31032D01*
X39428Y31022D01*
X39316Y31005D01*
X39220Y30982D01*
X39138Y30952D01*
X39072Y30916D01*
X39022Y30873D01*
X38986Y30823D01*
X38966Y30767D01*
X38960Y30705D01*
X38909Y32146D01*
X38919Y32084D01*
D02*
G37*
G36*
X31906Y30315D02*
X31898Y30390D01*
X31874Y30457D01*
X31834Y30516D01*
X31778Y30567D01*
X31706Y30610D01*
X31618Y30646D01*
X31514Y30673D01*
X31394Y30693D01*
X31258Y30705D01*
X31106Y30709D01*
Y31496D01*
X31258Y31500D01*
X31394Y31512D01*
X31514Y31532D01*
X31618Y31559D01*
X31706Y31594D01*
X31778Y31638D01*
X31834Y31689D01*
X31874Y31748D01*
X31898Y31815D01*
X31906Y31890D01*
Y30315D01*
D02*
G37*
G36*
X29412Y27674D02*
X29250Y27489D01*
X29104Y27274D01*
X28975Y27030D01*
X28863Y26757D01*
X28768Y26455D01*
X28689Y26123D01*
X28627Y25763D01*
X28583Y25373D01*
X28543Y24506D01*
X25971Y27935D01*
X26362Y27835D01*
X26731Y27763D01*
X27077Y27721D01*
X27400Y27707D01*
X27699Y27722D01*
X27976Y27766D01*
X28231Y27839D01*
X28462Y27941D01*
X28670Y28072D01*
X28855Y28231D01*
X29412Y27674D01*
D02*
G37*
G36*
X31906Y27165D02*
X31898Y27240D01*
X31874Y27307D01*
X31834Y27366D01*
X31778Y27417D01*
X31706Y27461D01*
X31618Y27496D01*
X31514Y27524D01*
X31394Y27543D01*
X31258Y27555D01*
X31106Y27559D01*
Y28346D01*
X31258Y28350D01*
X31394Y28362D01*
X31514Y28382D01*
X31618Y28409D01*
X31706Y28445D01*
X31778Y28488D01*
X31834Y28539D01*
X31874Y28598D01*
X31898Y28665D01*
X31906Y28740D01*
Y27165D01*
D02*
G37*
G36*
X84140Y28204D02*
X84161Y28137D01*
X84198Y28078D01*
X84253Y28027D01*
X84324Y27984D01*
X84412Y27948D01*
X84518Y27921D01*
X84640Y27901D01*
X84780Y27889D01*
X84936Y27885D01*
Y27098D01*
X84769Y27094D01*
X84620Y27082D01*
X84487Y27063D01*
X84371Y27036D01*
X84272Y27001D01*
X84191Y26959D01*
X84126Y26908D01*
X84078Y26850D01*
X84048Y26784D01*
X84034Y26711D01*
X84137Y28279D01*
X84140Y28204D01*
D02*
G37*
G36*
X85843Y26704D02*
X85840Y26779D01*
X85820Y26846D01*
X85782Y26905D01*
X85728Y26956D01*
X85657Y26999D01*
X85568Y27035D01*
X85463Y27062D01*
X85340Y27082D01*
X85201Y27094D01*
X85044Y27098D01*
Y27885D01*
X85174Y27889D01*
X85295Y27899D01*
X85407Y27916D01*
X85511Y27940D01*
X85605Y27971D01*
X85691Y28009D01*
X85768Y28053D01*
X85836Y28105D01*
X85895Y28163D01*
X85945Y28228D01*
X85843Y26704D01*
D02*
G37*
G36*
X9590Y36323D02*
X9594Y36315D01*
X10035Y35873D01*
X10613Y35634D01*
X11238D01*
X11591Y35398D01*
Y33856D01*
X11698Y33321D01*
X11794Y33177D01*
X11716Y32990D01*
Y32365D01*
X11956Y31787D01*
X12398Y31345D01*
X12975Y31106D01*
X13600D01*
X14177Y31345D01*
X14270Y31438D01*
X14366Y31341D01*
X14943Y31102D01*
X15568D01*
X16146Y31341D01*
X16242Y31438D01*
X16335Y31345D01*
X16912Y31106D01*
X17537D01*
X17981Y31290D01*
X18481Y31059D01*
Y25736D01*
X18324Y25652D01*
X17981Y25520D01*
X17512Y25614D01*
X14968D01*
X14429Y25506D01*
X13972Y25201D01*
X13667Y24744D01*
X13559Y24205D01*
Y24025D01*
X13059Y23874D01*
X13055Y23881D01*
X12666Y24141D01*
X12209Y24232D01*
X10429D01*
X9971Y24141D01*
X9583Y23881D01*
X9314D01*
X8926Y24141D01*
X8468Y24232D01*
X7289D01*
X5728Y25793D01*
Y26972D01*
X5637Y27430D01*
X5377Y27818D01*
X5153Y27968D01*
X5039Y28464D01*
X5053Y28575D01*
X6968Y30490D01*
X7228Y30879D01*
X7319Y31339D01*
Y32620D01*
X7391Y32668D01*
X7615Y33002D01*
X7693Y33397D01*
Y36264D01*
X9150D01*
X9534Y36341D01*
X9590Y36323D01*
D02*
G37*
G36*
X40465Y23826D02*
X40612Y23415D01*
X40536Y23033D01*
Y22242D01*
X40612Y21860D01*
X40828Y21537D01*
X41152Y21320D01*
X41533Y21245D01*
X46655D01*
X47037Y21320D01*
X47110Y21369D01*
X47619Y20861D01*
Y20231D01*
X47119Y19964D01*
X47037Y20018D01*
X46655Y20094D01*
X41533D01*
X41152Y20018D01*
X40977Y19901D01*
X40945D01*
X40486Y19810D01*
X40096Y19549D01*
X39196Y18649D01*
X39039Y18665D01*
X38651Y18924D01*
X38193Y19015D01*
X37037D01*
X36873Y19155D01*
X35631Y20397D01*
X35519Y20518D01*
X35452Y20601D01*
Y21756D01*
X35361Y22214D01*
X35157Y22519D01*
X35141Y22636D01*
X35318Y22859D01*
X35774Y23077D01*
X36172Y22810D01*
X36643Y22716D01*
X38554D01*
X39025Y22810D01*
X39423Y23077D01*
X39690Y23475D01*
X39773Y23895D01*
X39956Y23970D01*
X40465Y23826D01*
D02*
G37*
G36*
X79885Y23146D02*
X79919Y23122D01*
X79967Y23101D01*
X80030Y23083D01*
X80107Y23067D01*
X80199Y23054D01*
X80426Y23037D01*
X80712Y23031D01*
Y22244D01*
X80562Y22243D01*
X80107Y22209D01*
X80030Y22193D01*
X79967Y22174D01*
X79919Y22153D01*
X79885Y22129D01*
X79866Y22102D01*
Y23173D01*
X79885Y23146D01*
D02*
G37*
G36*
X32300Y21295D02*
X32346Y21285D01*
X32413Y21274D01*
X32487Y21266D01*
X32650Y21260D01*
Y20472D01*
X32566Y20471D01*
X32413Y20458D01*
X32346Y20447D01*
X32300Y20437D01*
Y20079D01*
X32292Y20154D01*
X32268Y20221D01*
X32228Y20279D01*
X32172Y20331D01*
X32119Y20363D01*
X32092Y20345D01*
X32058Y20315D01*
Y20391D01*
X32012Y20410D01*
X31908Y20437D01*
X31789Y20457D01*
X31653Y20469D01*
X31501Y20472D01*
Y21260D01*
X31653Y21264D01*
X31789Y21276D01*
X31908Y21295D01*
X32012Y21323D01*
X32058Y21341D01*
Y21417D01*
X32092Y21387D01*
X32119Y21369D01*
X32172Y21402D01*
X32228Y21453D01*
X32268Y21512D01*
X32292Y21579D01*
X32300Y21654D01*
Y21295D01*
D02*
G37*
G36*
X79885Y21178D02*
X79919Y21154D01*
X79967Y21133D01*
X80030Y21114D01*
X80107Y21099D01*
X80199Y21086D01*
X80426Y21069D01*
X80712Y21063D01*
Y20276D01*
X80562Y20274D01*
X80107Y20240D01*
X80030Y20224D01*
X79967Y20206D01*
X79919Y20185D01*
X79885Y20161D01*
X79866Y20134D01*
Y21205D01*
X79885Y21178D01*
D02*
G37*
G36*
X17127Y21076D02*
X17033Y21065D01*
X16950Y21032D01*
X16877Y20977D01*
X16813Y20901D01*
X16759Y20802D01*
X16715Y20682D01*
X16681Y20540D01*
X16656Y20377D01*
X16642Y20191D01*
X16637Y19983D01*
X15456D01*
X15451Y20191D01*
X15436Y20377D01*
X15412Y20540D01*
X15378Y20682D01*
X15334Y20803D01*
X15280Y20901D01*
X15217Y20977D01*
X15144Y21032D01*
X15061Y21065D01*
X14968Y21076D01*
X17127Y21076D01*
D02*
G37*
G36*
X81611Y19882D02*
X81608Y19957D01*
X81588Y20024D01*
X81551Y20083D01*
X81496Y20134D01*
X81425Y20177D01*
X81336Y20213D01*
X81231Y20240D01*
X81108Y20260D01*
X80968Y20272D01*
X80812Y20276D01*
Y21063D01*
X80949Y21066D01*
X81193Y21088D01*
X81299Y21107D01*
X81395Y21132D01*
X81479Y21162D01*
X81553Y21198D01*
X81617Y21240D01*
X81670Y21287D01*
X81712Y21339D01*
X81611Y19882D01*
D02*
G37*
G36*
X34590Y20739D02*
X34572Y20664D01*
X34576Y20578D01*
X34601Y20483D01*
X34647Y20376D01*
X34715Y20260D01*
X34804Y20133D01*
X34914Y19996D01*
X35198Y19690D01*
X34740Y19034D01*
X34573Y19196D01*
X34276Y19449D01*
X34146Y19541D01*
X34028Y19609D01*
X33923Y19655D01*
X33830Y19677D01*
X33750Y19675D01*
X33682Y19651D01*
X33626Y19603D01*
X34629Y20803D01*
X34590Y20739D01*
D02*
G37*
G36*
X15754Y18894D02*
X15772Y18709D01*
X15802Y18540D01*
X15844Y18387D01*
X15897Y18250D01*
X15963Y18129D01*
X16041Y18024D01*
X16130Y17935D01*
X16232Y17863D01*
X16345Y17806D01*
X13951Y17912D01*
X14068Y17958D01*
X14173Y18020D01*
X14265Y18099D01*
X14345Y18193D01*
X14413Y18303D01*
X14468Y18429D01*
X14512Y18572D01*
X14542Y18730D01*
X14561Y18904D01*
X14567Y19094D01*
X15748D01*
X15754Y18894D01*
D02*
G37*
G36*
X86771Y17557D02*
X86712Y17602D01*
X86644Y17627D01*
X86567Y17633D01*
X86482Y17618D01*
X86388Y17585D01*
X86286Y17531D01*
X86174Y17458D01*
X86054Y17365D01*
X85925Y17253D01*
X85788Y17121D01*
X85231Y17678D01*
X85363Y17815D01*
X85568Y18064D01*
X85641Y18175D01*
X85695Y18278D01*
X85729Y18372D01*
X85743Y18457D01*
X85737Y18534D01*
X85712Y18601D01*
X85667Y18660D01*
X86771Y17557D01*
D02*
G37*
G36*
X32300Y17358D02*
X32346Y17348D01*
X32413Y17337D01*
X32487Y17329D01*
X32650Y17323D01*
Y16535D01*
X32566Y16534D01*
X32413Y16521D01*
X32346Y16510D01*
X32300Y16500D01*
Y16142D01*
X32292Y16217D01*
X32268Y16284D01*
X32228Y16342D01*
X32172Y16394D01*
X32119Y16426D01*
X32092Y16408D01*
X32058Y16378D01*
Y16454D01*
X32012Y16472D01*
X31908Y16500D01*
X31789Y16520D01*
X31653Y16532D01*
X31501Y16535D01*
Y17323D01*
X31653Y17327D01*
X31789Y17339D01*
X31908Y17358D01*
X32012Y17386D01*
X32058Y17404D01*
Y17480D01*
X32092Y17450D01*
X32119Y17432D01*
X32172Y17465D01*
X32228Y17516D01*
X32268Y17575D01*
X32292Y17642D01*
X32300Y17717D01*
Y17358D01*
D02*
G37*
G36*
X77855Y18111D02*
X77793Y18088D01*
X77738Y18050D01*
X77691Y17996D01*
X77650Y17926D01*
X77618Y17842D01*
X77592Y17741D01*
X77574Y17626D01*
X77563Y17494D01*
X77559Y17348D01*
X76772D01*
X76768Y17494D01*
X76757Y17626D01*
X76739Y17741D01*
X76713Y17842D01*
X76680Y17926D01*
X76640Y17996D01*
X76592Y18050D01*
X76538Y18088D01*
X76476Y18111D01*
X76406Y18119D01*
X77925D01*
X77855Y18111D01*
D02*
G37*
G36*
X36294Y18599D02*
X36590Y18346D01*
X36720Y18254D01*
X36838Y18186D01*
X36943Y18141D01*
X37036Y18119D01*
X37116Y18120D01*
X37184Y18144D01*
X37240Y18192D01*
X36237Y16992D01*
X36276Y17057D01*
X36294Y17132D01*
X36290Y17217D01*
X36265Y17313D01*
X36219Y17419D01*
X36151Y17535D01*
X36062Y17662D01*
X35952Y17800D01*
X35668Y18106D01*
X36127Y18761D01*
X36294Y18599D01*
D02*
G37*
G36*
X38572Y17486D02*
X38590Y17452D01*
X38621Y17422D01*
X38663Y17395D01*
X38718Y17373D01*
X38785Y17355D01*
X38864Y17341D01*
X38955Y17331D01*
X39173Y17323D01*
Y16535D01*
X39058Y16533D01*
X38864Y16517D01*
X38785Y16503D01*
X38718Y16485D01*
X38663Y16463D01*
X38621Y16437D01*
X38590Y16407D01*
X38572Y16372D01*
X38566Y16334D01*
Y17524D01*
X38572Y17486D01*
D02*
G37*
G36*
X84045Y17332D02*
X84072Y17285D01*
X84114Y17244D01*
X84170Y17208D01*
X84242Y17178D01*
X84329Y17153D01*
X84430Y17134D01*
X84547Y17120D01*
X84679Y17111D01*
X84825Y17109D01*
Y16321D01*
X84691Y16319D01*
X84465Y16296D01*
X84374Y16276D01*
X84298Y16251D01*
X84237Y16220D01*
X84190Y16183D01*
X84158Y16140D01*
X84140Y16092D01*
X84137Y16039D01*
X84033Y17385D01*
X84045Y17332D01*
D02*
G37*
G36*
X54135Y16388D02*
X54169Y15934D01*
X54185Y15857D01*
X54203Y15794D01*
X54225Y15746D01*
X54249Y15712D01*
X54276Y15693D01*
X53205D01*
X53232Y15712D01*
X53256Y15746D01*
X53277Y15794D01*
X53295Y15857D01*
X53311Y15934D01*
X53324Y16026D01*
X53341Y16253D01*
X53347Y16538D01*
X54134D01*
X54135Y16388D01*
D02*
G37*
G36*
X52167D02*
X52201Y15934D01*
X52217Y15857D01*
X52235Y15794D01*
X52256Y15746D01*
X52280Y15712D01*
X52307Y15693D01*
X51236D01*
X51263Y15712D01*
X51287Y15746D01*
X51308Y15794D01*
X51327Y15857D01*
X51342Y15934D01*
X51355Y16026D01*
X51372Y16253D01*
X51378Y16538D01*
X52165D01*
X52167Y16388D01*
D02*
G37*
G36*
X63978D02*
X64002Y16071D01*
X64134D01*
X64104Y16038D01*
X64077Y15999D01*
X64053Y15953D01*
X64033Y15903D01*
X64024Y15873D01*
X64028Y15857D01*
X64046Y15794D01*
X64067Y15746D01*
X64091Y15712D01*
X64118Y15693D01*
X63988D01*
X63983Y15643D01*
X63976Y15480D01*
X63189D01*
X63187Y15564D01*
X63177Y15693D01*
X63047D01*
X63074Y15712D01*
X63098Y15746D01*
X63119Y15794D01*
X63138Y15857D01*
X63141Y15873D01*
X63132Y15903D01*
X63112Y15953D01*
X63088Y15999D01*
X63061Y16038D01*
X63032Y16071D01*
X63170D01*
X63183Y16253D01*
X63189Y16538D01*
X63976D01*
X63978Y16388D01*
D02*
G37*
G36*
X34590Y16802D02*
X34572Y16727D01*
X34576Y16641D01*
X34601Y16546D01*
X34647Y16439D01*
X34715Y16323D01*
X34804Y16196D01*
X34914Y16059D01*
X35198Y15753D01*
X34740Y15097D01*
X34573Y15259D01*
X34276Y15512D01*
X34146Y15604D01*
X34028Y15672D01*
X33923Y15718D01*
X33830Y15740D01*
X33750Y15738D01*
X33682Y15714D01*
X33626Y15666D01*
X34629Y16866D01*
X34590Y16802D01*
D02*
G37*
G36*
X79919Y14852D02*
X79929Y14726D01*
X79945Y14616D01*
X79968Y14520D01*
X79998Y14439D01*
X80034Y14373D01*
X80077Y14321D01*
X80127Y14285D01*
X80183Y14262D01*
X80246Y14255D01*
X78797D01*
X78860Y14262D01*
X78916Y14285D01*
X78966Y14321D01*
X79009Y14373D01*
X79045Y14439D01*
X79075Y14520D01*
X79098Y14616D01*
X79115Y14726D01*
X79125Y14852D01*
X79128Y14991D01*
X79915D01*
X79919Y14852D01*
D02*
G37*
G36*
X36294Y14662D02*
X36590Y14409D01*
X36720Y14317D01*
X36838Y14249D01*
X36943Y14204D01*
X37036Y14182D01*
X37116Y14183D01*
X37184Y14207D01*
X37240Y14255D01*
X36237Y13055D01*
X36276Y13120D01*
X36294Y13195D01*
X36290Y13280D01*
X36265Y13376D01*
X36219Y13482D01*
X36151Y13598D01*
X36062Y13725D01*
X35952Y13863D01*
X35668Y14169D01*
X36127Y14824D01*
X36294Y14662D01*
D02*
G37*
G36*
X58994Y29565D02*
X59383Y29305D01*
X59842Y29213D01*
X65945D01*
X66404Y29305D01*
X66794Y29565D01*
X69757Y32528D01*
X70257Y32320D01*
Y16110D01*
X70139Y15935D01*
X70064Y15553D01*
Y10431D01*
X70139Y10049D01*
X70288Y9827D01*
Y9736D01*
X70309Y9687D01*
X70031Y9271D01*
X68840D01*
X68703Y9555D01*
X68651Y9771D01*
X68837Y10049D01*
X68913Y10431D01*
Y15553D01*
X68837Y15935D01*
X68621Y16259D01*
X68297Y16475D01*
X67915Y16551D01*
X67124D01*
X66751Y16857D01*
Y17432D01*
X66660Y17891D01*
X66659Y17893D01*
X66656Y17907D01*
X66396Y18296D01*
X65173Y19520D01*
Y21756D01*
X65081Y22215D01*
X64821Y22605D01*
X63963Y23463D01*
X63707Y23633D01*
X63564Y23758D01*
X63476Y24072D01*
X63464Y24254D01*
X63579Y24530D01*
Y25155D01*
X63340Y25732D01*
X62898Y26174D01*
X62320Y26413D01*
X61695D01*
X61118Y26174D01*
X60676Y25732D01*
X60437Y25155D01*
Y24530D01*
X60676Y23953D01*
X60849Y23779D01*
X60676Y23606D01*
X60437Y23029D01*
Y22404D01*
X60486Y22285D01*
X60208Y21869D01*
X55020D01*
X54560Y21778D01*
X54171Y21518D01*
X50923Y18270D01*
X50663Y17881D01*
X50571Y17421D01*
Y17226D01*
X50386Y17135D01*
X50019Y17375D01*
Y21358D01*
X49928Y21818D01*
X49668Y22207D01*
X48388Y23486D01*
X47999Y23747D01*
X47646Y24178D01*
X47653Y24211D01*
Y25002D01*
X47577Y25384D01*
X47439Y25591D01*
X47577Y25797D01*
X47653Y26179D01*
Y26970D01*
X47577Y27352D01*
X47439Y27559D01*
X47577Y27766D01*
X47653Y28148D01*
Y28939D01*
X47577Y29321D01*
X47439Y29528D01*
X47577Y29734D01*
X47653Y30116D01*
Y30907D01*
X47577Y31289D01*
X47439Y31496D01*
X47577Y31703D01*
X47653Y32085D01*
Y32876D01*
X47577Y33258D01*
X47439Y33465D01*
X47577Y33671D01*
X47653Y34053D01*
Y34844D01*
X47577Y35226D01*
X47439Y35433D01*
X47577Y35640D01*
X47653Y36022D01*
Y36813D01*
X47577Y37195D01*
X47439Y37402D01*
X47577Y37608D01*
X47653Y37990D01*
Y38781D01*
X47577Y39163D01*
X47439Y39370D01*
X47577Y39577D01*
X47653Y39959D01*
Y40198D01*
X48153Y40405D01*
X58994Y29565D01*
D02*
G37*
G36*
X76056Y16888D02*
X76317Y16499D01*
X77908Y14908D01*
X77890Y14728D01*
X77631Y14340D01*
X77540Y13882D01*
Y12675D01*
X77243Y12552D01*
X76801Y12110D01*
X76562Y11533D01*
Y10908D01*
X76801Y10331D01*
X77243Y9889D01*
X77820Y9650D01*
X78446D01*
X79023Y9889D01*
X79465Y10331D01*
X79703Y10906D01*
X80319D01*
X80777Y10997D01*
X81165Y11257D01*
X81424Y11645D01*
X81515Y12102D01*
Y13882D01*
X81504Y13937D01*
X81929Y14362D01*
X81984Y14351D01*
X83764D01*
X84222Y14442D01*
X84357Y14533D01*
X84807Y14232D01*
X84805Y14222D01*
Y11589D01*
X78750Y5535D01*
X28730D01*
X24564Y9701D01*
X24771Y10201D01*
X25570D01*
X26670Y10496D01*
X27657Y11065D01*
X28462Y11871D01*
X29032Y12857D01*
X29327Y13958D01*
Y15097D01*
X29070Y16054D01*
X29463Y16447D01*
X30047Y16323D01*
X30164Y16039D01*
X30606Y15597D01*
X31184Y15358D01*
X31717D01*
X31827Y15193D01*
X32215Y14934D01*
X32673Y14843D01*
X33829D01*
X33993Y14703D01*
X35235Y13461D01*
X35347Y13340D01*
X35414Y13257D01*
Y12102D01*
X35505Y11645D01*
X35764Y11257D01*
X36027Y11081D01*
X36152Y10997D01*
X36271Y10464D01*
X36224Y10352D01*
Y9727D01*
X36464Y9150D01*
X36906Y8708D01*
X37483Y8468D01*
X37669D01*
X38915Y7222D01*
X39305Y6962D01*
X39764Y6871D01*
X50507D01*
X50966Y6962D01*
X51355Y7222D01*
X51992Y7859D01*
X65739D01*
X66376Y7222D01*
X66765Y6962D01*
X67224Y6871D01*
X72736D01*
X73195Y6962D01*
X73585Y7222D01*
X74672Y8310D01*
X74933Y8699D01*
X75024Y9158D01*
Y10862D01*
X74933Y11321D01*
X74672Y11711D01*
X74432Y11951D01*
Y17167D01*
X74604Y17308D01*
X75973D01*
X76056Y16888D01*
D02*
G37*
%LPC*%
G36*
X55234Y32280D02*
X54609D01*
X54031Y32040D01*
X53589Y31598D01*
X53350Y31021D01*
Y30396D01*
X53589Y29819D01*
X54031Y29377D01*
X54609Y29138D01*
X55234D01*
X55811Y29377D01*
X56253Y29819D01*
X56492Y30396D01*
Y31021D01*
X56253Y31598D01*
X55811Y32040D01*
X55234Y32280D01*
D02*
G37*
G36*
X32202Y11610D02*
X31577D01*
X31000Y11371D01*
X30558Y10929D01*
X30319Y10352D01*
Y9727D01*
X30558Y9150D01*
X31000Y8708D01*
X31577Y8468D01*
X32202D01*
X32780Y8708D01*
X33222Y9150D01*
X33461Y9727D01*
Y10352D01*
X33222Y10929D01*
X32780Y11371D01*
X32202Y11610D01*
D02*
G37*
%LPD*%
D10*
X69070Y51378D02*
X71256Y49192D01*
X28846Y51378D02*
X69070D01*
X28060Y50592D02*
X28846Y51378D01*
X79380Y46112D02*
X81250D01*
X79331Y46063D02*
X79380Y46112D01*
X81250D02*
X81299Y46161D01*
X3740Y26181D02*
X4528Y25394D01*
Y25295D02*
Y25394D01*
Y25295D02*
X6693Y23130D01*
Y23031D02*
Y23130D01*
X7480Y22244D02*
X7579D01*
X6693Y23031D02*
X7480Y22244D01*
X3642Y26181D02*
X3740D01*
X27893Y50592D02*
X28060D01*
X29806Y49016D02*
X30597Y49807D01*
X29742Y49016D02*
X29806D01*
X30597Y49807D02*
X41494D01*
X49259D01*
X41494D02*
X41732Y49569D01*
Y46063D02*
Y49569D01*
X49721Y46145D02*
Y49346D01*
X49259Y49807D02*
X49721Y49346D01*
Y46145D02*
X49803Y46063D01*
X71260Y46260D02*
Y48882D01*
X71256Y48886D02*
X71260Y48882D01*
X71256Y48886D02*
Y49192D01*
X72736Y8071D02*
X73824Y9158D01*
Y10862D01*
X67224Y8071D02*
X72736D01*
X73232Y11453D02*
X73824Y10862D01*
X73232Y11610D02*
Y29507D01*
Y11610D02*
X73232Y11610D01*
Y11453D02*
Y11610D01*
X68701Y18239D02*
Y18307D01*
X69488Y12992D02*
Y17452D01*
X68701Y18239D02*
X69488Y17452D01*
X66236Y9059D02*
X67224Y8071D01*
X71457Y12992D02*
X71653Y12795D01*
Y10467D02*
Y12795D01*
Y10467D02*
X71859Y10261D01*
Y10048D02*
Y10261D01*
X76168Y7198D02*
Y12414D01*
Y7198D02*
X76280Y7087D01*
X75591Y12992D02*
X76168Y12414D01*
X78740Y12041D02*
Y12205D01*
X78133Y11220D02*
Y11434D01*
X78740Y12041D01*
X74040Y30315D02*
X76968D01*
X77165Y30512D01*
X73232Y29507D02*
X74040Y30315D01*
X39764Y8071D02*
X50507D01*
X51495Y9059D01*
X37795Y10039D02*
X39764Y8071D01*
X41634Y10864D02*
Y12894D01*
X40846Y10077D02*
X41634Y10864D01*
X40846Y10039D02*
Y10077D01*
X41634Y12894D02*
X41732Y12992D01*
X48035Y11461D02*
Y16122D01*
X43701Y10039D02*
X43914D01*
X44410Y10535D02*
X47110D01*
X43914Y10039D02*
X44410Y10535D01*
X47110D02*
X48035Y11461D01*
X51495Y9059D02*
X66236D01*
X49744Y12933D02*
X49803Y12992D01*
X49744Y9985D02*
Y12933D01*
X49684Y9926D02*
X49744Y9985D01*
X43110Y15551D02*
X44783Y13878D01*
X39961Y15551D02*
X43110D01*
X38287Y13878D02*
X39961Y15551D01*
X44783Y13878D02*
X44882D01*
X45669Y12992D02*
Y13091D01*
X44882Y13878D02*
X45669Y13091D01*
X37402D02*
X38189Y13878D01*
X38287D01*
X37402Y12992D02*
Y13091D01*
X48819Y16905D02*
Y21358D01*
X48035Y16122D02*
X48819Y16905D01*
X37405Y42122D02*
X48134D01*
X59842Y30413D02*
X65945D01*
X48134Y42122D02*
X59842Y30413D01*
X65945D02*
X71701Y36169D01*
X60244Y19382D02*
X61011Y18615D01*
X61857D02*
X62008Y18465D01*
X61011Y18615D02*
X61857D01*
X55602Y19382D02*
X60244D01*
X25846Y14527D02*
X29528Y18209D01*
Y23130D02*
X31170Y24772D01*
X29528Y18209D02*
Y23130D01*
X63973Y19022D02*
Y21756D01*
X62111Y22614D02*
X63114D01*
X62008Y22716D02*
X62111Y22614D01*
X63114D02*
X63973Y21756D01*
X65551Y12992D02*
Y17432D01*
X65547Y17436D02*
X65551Y17432D01*
X63973Y19022D02*
X65547Y17448D01*
Y17436D02*
Y17448D01*
X71457Y32914D02*
X72988Y34445D01*
X74616D01*
X71457Y12992D02*
Y32914D01*
X71701Y36169D02*
Y40504D01*
X51772Y41946D02*
Y46063D01*
X66629Y34055D02*
X66634D01*
X53740Y41823D02*
Y46063D01*
X61189Y34374D02*
X62122D01*
X53740Y41823D02*
X61189Y34374D01*
X61020Y36421D02*
X62004D01*
X55709Y41732D02*
Y46063D01*
Y41732D02*
X61020Y36421D01*
X61059Y38547D02*
X62122D01*
X57677Y41929D02*
X61059Y38547D01*
X57677Y41929D02*
Y46063D01*
X62122Y38547D02*
X62205Y38465D01*
X69488Y42717D02*
X71701Y40504D01*
X74616Y34449D02*
X77165D01*
X3445Y26181D02*
Y28664D01*
X6119Y31339D01*
Y34761D01*
X14552Y43307D02*
X15241Y42618D01*
X15256Y32673D02*
Y35531D01*
X31106Y45755D02*
Y47602D01*
X30109Y44758D02*
X31106Y45755D01*
X29626Y35827D02*
X31170Y34283D01*
X25846Y44528D02*
X29626Y40748D01*
Y35827D02*
Y40748D01*
X31106Y47602D02*
X32024Y48520D01*
X34945D01*
X36516Y46949D01*
X47539Y22638D02*
X48819Y21358D01*
X44094Y22638D02*
X47539D01*
X11780Y29232D02*
X16240D01*
X6119Y34761D02*
X6201Y34843D01*
X3445Y26181D02*
X3543D01*
X11319D02*
Y28771D01*
X11780Y29232D01*
X7579Y26181D02*
Y29528D01*
X8169Y30315D02*
Y34843D01*
X7382Y26181D02*
X11319D01*
X6398Y47441D02*
X6496D01*
X7283Y48228D01*
Y48327D01*
X4335Y45378D02*
X6398Y47441D01*
X4335Y43409D02*
Y45378D01*
X4232Y43307D02*
X4335Y43409D01*
X34252Y16043D02*
X34350D01*
X36516Y13878D01*
X36614D02*
X37402Y13091D01*
X33465Y16831D02*
Y16929D01*
Y16831D02*
X34252Y16043D01*
X36516Y13878D02*
X36614D01*
X31594Y38189D02*
X33563D01*
X31496Y42126D02*
X33465D01*
X31496Y20866D02*
X33465D01*
X37402Y16929D02*
X39173D01*
X37402Y16929D02*
X37402Y16929D01*
X39173D02*
X40945Y18701D01*
X44094D02*
X44094Y18701D01*
X40945Y18701D02*
X44094D01*
X34350Y19980D02*
X36516Y17815D01*
X36614D01*
X37402Y17028D01*
X33465Y20768D02*
Y20866D01*
Y20768D02*
X34252Y19980D01*
X34350D01*
X37402Y16929D02*
Y17028D01*
X37598Y20669D02*
X44094D01*
X37402Y20866D02*
X37598Y20669D01*
X31496Y16929D02*
X33465D01*
X36614Y46949D02*
X37402Y46161D01*
X36516Y46949D02*
X36614D01*
X37402Y46063D02*
Y46161D01*
X33465Y42126D02*
Y46063D01*
X25000Y14527D02*
X25846D01*
X31170Y24772D02*
X33040D01*
X33071Y24803D01*
X33040Y34283D02*
X33071Y34252D01*
X31170Y34283D02*
X33040D01*
X37402Y38189D02*
Y42126D01*
X37405Y42122D01*
X69488Y42717D02*
Y46063D01*
X71260Y46260D02*
X71457Y46063D01*
X77165Y17348D02*
X79522Y14991D01*
Y12998D02*
Y14991D01*
X77165Y17348D02*
Y18701D01*
X79522Y12998D02*
X79528Y12992D01*
X78740Y12205D02*
X79232Y12697D01*
X72988Y41074D02*
X75394Y43480D01*
Y46063D01*
X72988Y34445D02*
Y41074D01*
X40161Y27539D02*
X40969Y28346D01*
X43898D02*
X44094Y28543D01*
X40161Y25695D02*
Y27539D01*
X38226Y25234D02*
X39700D01*
X40969Y28346D02*
X43898D01*
X39700Y25234D02*
X40161Y25695D01*
X37795Y24803D02*
X38226Y25234D01*
X82874Y16339D02*
X83250Y16715D01*
X84825D01*
X88287Y20177D01*
X89567D01*
X88287Y38878D02*
X89567D01*
X84825Y42340D02*
X88287Y38878D01*
X83250Y42340D02*
X84825D01*
X82874Y42717D02*
X83250Y42340D01*
X82480Y38386D02*
X82874Y38780D01*
X77165Y38386D02*
X82480D01*
X77165Y20669D02*
X82480D01*
X82874Y20276D01*
X81595Y36417D02*
X82776Y35236D01*
X77165Y36417D02*
X81595D01*
X82776Y35236D02*
X82874D01*
X81595Y22638D02*
X82776Y23819D01*
X82874D01*
X77165Y22638D02*
X81595D01*
X83138Y31564D02*
X86682D01*
X82874Y27756D02*
X83138Y27492D01*
X86682D01*
X87402Y26772D01*
X63583Y12992D02*
Y16634D01*
X55709Y12992D02*
X55713Y12997D01*
X38488Y28646D02*
X39300D01*
X40965Y30311D01*
X43898Y30315D02*
X44094Y30512D01*
X41275Y30315D02*
X43898D01*
X41271Y30311D02*
X41275Y30315D01*
X40965Y30311D02*
X41271D01*
X40748Y32480D02*
X44094D01*
X39696Y31429D02*
X40748Y32480D01*
X38121Y31429D02*
X39696D01*
X37795Y31102D02*
X38121Y31429D01*
X40161Y34449D02*
X44094D01*
X37992D02*
X40161D01*
X37795Y34252D02*
X37992Y34449D01*
X93307Y26772D02*
Y32283D01*
X77165Y32480D02*
X77362Y32283D01*
X62004Y36421D02*
X62008Y36417D01*
X55020Y20669D02*
X62008D01*
X53740Y17520D02*
X55602Y19382D01*
X53740Y12992D02*
Y17520D01*
X51772Y17421D02*
X55020Y20669D01*
X51772Y12992D02*
Y17421D01*
X29134Y27953D02*
X33071D01*
X26909Y25728D02*
X29134Y27953D01*
X25000Y44528D02*
X25846D01*
X26909Y33327D02*
X29134Y31102D01*
X33071D01*
X37102Y31795D02*
X37795Y31102D01*
X37364Y27522D02*
X38488Y28646D01*
D12*
X89173Y20177D02*
D03*
Y5610D02*
D03*
Y46161D02*
D03*
Y38878D02*
D03*
Y53445D02*
D03*
Y12894D02*
D03*
D13*
X75394Y46063D02*
D03*
X79331D02*
D03*
X45669Y12992D02*
D03*
X41732D02*
D03*
X33465D02*
D03*
X37402D02*
D03*
Y46063D02*
D03*
X33465D02*
D03*
X45669D02*
D03*
X41732D02*
D03*
X17323Y48327D02*
D03*
X13386D02*
D03*
X79528Y12992D02*
D03*
X75591D02*
D03*
X33465Y16929D02*
D03*
X37402D02*
D03*
X3347Y48327D02*
D03*
X7283D02*
D03*
X37402Y20866D02*
D03*
X33465D02*
D03*
Y42126D02*
D03*
X37402D02*
D03*
Y38189D02*
D03*
X33465D02*
D03*
D14*
X11811Y5512D02*
D03*
X5906D02*
D03*
D15*
X3642Y22244D02*
D03*
Y26181D02*
D03*
X82874Y35236D02*
D03*
Y31299D02*
D03*
X7579Y26181D02*
D03*
X7579Y22244D02*
D03*
X11319Y26181D02*
D03*
Y22244D02*
D03*
X82874Y38780D02*
D03*
Y42717D02*
D03*
Y20276D02*
D03*
Y16339D02*
D03*
Y27756D02*
D03*
Y23819D02*
D03*
D16*
X15256Y35531D02*
D03*
Y42618D02*
D03*
D17*
X16240Y22933D02*
D03*
Y29232D02*
D03*
D18*
X77165Y28543D02*
D03*
Y26575D02*
D03*
Y40354D02*
D03*
Y38386D02*
D03*
Y18701D02*
D03*
Y20669D02*
D03*
Y22638D02*
D03*
Y24606D02*
D03*
Y30512D02*
D03*
Y32480D02*
D03*
Y34449D02*
D03*
Y36417D02*
D03*
X44094Y40354D02*
D03*
Y38386D02*
D03*
Y36417D02*
D03*
Y34449D02*
D03*
Y32480D02*
D03*
Y30512D02*
D03*
Y28543D02*
D03*
Y26575D02*
D03*
Y24606D02*
D03*
Y22638D02*
D03*
Y20669D02*
D03*
Y18701D02*
D03*
D21*
X33268Y24803D02*
D03*
X37598D02*
D03*
Y27953D02*
D03*
X33268D02*
D03*
X37598Y31102D02*
D03*
X33268D02*
D03*
X37598Y34252D02*
D03*
X33268D02*
D03*
D22*
X71457Y46063D02*
D03*
X69488D02*
D03*
X67520D02*
D03*
X65551D02*
D03*
X63583D02*
D03*
X61614D02*
D03*
X59646D02*
D03*
X57677D02*
D03*
X55709D02*
D03*
X53740D02*
D03*
X51772D02*
D03*
X49803D02*
D03*
Y12992D02*
D03*
X51772D02*
D03*
X53740D02*
D03*
X55709D02*
D03*
X57677D02*
D03*
X59646D02*
D03*
X61614D02*
D03*
X63583D02*
D03*
X65551D02*
D03*
X67520D02*
D03*
X69488D02*
D03*
X71457D02*
D03*
D23*
X87402Y32283D02*
D03*
X93307D02*
D03*
X87402Y26772D02*
D03*
X93307D02*
D03*
D42*
X4232Y34843D02*
D03*
X6201D02*
D03*
X8169D02*
D03*
Y43307D02*
D03*
X6201D02*
D03*
X4232D02*
D03*
D43*
X6201Y39075D02*
D03*
D44*
X19882Y48130D02*
X22346Y50595D01*
Y50600D02*
X23613Y51866D01*
X22346Y50595D02*
Y50600D01*
X19882Y22736D02*
Y48130D01*
X26772Y55020D02*
X79331D01*
X23618Y51866D02*
X26772Y55020D01*
X23613Y51866D02*
X23618D01*
X19882Y12402D02*
X28150Y4134D01*
X79331Y55020D02*
X88189Y46161D01*
X79331Y4134D02*
X88090Y12894D01*
X28150Y4134D02*
X79331D01*
X19882Y12402D02*
Y22736D01*
X16240Y22933D02*
X19685D01*
X19882Y22736D01*
X88189Y46161D02*
X89567D01*
X15000Y14528D02*
X15157Y14685D01*
Y19094D01*
X16046Y19983D02*
Y22739D01*
X16240Y22933D01*
X15157Y19094D02*
X16046Y19983D01*
X88090Y12894D02*
X88976D01*
D45*
X5000Y14528D02*
D03*
X15000D02*
D03*
X25000Y44528D02*
D03*
Y34528D02*
D03*
Y24528D02*
D03*
Y14528D02*
D03*
D46*
X5906Y5512D02*
D03*
X11811D02*
D03*
X81299Y46161D02*
D03*
X29742Y49016D02*
D03*
X27893Y50592D02*
D03*
X1772Y5413D02*
D03*
Y9350D02*
D03*
Y12992D02*
D03*
Y17224D02*
D03*
Y22736D02*
D03*
Y37106D02*
D03*
Y30315D02*
D03*
Y33957D02*
D03*
Y47244D02*
D03*
Y53150D02*
D03*
X71752Y57284D02*
D03*
X67815D02*
D03*
X63878D02*
D03*
X59646D02*
D03*
X56004D02*
D03*
X52067D02*
D03*
X48425D02*
D03*
X44488D02*
D03*
X40551D02*
D03*
X5413D02*
D03*
X9350D02*
D03*
X12992D02*
D03*
X17224D02*
D03*
X21161D02*
D03*
X25098D02*
D03*
X1772D02*
D03*
X36319D02*
D03*
X32677D02*
D03*
X28740D02*
D03*
X75394D02*
D03*
X84646Y4270D02*
D03*
X96653Y9449D02*
D03*
Y6988D02*
D03*
Y4232D02*
D03*
X94488Y1772D02*
D03*
X89567D02*
D03*
X92028D02*
D03*
X75394D02*
D03*
X79331D02*
D03*
X82973D02*
D03*
X87106Y1809D02*
D03*
X96653Y1772D02*
D03*
X52067D02*
D03*
X56004D02*
D03*
X59646D02*
D03*
X63878D02*
D03*
X67815D02*
D03*
X71752D02*
D03*
X28740D02*
D03*
X32677D02*
D03*
X36319D02*
D03*
X40551D02*
D03*
X44488D02*
D03*
X48425D02*
D03*
X1772D02*
D03*
X25098D02*
D03*
X21161D02*
D03*
X17224D02*
D03*
X12992D02*
D03*
X9350D02*
D03*
X5413D02*
D03*
X71859Y10048D02*
D03*
X78133Y11220D02*
D03*
X40846Y10039D02*
D03*
X49606D02*
D03*
X68701Y18307D02*
D03*
Y24213D02*
D03*
X66732D02*
D03*
X68701Y20276D02*
D03*
X62205Y36339D02*
D03*
Y38465D02*
D03*
Y40591D02*
D03*
Y34213D02*
D03*
X66634Y34055D02*
D03*
X54921Y30709D02*
D03*
X15256Y32673D02*
D03*
X30109Y44758D02*
D03*
X31594Y38189D02*
D03*
X24508Y49705D02*
D03*
X20768Y52264D02*
D03*
X11909Y29823D02*
D03*
X7579D02*
D03*
X9350Y16338D02*
D03*
X9350Y11712D02*
D03*
X21161Y7087D02*
D03*
X87106Y6988D02*
D03*
Y4232D02*
D03*
X89567D02*
D03*
X92028D02*
D03*
Y6988D02*
D03*
X94488D02*
D03*
Y9449D02*
D03*
Y4232D02*
D03*
X89567Y6988D02*
D03*
X76280Y7087D02*
D03*
X64468Y7087D02*
D03*
X60532Y7087D02*
D03*
X56595Y7087D02*
D03*
X53051D02*
D03*
X29035D02*
D03*
X33268Y6988D02*
D03*
X36811D02*
D03*
X66732Y20276D02*
D03*
Y22244D02*
D03*
X68701D02*
D03*
X66732Y36024D02*
D03*
X68701D02*
D03*
X66732Y37992D02*
D03*
X68701D02*
D03*
Y39961D02*
D03*
X66732D02*
D03*
X15354Y54232D02*
D03*
X17323D02*
D03*
X10925Y37205D02*
D03*
X10827Y40846D02*
D03*
X10236Y39079D02*
D03*
X2165Y39071D02*
D03*
X4232Y38087D02*
D03*
Y40063D02*
D03*
X8169D02*
D03*
Y38087D02*
D03*
X6201Y40063D02*
D03*
Y38087D02*
D03*
X13287Y38386D02*
D03*
Y32677D02*
D03*
X17224D02*
D03*
Y38386D02*
D03*
X15256Y38390D02*
D03*
X3347Y50098D02*
D03*
X1772Y41043D02*
D03*
X15354Y52264D02*
D03*
X17323D02*
D03*
Y50295D02*
D03*
X31890Y10039D02*
D03*
X34945D02*
D03*
X43701D02*
D03*
X31496Y42126D02*
D03*
X37795Y10039D02*
D03*
X31496Y20866D02*
D03*
X40059Y20669D02*
D03*
X31496Y16929D02*
D03*
X52756Y23917D02*
D03*
X63583Y16634D02*
D03*
X96653Y45276D02*
D03*
Y13780D02*
D03*
Y21654D02*
D03*
Y29528D02*
D03*
X96636Y37402D02*
D03*
X62008Y20591D02*
D03*
Y22716D02*
D03*
X62008Y24843D02*
D03*
Y18465D02*
D03*
X73802Y32480D02*
D03*
M02*
